G04 #@! TF.GenerationSoftware,KiCad,Pcbnew,(5.0.2)-1*
G04 #@! TF.CreationDate,2019-10-09T02:29:05+02:00*
G04 #@! TF.ProjectId,esp32-lifepo4,65737033-322d-46c6-9966-65706f342e6b,rev?*
G04 #@! TF.SameCoordinates,Original*
G04 #@! TF.FileFunction,Copper,L1,Top*
G04 #@! TF.FilePolarity,Positive*
%FSLAX46Y46*%
G04 Gerber Fmt 4.6, Leading zero omitted, Abs format (unit mm)*
G04 Created by KiCad (PCBNEW (5.0.2)-1) date 09/10/2019 02:29:05*
%MOMM*%
%LPD*%
G01*
G04 APERTURE LIST*
G04 #@! TA.AperFunction,SMDPad,CuDef*
%ADD10R,1.250000X1.000000*%
G04 #@! TD*
G04 #@! TA.AperFunction,SMDPad,CuDef*
%ADD11R,1.800000X2.500000*%
G04 #@! TD*
G04 #@! TA.AperFunction,SMDPad,CuDef*
%ADD12R,0.800000X0.800000*%
G04 #@! TD*
G04 #@! TA.AperFunction,ComponentPad*
%ADD13C,1.879600*%
G04 #@! TD*
G04 #@! TA.AperFunction,SMDPad,CuDef*
%ADD14R,0.635000X1.270000*%
G04 #@! TD*
G04 #@! TA.AperFunction,SMDPad,CuDef*
%ADD15R,0.797560X1.198880*%
G04 #@! TD*
G04 #@! TA.AperFunction,SMDPad,CuDef*
%ADD16R,1.198880X0.797560*%
G04 #@! TD*
G04 #@! TA.AperFunction,SMDPad,CuDef*
%ADD17O,2.500000X0.900000*%
G04 #@! TD*
G04 #@! TA.AperFunction,SMDPad,CuDef*
%ADD18O,0.900000X2.500000*%
G04 #@! TD*
G04 #@! TA.AperFunction,SMDPad,CuDef*
%ADD19R,6.000000X6.000000*%
G04 #@! TD*
G04 #@! TA.AperFunction,SMDPad,CuDef*
%ADD20R,1.550000X0.600000*%
G04 #@! TD*
G04 #@! TA.AperFunction,SMDPad,CuDef*
%ADD21R,1.060000X0.650000*%
G04 #@! TD*
G04 #@! TA.AperFunction,ViaPad*
%ADD22C,0.800000*%
G04 #@! TD*
G04 #@! TA.AperFunction,Conductor*
%ADD23C,0.250000*%
G04 #@! TD*
G04 #@! TA.AperFunction,Conductor*
%ADD24C,0.400000*%
G04 #@! TD*
G04 #@! TA.AperFunction,Conductor*
%ADD25C,0.254000*%
G04 #@! TD*
G04 APERTURE END LIST*
D10*
G04 #@! TO.P,C1,1*
G04 #@! TO.N,GND*
X151892000Y-97774000D03*
G04 #@! TO.P,C1,2*
G04 #@! TO.N,Net-(C1-Pad2)*
X151892000Y-95774000D03*
G04 #@! TD*
G04 #@! TO.P,C2,2*
G04 #@! TO.N,BAT+*
X163068000Y-95774000D03*
G04 #@! TO.P,C2,1*
G04 #@! TO.N,GND*
X163068000Y-97774000D03*
G04 #@! TD*
D11*
G04 #@! TO.P,D1,2*
G04 #@! TO.N,Net-(C1-Pad2)*
X149098000Y-92996000D03*
G04 #@! TO.P,D1,1*
G04 #@! TO.N,VIN*
X149098000Y-96996000D03*
G04 #@! TD*
D12*
G04 #@! TO.P,D2,1*
G04 #@! TO.N,Net-(D2-Pad1)*
X160528000Y-98006000D03*
G04 #@! TO.P,D2,2*
G04 #@! TO.N,Net-(D2-Pad2)*
X160528000Y-99606000D03*
G04 #@! TD*
G04 #@! TO.P,D3,2*
G04 #@! TO.N,Net-(D2-Pad2)*
X154432000Y-99606000D03*
G04 #@! TO.P,D3,1*
G04 #@! TO.N,Net-(D3-Pad1)*
X154432000Y-98006000D03*
G04 #@! TD*
D13*
G04 #@! TO.P,J1,1*
G04 #@! TO.N,3V3*
X144780000Y-71120000D03*
G04 #@! TO.P,J1,2*
G04 #@! TO.N,VIN*
X144780000Y-73660000D03*
G04 #@! TO.P,J1,3*
G04 #@! TO.N,BAT+*
X144780000Y-76200000D03*
G04 #@! TO.P,J1,4*
G04 #@! TO.N,GND*
X144780000Y-78740000D03*
G04 #@! TO.P,J1,5*
G04 #@! TO.N,BOOT*
X144780000Y-81280000D03*
G04 #@! TO.P,J1,6*
G04 #@! TO.N,IO32*
X144780000Y-83820000D03*
G04 #@! TO.P,J1,7*
G04 #@! TO.N,IO33*
X144780000Y-86360000D03*
G04 #@! TO.P,J1,8*
G04 #@! TO.N,IO34*
X144780000Y-88900000D03*
G04 #@! TO.P,J1,9*
G04 #@! TO.N,IO35*
X144780000Y-91440000D03*
G04 #@! TO.P,J1,10*
G04 #@! TO.N,IO25*
X144780000Y-93980000D03*
G04 #@! TO.P,J1,11*
G04 #@! TO.N,IO26*
X144780000Y-96520000D03*
G04 #@! TO.P,J1,12*
G04 #@! TO.N,IO27*
X144780000Y-99060000D03*
G04 #@! TD*
G04 #@! TO.P,J2,12*
G04 #@! TO.N,GND*
X170180000Y-71120000D03*
G04 #@! TO.P,J2,11*
G04 #@! TO.N,TX0*
X170180000Y-73660000D03*
G04 #@! TO.P,J2,10*
G04 #@! TO.N,RX0*
X170180000Y-76200000D03*
G04 #@! TO.P,J2,9*
G04 #@! TO.N,IO23*
X170180000Y-78740000D03*
G04 #@! TO.P,J2,8*
G04 #@! TO.N,IO22*
X170180000Y-81280000D03*
G04 #@! TO.P,J2,7*
G04 #@! TO.N,IO21*
X170180000Y-83820000D03*
G04 #@! TO.P,J2,6*
G04 #@! TO.N,IO19*
X170180000Y-86360000D03*
G04 #@! TO.P,J2,5*
G04 #@! TO.N,IO18*
X170180000Y-88900000D03*
G04 #@! TO.P,J2,4*
G04 #@! TO.N,IO17*
X170180000Y-91440000D03*
G04 #@! TO.P,J2,3*
G04 #@! TO.N,IO16*
X170180000Y-93980000D03*
G04 #@! TO.P,J2,2*
G04 #@! TO.N,IO14*
X170180000Y-96520000D03*
G04 #@! TO.P,J2,1*
G04 #@! TO.N,GND*
X170180000Y-99060000D03*
G04 #@! TD*
D14*
G04 #@! TO.P,JP1,1*
G04 #@! TO.N,BAT+*
X165455600Y-99060000D03*
G04 #@! TO.P,JP1,2*
G04 #@! TO.N,3V3*
X166268400Y-99060000D03*
G04 #@! TD*
D15*
G04 #@! TO.P,R1,1*
G04 #@! TO.N,Net-(D2-Pad2)*
X158379160Y-98298000D03*
G04 #@! TO.P,R1,2*
G04 #@! TO.N,Net-(C1-Pad2)*
X156580840Y-98298000D03*
G04 #@! TD*
D16*
G04 #@! TO.P,R2,2*
G04 #@! TO.N,ISET*
X151892000Y-92064840D03*
G04 #@! TO.P,R2,1*
G04 #@! TO.N,GND*
X151892000Y-93863160D03*
G04 #@! TD*
G04 #@! TO.P,R3,1*
G04 #@! TO.N,BAT+*
X163068000Y-93863160D03*
G04 #@! TO.P,R3,2*
G04 #@! TO.N,Net-(R3-Pad2)*
X163068000Y-92064840D03*
G04 #@! TD*
D17*
G04 #@! TO.P,U1,38*
G04 #@! TO.N,GND*
X166480000Y-70950000D03*
G04 #@! TO.P,U1,37*
G04 #@! TO.N,IO23*
X166480000Y-72220000D03*
G04 #@! TO.P,U1,36*
G04 #@! TO.N,IO22*
X166480000Y-73490000D03*
G04 #@! TO.P,U1,35*
G04 #@! TO.N,TX0*
X166480000Y-74760000D03*
G04 #@! TO.P,U1,34*
G04 #@! TO.N,RX0*
X166480000Y-76030000D03*
G04 #@! TO.P,U1,33*
G04 #@! TO.N,IO21*
X166480000Y-77300000D03*
G04 #@! TO.P,U1,32*
G04 #@! TO.N,Net-(U1-Pad32)*
X166480000Y-78570000D03*
G04 #@! TO.P,U1,31*
G04 #@! TO.N,IO19*
X166480000Y-79840000D03*
G04 #@! TO.P,U1,30*
G04 #@! TO.N,IO18*
X166480000Y-81110000D03*
G04 #@! TO.P,U1,29*
G04 #@! TO.N,Net-(U1-Pad29)*
X166480000Y-82380000D03*
G04 #@! TO.P,U1,28*
G04 #@! TO.N,IO17*
X166480000Y-83650000D03*
G04 #@! TO.P,U1,27*
G04 #@! TO.N,IO16*
X166480000Y-84920000D03*
G04 #@! TO.P,U1,26*
G04 #@! TO.N,Net-(U1-Pad26)*
X166480000Y-86190000D03*
G04 #@! TO.P,U1,25*
G04 #@! TO.N,BOOT*
X166480000Y-87460000D03*
D18*
G04 #@! TO.P,U1,24*
G04 #@! TO.N,Net-(U1-Pad24)*
X163195000Y-88950000D03*
G04 #@! TO.P,U1,23*
G04 #@! TO.N,Net-(U1-Pad23)*
X161925000Y-88950000D03*
G04 #@! TO.P,U1,22*
G04 #@! TO.N,Net-(U1-Pad22)*
X160655000Y-88950000D03*
G04 #@! TO.P,U1,21*
G04 #@! TO.N,Net-(U1-Pad21)*
X159385000Y-88950000D03*
G04 #@! TO.P,U1,20*
G04 #@! TO.N,Net-(U1-Pad20)*
X158115000Y-88950000D03*
G04 #@! TO.P,U1,19*
G04 #@! TO.N,Net-(U1-Pad19)*
X156845000Y-88950000D03*
G04 #@! TO.P,U1,18*
G04 #@! TO.N,Net-(U1-Pad18)*
X155575000Y-88950000D03*
G04 #@! TO.P,U1,17*
G04 #@! TO.N,Net-(U1-Pad17)*
X154305000Y-88950000D03*
G04 #@! TO.P,U1,16*
G04 #@! TO.N,Net-(U1-Pad16)*
X153035000Y-88950000D03*
G04 #@! TO.P,U1,15*
G04 #@! TO.N,GND*
X151765000Y-88950000D03*
D17*
G04 #@! TO.P,U1,14*
G04 #@! TO.N,Net-(U1-Pad14)*
X148480000Y-87460000D03*
G04 #@! TO.P,U1,13*
G04 #@! TO.N,IO14*
X148480000Y-86190000D03*
G04 #@! TO.P,U1,12*
G04 #@! TO.N,IO27*
X148480000Y-84920000D03*
G04 #@! TO.P,U1,11*
G04 #@! TO.N,IO26*
X148480000Y-83650000D03*
G04 #@! TO.P,U1,10*
G04 #@! TO.N,IO25*
X148480000Y-82380000D03*
G04 #@! TO.P,U1,9*
G04 #@! TO.N,IO33*
X148480000Y-81110000D03*
G04 #@! TO.P,U1,8*
G04 #@! TO.N,IO32*
X148480000Y-79840000D03*
G04 #@! TO.P,U1,7*
G04 #@! TO.N,IO35*
X148480000Y-78570000D03*
G04 #@! TO.P,U1,6*
G04 #@! TO.N,IO34*
X148480000Y-77300000D03*
G04 #@! TO.P,U1,5*
G04 #@! TO.N,ISET*
X148480000Y-76030000D03*
G04 #@! TO.P,U1,4*
G04 #@! TO.N,3V3*
X148480000Y-74760000D03*
G04 #@! TO.P,U1,3*
X148480000Y-73490000D03*
G04 #@! TO.P,U1,2*
X148480000Y-72220000D03*
G04 #@! TO.P,U1,1*
G04 #@! TO.N,GND*
X148480000Y-70950000D03*
D19*
G04 #@! TO.P,U1,39*
X157180000Y-78650000D03*
G04 #@! TD*
D20*
G04 #@! TO.P,U2,8*
G04 #@! TO.N,Net-(R3-Pad2)*
X160180000Y-92329000D03*
G04 #@! TO.P,U2,7*
G04 #@! TO.N,Net-(D3-Pad1)*
X160180000Y-93599000D03*
G04 #@! TO.P,U2,6*
G04 #@! TO.N,Net-(D2-Pad1)*
X160180000Y-94869000D03*
G04 #@! TO.P,U2,5*
G04 #@! TO.N,BAT+*
X160180000Y-96139000D03*
G04 #@! TO.P,U2,4*
G04 #@! TO.N,Net-(C1-Pad2)*
X154780000Y-96139000D03*
G04 #@! TO.P,U2,3*
G04 #@! TO.N,GND*
X154780000Y-94869000D03*
G04 #@! TO.P,U2,2*
G04 #@! TO.N,ISET*
X154780000Y-93599000D03*
G04 #@! TO.P,U2,1*
G04 #@! TO.N,GND*
X154780000Y-92329000D03*
G04 #@! TD*
D21*
G04 #@! TO.P,U3,5*
G04 #@! TO.N,Net-(U3-Pad5)*
X167300000Y-92080000D03*
G04 #@! TO.P,U3,4*
G04 #@! TO.N,Net-(U3-Pad4)*
X167300000Y-93980000D03*
G04 #@! TO.P,U3,3*
G04 #@! TO.N,3V3*
X165100000Y-93980000D03*
G04 #@! TO.P,U3,2*
G04 #@! TO.N,BAT+*
X165100000Y-93030000D03*
G04 #@! TO.P,U3,1*
G04 #@! TO.N,GND*
X165100000Y-92080000D03*
G04 #@! TD*
D22*
G04 #@! TO.N,GND*
X153162000Y-96964500D03*
X153162000Y-94996000D03*
X146558000Y-78422500D03*
X156527500Y-82146599D03*
G04 #@! TO.N,BAT+*
X167927624Y-96028169D03*
X164147500Y-99822000D03*
X167576500Y-99822000D03*
G04 #@! TO.N,VIN*
X153098500Y-75882500D03*
X153352500Y-80645000D03*
X157289500Y-85090000D03*
X154686000Y-86868000D03*
X151892000Y-99441000D03*
G04 #@! TO.N,Net-(D3-Pad1)*
X155448000Y-98044000D03*
X156527500Y-96012000D03*
G04 #@! TO.N,3V3*
X152209500Y-78549500D03*
X167005000Y-95186500D03*
G04 #@! TO.N,BOOT*
X150749000Y-81407000D03*
G04 #@! TO.N,IO35*
X151484500Y-80137000D03*
G04 #@! TO.N,IO25*
X148780500Y-89916000D03*
G04 #@! TO.N,IO26*
X151828500Y-84264500D03*
G04 #@! TO.N,IO23*
X163576000Y-73469500D03*
G04 #@! TO.N,IO22*
X163893500Y-75374500D03*
G04 #@! TO.N,IO21*
X163766500Y-78359000D03*
G04 #@! TO.N,IO19*
X163639500Y-81597500D03*
G04 #@! TO.N,IO18*
X163385500Y-83312000D03*
G04 #@! TO.N,IO17*
X163639500Y-85788500D03*
G04 #@! TO.N,IO14*
X152945000Y-84264500D03*
G04 #@! TO.N,ISET*
X146939000Y-99695000D03*
X146558000Y-75247500D03*
G04 #@! TD*
D23*
G04 #@! TO.N,GND*
X151892000Y-97774000D02*
X152352500Y-97774000D01*
X152352500Y-97774000D02*
X153162000Y-96964500D01*
X153024840Y-94996000D02*
X151892000Y-93863160D01*
X153162000Y-94996000D02*
X153024840Y-94996000D01*
X144780000Y-78740000D02*
X146240500Y-78740000D01*
X146240500Y-78740000D02*
X146558000Y-78422500D01*
X157180000Y-81900000D02*
X157180000Y-78650000D01*
X157180000Y-82059784D02*
X157180000Y-81900000D01*
X157093185Y-82146599D02*
X157180000Y-82059784D01*
X156527500Y-82146599D02*
X157093185Y-82146599D01*
G04 #@! TO.N,Net-(C1-Pad2)*
X154780000Y-96296500D02*
X154780000Y-96139000D01*
X156580840Y-98097340D02*
X154780000Y-96296500D01*
X156580840Y-98298000D02*
X156580840Y-98097340D01*
X152257000Y-96139000D02*
X151892000Y-95774000D01*
X154780000Y-96139000D02*
X152257000Y-96139000D01*
X149098000Y-93105000D02*
X149098000Y-92996000D01*
X151767000Y-95774000D02*
X149098000Y-93105000D01*
X151892000Y-95774000D02*
X151767000Y-95774000D01*
D24*
G04 #@! TO.N,BAT+*
X162703000Y-96139000D02*
X163068000Y-95774000D01*
X160180000Y-96139000D02*
X162703000Y-96139000D01*
X163068000Y-95774000D02*
X163068000Y-93863160D01*
X163901160Y-93030000D02*
X165100000Y-93030000D01*
X163068000Y-93863160D02*
X163901160Y-93030000D01*
X165455600Y-98175000D02*
X165455600Y-99060000D01*
X165455600Y-97286600D02*
X165455600Y-98175000D01*
X163943000Y-95774000D02*
X165455600Y-97286600D01*
X163068000Y-95774000D02*
X163943000Y-95774000D01*
X165455600Y-99060000D02*
X164909500Y-99060000D01*
X164909500Y-99060000D02*
X164147500Y-99822000D01*
X168301501Y-96402046D02*
X167927624Y-96028169D01*
X167576500Y-99822000D02*
X168301501Y-99096999D01*
X168301501Y-99096999D02*
X168301501Y-96402046D01*
G04 #@! TO.N,VIN*
X153098500Y-75882500D02*
X153098500Y-80391000D01*
X153098500Y-80391000D02*
X153352500Y-80645000D01*
X157289500Y-85090000D02*
X156464000Y-85090000D01*
X156464000Y-85090000D02*
X154686000Y-86868000D01*
X151892000Y-99441000D02*
X149987000Y-99441000D01*
X149098000Y-98552000D02*
X149098000Y-96996000D01*
X149987000Y-99441000D02*
X149098000Y-98552000D01*
D23*
G04 #@! TO.N,Net-(D2-Pad1)*
X159705000Y-94869000D02*
X160180000Y-94869000D01*
X159079999Y-95494001D02*
X159705000Y-94869000D01*
X159079999Y-97207999D02*
X159079999Y-95494001D01*
X159878000Y-98006000D02*
X159079999Y-97207999D01*
X160528000Y-98006000D02*
X159878000Y-98006000D01*
G04 #@! TO.N,Net-(D2-Pad2)*
X159878000Y-99606000D02*
X160528000Y-99606000D01*
X158837720Y-99606000D02*
X159878000Y-99606000D01*
X158379160Y-99147440D02*
X158837720Y-99606000D01*
X158379160Y-98298000D02*
X158379160Y-99147440D01*
X158379160Y-98498660D02*
X158379160Y-98298000D01*
X157271820Y-99606000D02*
X158379160Y-98498660D01*
X154432000Y-99606000D02*
X157271820Y-99606000D01*
G04 #@! TO.N,Net-(D3-Pad1)*
X154432000Y-98006000D02*
X155410000Y-98006000D01*
X155410000Y-98006000D02*
X155448000Y-98044000D01*
X158940500Y-93599000D02*
X160180000Y-93599000D01*
X156527500Y-96012000D02*
X158940500Y-93599000D01*
G04 #@! TO.N,3V3*
X165305000Y-93980000D02*
X165100000Y-93980000D01*
X166268400Y-94943400D02*
X165305000Y-93980000D01*
X166268400Y-99060000D02*
X166268400Y-94943400D01*
X145880000Y-72220000D02*
X148480000Y-72220000D01*
X144780000Y-71120000D02*
X145880000Y-72220000D01*
X148480000Y-72220000D02*
X148480000Y-73490000D01*
X148480000Y-73490000D02*
X148480000Y-74760000D01*
X152209500Y-77863471D02*
X152209500Y-78549500D01*
X152209500Y-77689500D02*
X152209500Y-77863471D01*
X148480000Y-74760000D02*
X149280000Y-74760000D01*
X149280000Y-74760000D02*
X152209500Y-77689500D01*
X167005000Y-96202500D02*
X167005000Y-95186500D01*
X167386000Y-96774000D02*
X167005000Y-96202500D01*
X167513000Y-96901000D02*
X167386000Y-96774000D01*
X167576500Y-98319400D02*
X167513000Y-96901000D01*
X166268400Y-99060000D02*
X166835900Y-99060000D01*
X166835900Y-99060000D02*
X167576500Y-98319400D01*
G04 #@! TO.N,BOOT*
X152655410Y-81407000D02*
X150749000Y-81407000D01*
X154120009Y-82871599D02*
X152655410Y-81407000D01*
X159012628Y-82871599D02*
X154120009Y-82871599D01*
X166480000Y-87460000D02*
X163601029Y-87460000D01*
X163601029Y-87460000D02*
X159012628Y-82871599D01*
G04 #@! TO.N,IO32*
X147680000Y-79840000D02*
X148480000Y-79840000D01*
X146044801Y-81475199D02*
X147680000Y-79840000D01*
X146044801Y-82555199D02*
X146044801Y-81475199D01*
X144780000Y-83820000D02*
X146044801Y-82555199D01*
G04 #@! TO.N,IO33*
X147680000Y-81110000D02*
X148480000Y-81110000D01*
X146558000Y-82232000D02*
X147680000Y-81110000D01*
X146558000Y-84582000D02*
X146558000Y-82232000D01*
X144780000Y-86360000D02*
X146558000Y-84582000D01*
G04 #@! TO.N,IO34*
X146980000Y-77300000D02*
X148480000Y-77300000D01*
X146815199Y-77464801D02*
X146980000Y-77300000D01*
X144183293Y-77464801D02*
X146815199Y-77464801D01*
X143515199Y-78132895D02*
X144183293Y-77464801D01*
X143515199Y-87635199D02*
X143515199Y-78132895D01*
X144780000Y-88900000D02*
X143515199Y-87635199D01*
G04 #@! TO.N,IO35*
X149980000Y-78570000D02*
X148480000Y-78570000D01*
X150483185Y-78570000D02*
X149980000Y-78570000D01*
X151484500Y-79571315D02*
X150483185Y-78570000D01*
X151484500Y-80137000D02*
X151484500Y-79571315D01*
G04 #@! TO.N,IO25*
X148780500Y-89916000D02*
X153670000Y-85026500D01*
X153670000Y-85026500D02*
X153670000Y-83058000D01*
X152992000Y-82380000D02*
X148480000Y-82380000D01*
X153670000Y-83058000D02*
X152992000Y-82380000D01*
G04 #@! TO.N,IO26*
X151214000Y-83650000D02*
X148480000Y-83650000D01*
X151828500Y-84264500D02*
X151214000Y-83650000D01*
G04 #@! TO.N,IO27*
X147680000Y-84920000D02*
X148480000Y-84920000D01*
X146875500Y-85724500D02*
X147680000Y-84920000D01*
X146875500Y-96964500D02*
X146875500Y-85724500D01*
X144780000Y-99060000D02*
X146875500Y-96964500D01*
G04 #@! TO.N,TX0*
X169080000Y-74760000D02*
X170180000Y-73660000D01*
X166480000Y-74760000D02*
X169080000Y-74760000D01*
G04 #@! TO.N,RX0*
X170010000Y-76030000D02*
X170180000Y-76200000D01*
X166480000Y-76030000D02*
X170010000Y-76030000D01*
G04 #@! TO.N,IO23*
X166480000Y-72220000D02*
X164825500Y-72220000D01*
X164825500Y-72220000D02*
X163576000Y-73469500D01*
G04 #@! TO.N,IO22*
X163893500Y-75276500D02*
X163893500Y-75374500D01*
X166480000Y-73490000D02*
X165680000Y-73490000D01*
X165680000Y-73490000D02*
X163893500Y-75276500D01*
G04 #@! TO.N,IO21*
X166480000Y-77300000D02*
X164825500Y-77300000D01*
X164825500Y-77300000D02*
X163766500Y-78359000D01*
G04 #@! TO.N,IO19*
X163922500Y-81597500D02*
X163639500Y-81597500D01*
X166480000Y-79840000D02*
X165680000Y-79840000D01*
X165680000Y-79840000D02*
X163922500Y-81597500D01*
G04 #@! TO.N,IO18*
X163478000Y-83312000D02*
X163385500Y-83312000D01*
X166480000Y-81110000D02*
X165680000Y-81110000D01*
X165680000Y-81110000D02*
X163478000Y-83312000D01*
G04 #@! TO.N,IO17*
X163639500Y-85690500D02*
X163639500Y-85788500D01*
X166480000Y-83650000D02*
X165680000Y-83650000D01*
X165680000Y-83650000D02*
X163639500Y-85690500D01*
G04 #@! TO.N,IO16*
X167280000Y-84920000D02*
X166480000Y-84920000D01*
X168055010Y-85695010D02*
X167280000Y-84920000D01*
X168055010Y-91395008D02*
X168055010Y-85695010D01*
X169240201Y-92580199D02*
X168055010Y-91395008D01*
X169240201Y-93040201D02*
X169240201Y-92580199D01*
X170180000Y-93980000D02*
X169240201Y-93040201D01*
G04 #@! TO.N,IO14*
X148480000Y-86190000D02*
X149167613Y-86190000D01*
X152901502Y-84264500D02*
X152945000Y-84264500D01*
X148480000Y-86190000D02*
X150976002Y-86190000D01*
X150976002Y-86190000D02*
X152901502Y-84264500D01*
G04 #@! TO.N,ISET*
X154305000Y-93599000D02*
X154780000Y-93599000D01*
X152770840Y-92064840D02*
X154305000Y-93599000D01*
X151892000Y-92064840D02*
X152770840Y-92064840D01*
X151691340Y-92064840D02*
X151042560Y-91416060D01*
X151892000Y-92064840D02*
X151691340Y-92064840D01*
X151042560Y-91416060D02*
X147942938Y-91416060D01*
X147942938Y-91416060D02*
X147325510Y-92033488D01*
X147325510Y-92033488D02*
X147325510Y-99308490D01*
X147325510Y-99308490D02*
X146939000Y-99695000D01*
X146980000Y-76030000D02*
X148480000Y-76030000D01*
X146774815Y-76030000D02*
X146980000Y-76030000D01*
X146558000Y-75813185D02*
X146774815Y-76030000D01*
X146558000Y-75247500D02*
X146558000Y-75813185D01*
G04 #@! TO.N,Net-(R3-Pad2)*
X162803840Y-92329000D02*
X163068000Y-92064840D01*
X160180000Y-92329000D02*
X162803840Y-92329000D01*
G04 #@! TD*
D25*
G04 #@! TO.N,GND*
G36*
X172085502Y-101154412D02*
X142685763Y-100902594D01*
X142814979Y-87955207D01*
X142967270Y-88183128D01*
X143030729Y-88225530D01*
X143259898Y-88454700D01*
X143205200Y-88586753D01*
X143205200Y-89213247D01*
X143444949Y-89792052D01*
X143822897Y-90170000D01*
X143444949Y-90547948D01*
X143205200Y-91126753D01*
X143205200Y-91753247D01*
X143444949Y-92332052D01*
X143822897Y-92710000D01*
X143444949Y-93087948D01*
X143205200Y-93666753D01*
X143205200Y-94293247D01*
X143444949Y-94872052D01*
X143822897Y-95250000D01*
X143444949Y-95627948D01*
X143205200Y-96206753D01*
X143205200Y-96833247D01*
X143444949Y-97412052D01*
X143822897Y-97790000D01*
X143444949Y-98167948D01*
X143205200Y-98746753D01*
X143205200Y-99373247D01*
X143444949Y-99952052D01*
X143887948Y-100395051D01*
X144466753Y-100634800D01*
X145093247Y-100634800D01*
X145672052Y-100395051D01*
X145980805Y-100086298D01*
X146061569Y-100281280D01*
X146352720Y-100572431D01*
X146733126Y-100730000D01*
X147144874Y-100730000D01*
X147525280Y-100572431D01*
X147816431Y-100281280D01*
X147974000Y-99900874D01*
X147974000Y-99705919D01*
X148033998Y-99616126D01*
X148041414Y-99605028D01*
X148064468Y-99489126D01*
X148085510Y-99383342D01*
X148085510Y-99383338D01*
X148100398Y-99308490D01*
X148085510Y-99233642D01*
X148085510Y-98871065D01*
X148198000Y-98893440D01*
X148321898Y-98893440D01*
X148495999Y-99154001D01*
X148565720Y-99200587D01*
X149338414Y-99973282D01*
X149384999Y-100043001D01*
X149661199Y-100227552D01*
X149987000Y-100292358D01*
X150069237Y-100276000D01*
X151263289Y-100276000D01*
X151305720Y-100318431D01*
X151686126Y-100476000D01*
X152097874Y-100476000D01*
X152478280Y-100318431D01*
X152769431Y-100027280D01*
X152927000Y-99646874D01*
X152927000Y-99235126D01*
X152770152Y-98856460D01*
X152876699Y-98812327D01*
X153055327Y-98633698D01*
X153152000Y-98400309D01*
X153152000Y-98059750D01*
X152993250Y-97901000D01*
X152019000Y-97901000D01*
X152019000Y-97921000D01*
X151765000Y-97921000D01*
X151765000Y-97901000D01*
X151745000Y-97901000D01*
X151745000Y-97647000D01*
X151765000Y-97647000D01*
X151765000Y-97627000D01*
X152019000Y-97627000D01*
X152019000Y-97647000D01*
X152993250Y-97647000D01*
X153152000Y-97488250D01*
X153152000Y-97147691D01*
X153055327Y-96914302D01*
X153040025Y-96899000D01*
X153550470Y-96899000D01*
X153748799Y-97031520D01*
X153574191Y-97148191D01*
X153433843Y-97358235D01*
X153384560Y-97606000D01*
X153384560Y-98406000D01*
X153433843Y-98653765D01*
X153535564Y-98806000D01*
X153433843Y-98958235D01*
X153384560Y-99206000D01*
X153384560Y-100006000D01*
X153433843Y-100253765D01*
X153574191Y-100463809D01*
X153784235Y-100604157D01*
X154032000Y-100653440D01*
X154832000Y-100653440D01*
X155079765Y-100604157D01*
X155289809Y-100463809D01*
X155355163Y-100366000D01*
X157196973Y-100366000D01*
X157271820Y-100380888D01*
X157346667Y-100366000D01*
X157346672Y-100366000D01*
X157568357Y-100321904D01*
X157819749Y-100153929D01*
X157862151Y-100090470D01*
X158054770Y-99897851D01*
X158247389Y-100090470D01*
X158289791Y-100153929D01*
X158422989Y-100242929D01*
X158541182Y-100321904D01*
X158589325Y-100331480D01*
X158762868Y-100366000D01*
X158762872Y-100366000D01*
X158837720Y-100380888D01*
X158912568Y-100366000D01*
X159604837Y-100366000D01*
X159670191Y-100463809D01*
X159880235Y-100604157D01*
X160128000Y-100653440D01*
X160928000Y-100653440D01*
X161175765Y-100604157D01*
X161385809Y-100463809D01*
X161526157Y-100253765D01*
X161575440Y-100006000D01*
X161575440Y-99206000D01*
X161526157Y-98958235D01*
X161424436Y-98806000D01*
X161526157Y-98653765D01*
X161575440Y-98406000D01*
X161575440Y-98059750D01*
X161808000Y-98059750D01*
X161808000Y-98400309D01*
X161904673Y-98633698D01*
X162083301Y-98812327D01*
X162316690Y-98909000D01*
X162782250Y-98909000D01*
X162941000Y-98750250D01*
X162941000Y-97901000D01*
X161966750Y-97901000D01*
X161808000Y-98059750D01*
X161575440Y-98059750D01*
X161575440Y-97606000D01*
X161526157Y-97358235D01*
X161385809Y-97148191D01*
X161211201Y-97031520D01*
X161297285Y-96974000D01*
X161879945Y-96974000D01*
X161808000Y-97147691D01*
X161808000Y-97488250D01*
X161966750Y-97647000D01*
X162941000Y-97647000D01*
X162941000Y-97627000D01*
X163195000Y-97627000D01*
X163195000Y-97647000D01*
X164169250Y-97647000D01*
X164328000Y-97488250D01*
X164328000Y-97339868D01*
X164620600Y-97632469D01*
X164620601Y-98056523D01*
X164539943Y-98177235D01*
X164511165Y-98321914D01*
X164307499Y-98457999D01*
X164298567Y-98471367D01*
X164328000Y-98400309D01*
X164328000Y-98059750D01*
X164169250Y-97901000D01*
X163195000Y-97901000D01*
X163195000Y-98750250D01*
X163353750Y-98909000D01*
X163647091Y-98909000D01*
X163561220Y-98944569D01*
X163270069Y-99235720D01*
X163112500Y-99616126D01*
X163112500Y-100027874D01*
X163270069Y-100408280D01*
X163561220Y-100699431D01*
X163941626Y-100857000D01*
X164353374Y-100857000D01*
X164733780Y-100699431D01*
X165024931Y-100408280D01*
X165058741Y-100326655D01*
X165138100Y-100342440D01*
X165773100Y-100342440D01*
X165862000Y-100324757D01*
X165950900Y-100342440D01*
X166585900Y-100342440D01*
X166665259Y-100326655D01*
X166699069Y-100408280D01*
X166990220Y-100699431D01*
X167370626Y-100857000D01*
X167782374Y-100857000D01*
X168162780Y-100699431D01*
X168453931Y-100408280D01*
X168553057Y-100168968D01*
X169250637Y-100168968D01*
X169341923Y-100429580D01*
X169929833Y-100646045D01*
X170555828Y-100621049D01*
X171018077Y-100429580D01*
X171109363Y-100168968D01*
X170180000Y-99239605D01*
X169250637Y-100168968D01*
X168553057Y-100168968D01*
X168611500Y-100027874D01*
X168611500Y-99967868D01*
X168772599Y-99806769D01*
X168810420Y-99898077D01*
X169071032Y-99989363D01*
X170000395Y-99060000D01*
X170359605Y-99060000D01*
X171288968Y-99989363D01*
X171549580Y-99898077D01*
X171766045Y-99310167D01*
X171741049Y-98684172D01*
X171549580Y-98221923D01*
X171288968Y-98130637D01*
X170359605Y-99060000D01*
X170000395Y-99060000D01*
X169986253Y-99045858D01*
X170165858Y-98866253D01*
X170180000Y-98880395D01*
X171109363Y-97951032D01*
X171074786Y-97852317D01*
X171515051Y-97412052D01*
X171754800Y-96833247D01*
X171754800Y-96206753D01*
X171515051Y-95627948D01*
X171137103Y-95250000D01*
X171515051Y-94872052D01*
X171754800Y-94293247D01*
X171754800Y-93666753D01*
X171515051Y-93087948D01*
X171137103Y-92710000D01*
X171515051Y-92332052D01*
X171754800Y-91753247D01*
X171754800Y-91126753D01*
X171515051Y-90547948D01*
X171137103Y-90170000D01*
X171515051Y-89792052D01*
X171754800Y-89213247D01*
X171754800Y-88586753D01*
X171515051Y-88007948D01*
X171137103Y-87630000D01*
X171515051Y-87252052D01*
X171754800Y-86673247D01*
X171754800Y-86046753D01*
X171515051Y-85467948D01*
X171137103Y-85090000D01*
X171515051Y-84712052D01*
X171754800Y-84133247D01*
X171754800Y-83506753D01*
X171515051Y-82927948D01*
X171137103Y-82550000D01*
X171515051Y-82172052D01*
X171754800Y-81593247D01*
X171754800Y-80966753D01*
X171515051Y-80387948D01*
X171137103Y-80010000D01*
X171515051Y-79632052D01*
X171754800Y-79053247D01*
X171754800Y-78426753D01*
X171515051Y-77847948D01*
X171137103Y-77470000D01*
X171515051Y-77092052D01*
X171754800Y-76513247D01*
X171754800Y-75886753D01*
X171515051Y-75307948D01*
X171137103Y-74930000D01*
X171515051Y-74552052D01*
X171754800Y-73973247D01*
X171754800Y-73346753D01*
X171515051Y-72767948D01*
X171074786Y-72327683D01*
X171109363Y-72228968D01*
X170180000Y-71299605D01*
X169250637Y-72228968D01*
X169285214Y-72327683D01*
X168844949Y-72767948D01*
X168605200Y-73346753D01*
X168605200Y-73973247D01*
X168616281Y-74000000D01*
X168244147Y-74000000D01*
X168302047Y-73913346D01*
X168386256Y-73490000D01*
X168302047Y-73066654D01*
X168160624Y-72855000D01*
X168302047Y-72643346D01*
X168386256Y-72220000D01*
X168302047Y-71796654D01*
X168158959Y-71582507D01*
X168324408Y-71244001D01*
X168197502Y-71077000D01*
X166607000Y-71077000D01*
X166607000Y-71097000D01*
X166353000Y-71097000D01*
X166353000Y-71077000D01*
X164762498Y-71077000D01*
X164635592Y-71244001D01*
X164742005Y-71461719D01*
X164577105Y-71494520D01*
X164528962Y-71504096D01*
X164378740Y-71604472D01*
X164277571Y-71672071D01*
X164235171Y-71735527D01*
X163536199Y-72434500D01*
X163370126Y-72434500D01*
X162989720Y-72592069D01*
X162698569Y-72883220D01*
X162541000Y-73263626D01*
X162541000Y-73675374D01*
X162698569Y-74055780D01*
X162989720Y-74346931D01*
X163329703Y-74487756D01*
X163307220Y-74497069D01*
X163016069Y-74788220D01*
X162858500Y-75168626D01*
X162858500Y-75580374D01*
X163016069Y-75960780D01*
X163307220Y-76251931D01*
X163687626Y-76409500D01*
X164099374Y-76409500D01*
X164479780Y-76251931D01*
X164594975Y-76136736D01*
X164657953Y-76453346D01*
X164719935Y-76546109D01*
X164528963Y-76584096D01*
X164277571Y-76752071D01*
X164235171Y-76815527D01*
X163726699Y-77324000D01*
X163560626Y-77324000D01*
X163180220Y-77481569D01*
X162889069Y-77772720D01*
X162731500Y-78153126D01*
X162731500Y-78564874D01*
X162889069Y-78945280D01*
X163180220Y-79236431D01*
X163560626Y-79394000D01*
X163972374Y-79394000D01*
X164352780Y-79236431D01*
X164643931Y-78945280D01*
X164646945Y-78938004D01*
X164657953Y-78993346D01*
X164799376Y-79205000D01*
X164657953Y-79416654D01*
X164573744Y-79840000D01*
X164578963Y-79866235D01*
X163871766Y-80573432D01*
X163845374Y-80562500D01*
X163433626Y-80562500D01*
X163053220Y-80720069D01*
X162762069Y-81011220D01*
X162604500Y-81391626D01*
X162604500Y-81803374D01*
X162762069Y-82183780D01*
X162950285Y-82371996D01*
X162799220Y-82434569D01*
X162508069Y-82725720D01*
X162350500Y-83106126D01*
X162350500Y-83517874D01*
X162508069Y-83898280D01*
X162799220Y-84189431D01*
X163179626Y-84347000D01*
X163591374Y-84347000D01*
X163971780Y-84189431D01*
X164262931Y-83898280D01*
X164420500Y-83517874D01*
X164420500Y-83444301D01*
X164697835Y-83166966D01*
X164657953Y-83226654D01*
X164573744Y-83650000D01*
X164578963Y-83676236D01*
X163501699Y-84753500D01*
X163433626Y-84753500D01*
X163053220Y-84911069D01*
X162762069Y-85202220D01*
X162661309Y-85445478D01*
X159602959Y-82387129D01*
X159560557Y-82323670D01*
X159502683Y-82285000D01*
X160306309Y-82285000D01*
X160539698Y-82188327D01*
X160718327Y-82009699D01*
X160815000Y-81776310D01*
X160815000Y-78935750D01*
X160656250Y-78777000D01*
X157307000Y-78777000D01*
X157307000Y-78797000D01*
X157053000Y-78797000D01*
X157053000Y-78777000D01*
X157033000Y-78777000D01*
X157033000Y-78523000D01*
X157053000Y-78523000D01*
X157053000Y-75173750D01*
X157307000Y-75173750D01*
X157307000Y-78523000D01*
X160656250Y-78523000D01*
X160815000Y-78364250D01*
X160815000Y-75523690D01*
X160718327Y-75290301D01*
X160539698Y-75111673D01*
X160306309Y-75015000D01*
X157465750Y-75015000D01*
X157307000Y-75173750D01*
X157053000Y-75173750D01*
X156894250Y-75015000D01*
X154053691Y-75015000D01*
X153820302Y-75111673D01*
X153805843Y-75126132D01*
X153684780Y-75005069D01*
X153304374Y-74847500D01*
X152892626Y-74847500D01*
X152512220Y-75005069D01*
X152221069Y-75296220D01*
X152063500Y-75676626D01*
X152063500Y-76088374D01*
X152221069Y-76468780D01*
X152263500Y-76511211D01*
X152263500Y-76668698D01*
X150381037Y-74786236D01*
X150386256Y-74760000D01*
X150302047Y-74336654D01*
X150160624Y-74125000D01*
X150302047Y-73913346D01*
X150386256Y-73490000D01*
X150302047Y-73066654D01*
X150160624Y-72855000D01*
X150302047Y-72643346D01*
X150386256Y-72220000D01*
X150302047Y-71796654D01*
X150158959Y-71582507D01*
X150324408Y-71244001D01*
X150197502Y-71077000D01*
X148607000Y-71077000D01*
X148607000Y-71097000D01*
X148353000Y-71097000D01*
X148353000Y-71077000D01*
X146762498Y-71077000D01*
X146635592Y-71244001D01*
X146741164Y-71460000D01*
X146343719Y-71460000D01*
X146354800Y-71433247D01*
X146354800Y-70869833D01*
X168593955Y-70869833D01*
X168618951Y-71495828D01*
X168810420Y-71958077D01*
X169071032Y-72049363D01*
X170000395Y-71120000D01*
X170359605Y-71120000D01*
X171288968Y-72049363D01*
X171549580Y-71958077D01*
X171766045Y-71370167D01*
X171741049Y-70744172D01*
X171549580Y-70281923D01*
X171288968Y-70190637D01*
X170359605Y-71120000D01*
X170000395Y-71120000D01*
X169071032Y-70190637D01*
X168810420Y-70281923D01*
X168593955Y-70869833D01*
X146354800Y-70869833D01*
X146354800Y-70806753D01*
X146292356Y-70655999D01*
X146635592Y-70655999D01*
X146762498Y-70823000D01*
X148353000Y-70823000D01*
X148353000Y-69865000D01*
X148607000Y-69865000D01*
X148607000Y-70823000D01*
X150197502Y-70823000D01*
X150324408Y-70655999D01*
X164635592Y-70655999D01*
X164762498Y-70823000D01*
X166353000Y-70823000D01*
X166353000Y-69865000D01*
X166607000Y-69865000D01*
X166607000Y-70823000D01*
X168197502Y-70823000D01*
X168324408Y-70655999D01*
X168137013Y-70272592D01*
X167829965Y-70011032D01*
X169250637Y-70011032D01*
X170180000Y-70940395D01*
X171109363Y-70011032D01*
X171018077Y-69750420D01*
X170430167Y-69533955D01*
X169804172Y-69558951D01*
X169341923Y-69750420D01*
X169250637Y-70011032D01*
X167829965Y-70011032D01*
X167812544Y-69996192D01*
X167407000Y-69865000D01*
X166607000Y-69865000D01*
X166353000Y-69865000D01*
X165553000Y-69865000D01*
X165147456Y-69996192D01*
X164822987Y-70272592D01*
X164635592Y-70655999D01*
X150324408Y-70655999D01*
X150137013Y-70272592D01*
X149812544Y-69996192D01*
X149407000Y-69865000D01*
X148607000Y-69865000D01*
X148353000Y-69865000D01*
X147553000Y-69865000D01*
X147147456Y-69996192D01*
X146822987Y-70272592D01*
X146635592Y-70655999D01*
X146292356Y-70655999D01*
X146115051Y-70227948D01*
X145672052Y-69784949D01*
X145093247Y-69545200D01*
X144466753Y-69545200D01*
X143887948Y-69784949D01*
X143444949Y-70227948D01*
X143205200Y-70806753D01*
X143205200Y-71433247D01*
X143444949Y-72012052D01*
X143822897Y-72390000D01*
X143444949Y-72767948D01*
X143205200Y-73346753D01*
X143205200Y-73973247D01*
X143444949Y-74552052D01*
X143822897Y-74930000D01*
X143444949Y-75307948D01*
X143205200Y-75886753D01*
X143205200Y-76513247D01*
X143444949Y-77092052D01*
X143463095Y-77110198D01*
X143030727Y-77542566D01*
X142967271Y-77584966D01*
X142924871Y-77648422D01*
X142924870Y-77648423D01*
X142917734Y-77659103D01*
X143000750Y-69340920D01*
X172211496Y-69089104D01*
X172085502Y-101154412D01*
X172085502Y-101154412D01*
G37*
X172085502Y-101154412D02*
X142685763Y-100902594D01*
X142814979Y-87955207D01*
X142967270Y-88183128D01*
X143030729Y-88225530D01*
X143259898Y-88454700D01*
X143205200Y-88586753D01*
X143205200Y-89213247D01*
X143444949Y-89792052D01*
X143822897Y-90170000D01*
X143444949Y-90547948D01*
X143205200Y-91126753D01*
X143205200Y-91753247D01*
X143444949Y-92332052D01*
X143822897Y-92710000D01*
X143444949Y-93087948D01*
X143205200Y-93666753D01*
X143205200Y-94293247D01*
X143444949Y-94872052D01*
X143822897Y-95250000D01*
X143444949Y-95627948D01*
X143205200Y-96206753D01*
X143205200Y-96833247D01*
X143444949Y-97412052D01*
X143822897Y-97790000D01*
X143444949Y-98167948D01*
X143205200Y-98746753D01*
X143205200Y-99373247D01*
X143444949Y-99952052D01*
X143887948Y-100395051D01*
X144466753Y-100634800D01*
X145093247Y-100634800D01*
X145672052Y-100395051D01*
X145980805Y-100086298D01*
X146061569Y-100281280D01*
X146352720Y-100572431D01*
X146733126Y-100730000D01*
X147144874Y-100730000D01*
X147525280Y-100572431D01*
X147816431Y-100281280D01*
X147974000Y-99900874D01*
X147974000Y-99705919D01*
X148033998Y-99616126D01*
X148041414Y-99605028D01*
X148064468Y-99489126D01*
X148085510Y-99383342D01*
X148085510Y-99383338D01*
X148100398Y-99308490D01*
X148085510Y-99233642D01*
X148085510Y-98871065D01*
X148198000Y-98893440D01*
X148321898Y-98893440D01*
X148495999Y-99154001D01*
X148565720Y-99200587D01*
X149338414Y-99973282D01*
X149384999Y-100043001D01*
X149661199Y-100227552D01*
X149987000Y-100292358D01*
X150069237Y-100276000D01*
X151263289Y-100276000D01*
X151305720Y-100318431D01*
X151686126Y-100476000D01*
X152097874Y-100476000D01*
X152478280Y-100318431D01*
X152769431Y-100027280D01*
X152927000Y-99646874D01*
X152927000Y-99235126D01*
X152770152Y-98856460D01*
X152876699Y-98812327D01*
X153055327Y-98633698D01*
X153152000Y-98400309D01*
X153152000Y-98059750D01*
X152993250Y-97901000D01*
X152019000Y-97901000D01*
X152019000Y-97921000D01*
X151765000Y-97921000D01*
X151765000Y-97901000D01*
X151745000Y-97901000D01*
X151745000Y-97647000D01*
X151765000Y-97647000D01*
X151765000Y-97627000D01*
X152019000Y-97627000D01*
X152019000Y-97647000D01*
X152993250Y-97647000D01*
X153152000Y-97488250D01*
X153152000Y-97147691D01*
X153055327Y-96914302D01*
X153040025Y-96899000D01*
X153550470Y-96899000D01*
X153748799Y-97031520D01*
X153574191Y-97148191D01*
X153433843Y-97358235D01*
X153384560Y-97606000D01*
X153384560Y-98406000D01*
X153433843Y-98653765D01*
X153535564Y-98806000D01*
X153433843Y-98958235D01*
X153384560Y-99206000D01*
X153384560Y-100006000D01*
X153433843Y-100253765D01*
X153574191Y-100463809D01*
X153784235Y-100604157D01*
X154032000Y-100653440D01*
X154832000Y-100653440D01*
X155079765Y-100604157D01*
X155289809Y-100463809D01*
X155355163Y-100366000D01*
X157196973Y-100366000D01*
X157271820Y-100380888D01*
X157346667Y-100366000D01*
X157346672Y-100366000D01*
X157568357Y-100321904D01*
X157819749Y-100153929D01*
X157862151Y-100090470D01*
X158054770Y-99897851D01*
X158247389Y-100090470D01*
X158289791Y-100153929D01*
X158422989Y-100242929D01*
X158541182Y-100321904D01*
X158589325Y-100331480D01*
X158762868Y-100366000D01*
X158762872Y-100366000D01*
X158837720Y-100380888D01*
X158912568Y-100366000D01*
X159604837Y-100366000D01*
X159670191Y-100463809D01*
X159880235Y-100604157D01*
X160128000Y-100653440D01*
X160928000Y-100653440D01*
X161175765Y-100604157D01*
X161385809Y-100463809D01*
X161526157Y-100253765D01*
X161575440Y-100006000D01*
X161575440Y-99206000D01*
X161526157Y-98958235D01*
X161424436Y-98806000D01*
X161526157Y-98653765D01*
X161575440Y-98406000D01*
X161575440Y-98059750D01*
X161808000Y-98059750D01*
X161808000Y-98400309D01*
X161904673Y-98633698D01*
X162083301Y-98812327D01*
X162316690Y-98909000D01*
X162782250Y-98909000D01*
X162941000Y-98750250D01*
X162941000Y-97901000D01*
X161966750Y-97901000D01*
X161808000Y-98059750D01*
X161575440Y-98059750D01*
X161575440Y-97606000D01*
X161526157Y-97358235D01*
X161385809Y-97148191D01*
X161211201Y-97031520D01*
X161297285Y-96974000D01*
X161879945Y-96974000D01*
X161808000Y-97147691D01*
X161808000Y-97488250D01*
X161966750Y-97647000D01*
X162941000Y-97647000D01*
X162941000Y-97627000D01*
X163195000Y-97627000D01*
X163195000Y-97647000D01*
X164169250Y-97647000D01*
X164328000Y-97488250D01*
X164328000Y-97339868D01*
X164620600Y-97632469D01*
X164620601Y-98056523D01*
X164539943Y-98177235D01*
X164511165Y-98321914D01*
X164307499Y-98457999D01*
X164298567Y-98471367D01*
X164328000Y-98400309D01*
X164328000Y-98059750D01*
X164169250Y-97901000D01*
X163195000Y-97901000D01*
X163195000Y-98750250D01*
X163353750Y-98909000D01*
X163647091Y-98909000D01*
X163561220Y-98944569D01*
X163270069Y-99235720D01*
X163112500Y-99616126D01*
X163112500Y-100027874D01*
X163270069Y-100408280D01*
X163561220Y-100699431D01*
X163941626Y-100857000D01*
X164353374Y-100857000D01*
X164733780Y-100699431D01*
X165024931Y-100408280D01*
X165058741Y-100326655D01*
X165138100Y-100342440D01*
X165773100Y-100342440D01*
X165862000Y-100324757D01*
X165950900Y-100342440D01*
X166585900Y-100342440D01*
X166665259Y-100326655D01*
X166699069Y-100408280D01*
X166990220Y-100699431D01*
X167370626Y-100857000D01*
X167782374Y-100857000D01*
X168162780Y-100699431D01*
X168453931Y-100408280D01*
X168553057Y-100168968D01*
X169250637Y-100168968D01*
X169341923Y-100429580D01*
X169929833Y-100646045D01*
X170555828Y-100621049D01*
X171018077Y-100429580D01*
X171109363Y-100168968D01*
X170180000Y-99239605D01*
X169250637Y-100168968D01*
X168553057Y-100168968D01*
X168611500Y-100027874D01*
X168611500Y-99967868D01*
X168772599Y-99806769D01*
X168810420Y-99898077D01*
X169071032Y-99989363D01*
X170000395Y-99060000D01*
X170359605Y-99060000D01*
X171288968Y-99989363D01*
X171549580Y-99898077D01*
X171766045Y-99310167D01*
X171741049Y-98684172D01*
X171549580Y-98221923D01*
X171288968Y-98130637D01*
X170359605Y-99060000D01*
X170000395Y-99060000D01*
X169986253Y-99045858D01*
X170165858Y-98866253D01*
X170180000Y-98880395D01*
X171109363Y-97951032D01*
X171074786Y-97852317D01*
X171515051Y-97412052D01*
X171754800Y-96833247D01*
X171754800Y-96206753D01*
X171515051Y-95627948D01*
X171137103Y-95250000D01*
X171515051Y-94872052D01*
X171754800Y-94293247D01*
X171754800Y-93666753D01*
X171515051Y-93087948D01*
X171137103Y-92710000D01*
X171515051Y-92332052D01*
X171754800Y-91753247D01*
X171754800Y-91126753D01*
X171515051Y-90547948D01*
X171137103Y-90170000D01*
X171515051Y-89792052D01*
X171754800Y-89213247D01*
X171754800Y-88586753D01*
X171515051Y-88007948D01*
X171137103Y-87630000D01*
X171515051Y-87252052D01*
X171754800Y-86673247D01*
X171754800Y-86046753D01*
X171515051Y-85467948D01*
X171137103Y-85090000D01*
X171515051Y-84712052D01*
X171754800Y-84133247D01*
X171754800Y-83506753D01*
X171515051Y-82927948D01*
X171137103Y-82550000D01*
X171515051Y-82172052D01*
X171754800Y-81593247D01*
X171754800Y-80966753D01*
X171515051Y-80387948D01*
X171137103Y-80010000D01*
X171515051Y-79632052D01*
X171754800Y-79053247D01*
X171754800Y-78426753D01*
X171515051Y-77847948D01*
X171137103Y-77470000D01*
X171515051Y-77092052D01*
X171754800Y-76513247D01*
X171754800Y-75886753D01*
X171515051Y-75307948D01*
X171137103Y-74930000D01*
X171515051Y-74552052D01*
X171754800Y-73973247D01*
X171754800Y-73346753D01*
X171515051Y-72767948D01*
X171074786Y-72327683D01*
X171109363Y-72228968D01*
X170180000Y-71299605D01*
X169250637Y-72228968D01*
X169285214Y-72327683D01*
X168844949Y-72767948D01*
X168605200Y-73346753D01*
X168605200Y-73973247D01*
X168616281Y-74000000D01*
X168244147Y-74000000D01*
X168302047Y-73913346D01*
X168386256Y-73490000D01*
X168302047Y-73066654D01*
X168160624Y-72855000D01*
X168302047Y-72643346D01*
X168386256Y-72220000D01*
X168302047Y-71796654D01*
X168158959Y-71582507D01*
X168324408Y-71244001D01*
X168197502Y-71077000D01*
X166607000Y-71077000D01*
X166607000Y-71097000D01*
X166353000Y-71097000D01*
X166353000Y-71077000D01*
X164762498Y-71077000D01*
X164635592Y-71244001D01*
X164742005Y-71461719D01*
X164577105Y-71494520D01*
X164528962Y-71504096D01*
X164378740Y-71604472D01*
X164277571Y-71672071D01*
X164235171Y-71735527D01*
X163536199Y-72434500D01*
X163370126Y-72434500D01*
X162989720Y-72592069D01*
X162698569Y-72883220D01*
X162541000Y-73263626D01*
X162541000Y-73675374D01*
X162698569Y-74055780D01*
X162989720Y-74346931D01*
X163329703Y-74487756D01*
X163307220Y-74497069D01*
X163016069Y-74788220D01*
X162858500Y-75168626D01*
X162858500Y-75580374D01*
X163016069Y-75960780D01*
X163307220Y-76251931D01*
X163687626Y-76409500D01*
X164099374Y-76409500D01*
X164479780Y-76251931D01*
X164594975Y-76136736D01*
X164657953Y-76453346D01*
X164719935Y-76546109D01*
X164528963Y-76584096D01*
X164277571Y-76752071D01*
X164235171Y-76815527D01*
X163726699Y-77324000D01*
X163560626Y-77324000D01*
X163180220Y-77481569D01*
X162889069Y-77772720D01*
X162731500Y-78153126D01*
X162731500Y-78564874D01*
X162889069Y-78945280D01*
X163180220Y-79236431D01*
X163560626Y-79394000D01*
X163972374Y-79394000D01*
X164352780Y-79236431D01*
X164643931Y-78945280D01*
X164646945Y-78938004D01*
X164657953Y-78993346D01*
X164799376Y-79205000D01*
X164657953Y-79416654D01*
X164573744Y-79840000D01*
X164578963Y-79866235D01*
X163871766Y-80573432D01*
X163845374Y-80562500D01*
X163433626Y-80562500D01*
X163053220Y-80720069D01*
X162762069Y-81011220D01*
X162604500Y-81391626D01*
X162604500Y-81803374D01*
X162762069Y-82183780D01*
X162950285Y-82371996D01*
X162799220Y-82434569D01*
X162508069Y-82725720D01*
X162350500Y-83106126D01*
X162350500Y-83517874D01*
X162508069Y-83898280D01*
X162799220Y-84189431D01*
X163179626Y-84347000D01*
X163591374Y-84347000D01*
X163971780Y-84189431D01*
X164262931Y-83898280D01*
X164420500Y-83517874D01*
X164420500Y-83444301D01*
X164697835Y-83166966D01*
X164657953Y-83226654D01*
X164573744Y-83650000D01*
X164578963Y-83676236D01*
X163501699Y-84753500D01*
X163433626Y-84753500D01*
X163053220Y-84911069D01*
X162762069Y-85202220D01*
X162661309Y-85445478D01*
X159602959Y-82387129D01*
X159560557Y-82323670D01*
X159502683Y-82285000D01*
X160306309Y-82285000D01*
X160539698Y-82188327D01*
X160718327Y-82009699D01*
X160815000Y-81776310D01*
X160815000Y-78935750D01*
X160656250Y-78777000D01*
X157307000Y-78777000D01*
X157307000Y-78797000D01*
X157053000Y-78797000D01*
X157053000Y-78777000D01*
X157033000Y-78777000D01*
X157033000Y-78523000D01*
X157053000Y-78523000D01*
X157053000Y-75173750D01*
X157307000Y-75173750D01*
X157307000Y-78523000D01*
X160656250Y-78523000D01*
X160815000Y-78364250D01*
X160815000Y-75523690D01*
X160718327Y-75290301D01*
X160539698Y-75111673D01*
X160306309Y-75015000D01*
X157465750Y-75015000D01*
X157307000Y-75173750D01*
X157053000Y-75173750D01*
X156894250Y-75015000D01*
X154053691Y-75015000D01*
X153820302Y-75111673D01*
X153805843Y-75126132D01*
X153684780Y-75005069D01*
X153304374Y-74847500D01*
X152892626Y-74847500D01*
X152512220Y-75005069D01*
X152221069Y-75296220D01*
X152063500Y-75676626D01*
X152063500Y-76088374D01*
X152221069Y-76468780D01*
X152263500Y-76511211D01*
X152263500Y-76668698D01*
X150381037Y-74786236D01*
X150386256Y-74760000D01*
X150302047Y-74336654D01*
X150160624Y-74125000D01*
X150302047Y-73913346D01*
X150386256Y-73490000D01*
X150302047Y-73066654D01*
X150160624Y-72855000D01*
X150302047Y-72643346D01*
X150386256Y-72220000D01*
X150302047Y-71796654D01*
X150158959Y-71582507D01*
X150324408Y-71244001D01*
X150197502Y-71077000D01*
X148607000Y-71077000D01*
X148607000Y-71097000D01*
X148353000Y-71097000D01*
X148353000Y-71077000D01*
X146762498Y-71077000D01*
X146635592Y-71244001D01*
X146741164Y-71460000D01*
X146343719Y-71460000D01*
X146354800Y-71433247D01*
X146354800Y-70869833D01*
X168593955Y-70869833D01*
X168618951Y-71495828D01*
X168810420Y-71958077D01*
X169071032Y-72049363D01*
X170000395Y-71120000D01*
X170359605Y-71120000D01*
X171288968Y-72049363D01*
X171549580Y-71958077D01*
X171766045Y-71370167D01*
X171741049Y-70744172D01*
X171549580Y-70281923D01*
X171288968Y-70190637D01*
X170359605Y-71120000D01*
X170000395Y-71120000D01*
X169071032Y-70190637D01*
X168810420Y-70281923D01*
X168593955Y-70869833D01*
X146354800Y-70869833D01*
X146354800Y-70806753D01*
X146292356Y-70655999D01*
X146635592Y-70655999D01*
X146762498Y-70823000D01*
X148353000Y-70823000D01*
X148353000Y-69865000D01*
X148607000Y-69865000D01*
X148607000Y-70823000D01*
X150197502Y-70823000D01*
X150324408Y-70655999D01*
X164635592Y-70655999D01*
X164762498Y-70823000D01*
X166353000Y-70823000D01*
X166353000Y-69865000D01*
X166607000Y-69865000D01*
X166607000Y-70823000D01*
X168197502Y-70823000D01*
X168324408Y-70655999D01*
X168137013Y-70272592D01*
X167829965Y-70011032D01*
X169250637Y-70011032D01*
X170180000Y-70940395D01*
X171109363Y-70011032D01*
X171018077Y-69750420D01*
X170430167Y-69533955D01*
X169804172Y-69558951D01*
X169341923Y-69750420D01*
X169250637Y-70011032D01*
X167829965Y-70011032D01*
X167812544Y-69996192D01*
X167407000Y-69865000D01*
X166607000Y-69865000D01*
X166353000Y-69865000D01*
X165553000Y-69865000D01*
X165147456Y-69996192D01*
X164822987Y-70272592D01*
X164635592Y-70655999D01*
X150324408Y-70655999D01*
X150137013Y-70272592D01*
X149812544Y-69996192D01*
X149407000Y-69865000D01*
X148607000Y-69865000D01*
X148353000Y-69865000D01*
X147553000Y-69865000D01*
X147147456Y-69996192D01*
X146822987Y-70272592D01*
X146635592Y-70655999D01*
X146292356Y-70655999D01*
X146115051Y-70227948D01*
X145672052Y-69784949D01*
X145093247Y-69545200D01*
X144466753Y-69545200D01*
X143887948Y-69784949D01*
X143444949Y-70227948D01*
X143205200Y-70806753D01*
X143205200Y-71433247D01*
X143444949Y-72012052D01*
X143822897Y-72390000D01*
X143444949Y-72767948D01*
X143205200Y-73346753D01*
X143205200Y-73973247D01*
X143444949Y-74552052D01*
X143822897Y-74930000D01*
X143444949Y-75307948D01*
X143205200Y-75886753D01*
X143205200Y-76513247D01*
X143444949Y-77092052D01*
X143463095Y-77110198D01*
X143030727Y-77542566D01*
X142967271Y-77584966D01*
X142924871Y-77648422D01*
X142924870Y-77648423D01*
X142917734Y-77659103D01*
X143000750Y-69340920D01*
X172211496Y-69089104D01*
X172085502Y-101154412D01*
G36*
X164897759Y-88242241D02*
X165256654Y-88482047D01*
X165573139Y-88545000D01*
X167295011Y-88545000D01*
X167295010Y-91107560D01*
X166770000Y-91107560D01*
X166522235Y-91156843D01*
X166312191Y-91297191D01*
X166198294Y-91467648D01*
X166168327Y-91395301D01*
X165989698Y-91216673D01*
X165756309Y-91120000D01*
X165385750Y-91120000D01*
X165227000Y-91278750D01*
X165227000Y-91953000D01*
X165247000Y-91953000D01*
X165247000Y-92057560D01*
X164953000Y-92057560D01*
X164953000Y-91953000D01*
X164973000Y-91953000D01*
X164973000Y-91278750D01*
X164814250Y-91120000D01*
X164443691Y-91120000D01*
X164210302Y-91216673D01*
X164162690Y-91264285D01*
X164125249Y-91208251D01*
X163915205Y-91067903D01*
X163667440Y-91018620D01*
X162468560Y-91018620D01*
X162220795Y-91067903D01*
X162010751Y-91208251D01*
X161870403Y-91418295D01*
X161840426Y-91569000D01*
X161409530Y-91569000D01*
X161202765Y-91430843D01*
X160955000Y-91381560D01*
X159405000Y-91381560D01*
X159157235Y-91430843D01*
X158947191Y-91571191D01*
X158806843Y-91781235D01*
X158757560Y-92029000D01*
X158757560Y-92629000D01*
X158801855Y-92851689D01*
X158643963Y-92883096D01*
X158643961Y-92883097D01*
X158643962Y-92883097D01*
X158456026Y-93008671D01*
X158456024Y-93008673D01*
X158392571Y-93051071D01*
X158350173Y-93114524D01*
X156487699Y-94977000D01*
X156321626Y-94977000D01*
X156102864Y-95067614D01*
X156031250Y-94996000D01*
X154907000Y-94996000D01*
X154907000Y-95016000D01*
X154653000Y-95016000D01*
X154653000Y-94996000D01*
X153528750Y-94996000D01*
X153370000Y-95154750D01*
X153370000Y-95295310D01*
X153404666Y-95379000D01*
X153164440Y-95379000D01*
X153164440Y-95274000D01*
X153115157Y-95026235D01*
X152974809Y-94816191D01*
X152891129Y-94760277D01*
X153029767Y-94621638D01*
X153126440Y-94388249D01*
X153126440Y-94148910D01*
X152967690Y-93990160D01*
X152019000Y-93990160D01*
X152019000Y-94010160D01*
X151765000Y-94010160D01*
X151765000Y-93990160D01*
X151745000Y-93990160D01*
X151745000Y-93736160D01*
X151765000Y-93736160D01*
X151765000Y-93716160D01*
X152019000Y-93716160D01*
X152019000Y-93736160D01*
X152967690Y-93736160D01*
X153126440Y-93577410D01*
X153126440Y-93495242D01*
X153357560Y-93726362D01*
X153357560Y-93899000D01*
X153406843Y-94146765D01*
X153459768Y-94225972D01*
X153370000Y-94442690D01*
X153370000Y-94583250D01*
X153528750Y-94742000D01*
X154653000Y-94742000D01*
X154653000Y-94722000D01*
X154907000Y-94722000D01*
X154907000Y-94742000D01*
X156031250Y-94742000D01*
X156190000Y-94583250D01*
X156190000Y-94442690D01*
X156100232Y-94225972D01*
X156153157Y-94146765D01*
X156202440Y-93899000D01*
X156202440Y-93299000D01*
X156153157Y-93051235D01*
X156100232Y-92972028D01*
X156190000Y-92755310D01*
X156190000Y-92614750D01*
X156031250Y-92456000D01*
X154907000Y-92456000D01*
X154907000Y-92476000D01*
X154653000Y-92476000D01*
X154653000Y-92456000D01*
X154633000Y-92456000D01*
X154633000Y-92202000D01*
X154653000Y-92202000D01*
X154653000Y-91552750D01*
X154907000Y-91552750D01*
X154907000Y-92202000D01*
X156031250Y-92202000D01*
X156190000Y-92043250D01*
X156190000Y-91902690D01*
X156093327Y-91669301D01*
X155914698Y-91490673D01*
X155681309Y-91394000D01*
X155065750Y-91394000D01*
X154907000Y-91552750D01*
X154653000Y-91552750D01*
X154494250Y-91394000D01*
X153878691Y-91394000D01*
X153645302Y-91490673D01*
X153466673Y-91669301D01*
X153461819Y-91681018D01*
X153361171Y-91580370D01*
X153318769Y-91516911D01*
X153067377Y-91348936D01*
X153039555Y-91343402D01*
X152949249Y-91208251D01*
X152739205Y-91067903D01*
X152491440Y-91018620D01*
X151719922Y-91018620D01*
X151632890Y-90931589D01*
X151590489Y-90868131D01*
X151475283Y-90791153D01*
X151638000Y-90667502D01*
X151638000Y-89077000D01*
X151618000Y-89077000D01*
X151618000Y-88823000D01*
X151638000Y-88823000D01*
X151638000Y-88803000D01*
X151892000Y-88803000D01*
X151892000Y-88823000D01*
X151912000Y-88823000D01*
X151912000Y-89077000D01*
X151892000Y-89077000D01*
X151892000Y-90667502D01*
X152059001Y-90794408D01*
X152397507Y-90628959D01*
X152611654Y-90772047D01*
X153035000Y-90856256D01*
X153458345Y-90772047D01*
X153670000Y-90630624D01*
X153881654Y-90772047D01*
X154305000Y-90856256D01*
X154728345Y-90772047D01*
X154940000Y-90630624D01*
X155151654Y-90772047D01*
X155575000Y-90856256D01*
X155998345Y-90772047D01*
X156210000Y-90630624D01*
X156421654Y-90772047D01*
X156845000Y-90856256D01*
X157268345Y-90772047D01*
X157480000Y-90630624D01*
X157691654Y-90772047D01*
X158115000Y-90856256D01*
X158538345Y-90772047D01*
X158750000Y-90630624D01*
X158961654Y-90772047D01*
X159385000Y-90856256D01*
X159808345Y-90772047D01*
X160020000Y-90630624D01*
X160231654Y-90772047D01*
X160655000Y-90856256D01*
X161078345Y-90772047D01*
X161290000Y-90630624D01*
X161501654Y-90772047D01*
X161925000Y-90856256D01*
X162348345Y-90772047D01*
X162560000Y-90630624D01*
X162771654Y-90772047D01*
X163195000Y-90856256D01*
X163618345Y-90772047D01*
X163977241Y-90532241D01*
X164217047Y-90173346D01*
X164280000Y-89856861D01*
X164280000Y-88220000D01*
X164882898Y-88220000D01*
X164897759Y-88242241D01*
X164897759Y-88242241D01*
G37*
X164897759Y-88242241D02*
X165256654Y-88482047D01*
X165573139Y-88545000D01*
X167295011Y-88545000D01*
X167295010Y-91107560D01*
X166770000Y-91107560D01*
X166522235Y-91156843D01*
X166312191Y-91297191D01*
X166198294Y-91467648D01*
X166168327Y-91395301D01*
X165989698Y-91216673D01*
X165756309Y-91120000D01*
X165385750Y-91120000D01*
X165227000Y-91278750D01*
X165227000Y-91953000D01*
X165247000Y-91953000D01*
X165247000Y-92057560D01*
X164953000Y-92057560D01*
X164953000Y-91953000D01*
X164973000Y-91953000D01*
X164973000Y-91278750D01*
X164814250Y-91120000D01*
X164443691Y-91120000D01*
X164210302Y-91216673D01*
X164162690Y-91264285D01*
X164125249Y-91208251D01*
X163915205Y-91067903D01*
X163667440Y-91018620D01*
X162468560Y-91018620D01*
X162220795Y-91067903D01*
X162010751Y-91208251D01*
X161870403Y-91418295D01*
X161840426Y-91569000D01*
X161409530Y-91569000D01*
X161202765Y-91430843D01*
X160955000Y-91381560D01*
X159405000Y-91381560D01*
X159157235Y-91430843D01*
X158947191Y-91571191D01*
X158806843Y-91781235D01*
X158757560Y-92029000D01*
X158757560Y-92629000D01*
X158801855Y-92851689D01*
X158643963Y-92883096D01*
X158643961Y-92883097D01*
X158643962Y-92883097D01*
X158456026Y-93008671D01*
X158456024Y-93008673D01*
X158392571Y-93051071D01*
X158350173Y-93114524D01*
X156487699Y-94977000D01*
X156321626Y-94977000D01*
X156102864Y-95067614D01*
X156031250Y-94996000D01*
X154907000Y-94996000D01*
X154907000Y-95016000D01*
X154653000Y-95016000D01*
X154653000Y-94996000D01*
X153528750Y-94996000D01*
X153370000Y-95154750D01*
X153370000Y-95295310D01*
X153404666Y-95379000D01*
X153164440Y-95379000D01*
X153164440Y-95274000D01*
X153115157Y-95026235D01*
X152974809Y-94816191D01*
X152891129Y-94760277D01*
X153029767Y-94621638D01*
X153126440Y-94388249D01*
X153126440Y-94148910D01*
X152967690Y-93990160D01*
X152019000Y-93990160D01*
X152019000Y-94010160D01*
X151765000Y-94010160D01*
X151765000Y-93990160D01*
X151745000Y-93990160D01*
X151745000Y-93736160D01*
X151765000Y-93736160D01*
X151765000Y-93716160D01*
X152019000Y-93716160D01*
X152019000Y-93736160D01*
X152967690Y-93736160D01*
X153126440Y-93577410D01*
X153126440Y-93495242D01*
X153357560Y-93726362D01*
X153357560Y-93899000D01*
X153406843Y-94146765D01*
X153459768Y-94225972D01*
X153370000Y-94442690D01*
X153370000Y-94583250D01*
X153528750Y-94742000D01*
X154653000Y-94742000D01*
X154653000Y-94722000D01*
X154907000Y-94722000D01*
X154907000Y-94742000D01*
X156031250Y-94742000D01*
X156190000Y-94583250D01*
X156190000Y-94442690D01*
X156100232Y-94225972D01*
X156153157Y-94146765D01*
X156202440Y-93899000D01*
X156202440Y-93299000D01*
X156153157Y-93051235D01*
X156100232Y-92972028D01*
X156190000Y-92755310D01*
X156190000Y-92614750D01*
X156031250Y-92456000D01*
X154907000Y-92456000D01*
X154907000Y-92476000D01*
X154653000Y-92476000D01*
X154653000Y-92456000D01*
X154633000Y-92456000D01*
X154633000Y-92202000D01*
X154653000Y-92202000D01*
X154653000Y-91552750D01*
X154907000Y-91552750D01*
X154907000Y-92202000D01*
X156031250Y-92202000D01*
X156190000Y-92043250D01*
X156190000Y-91902690D01*
X156093327Y-91669301D01*
X155914698Y-91490673D01*
X155681309Y-91394000D01*
X155065750Y-91394000D01*
X154907000Y-91552750D01*
X154653000Y-91552750D01*
X154494250Y-91394000D01*
X153878691Y-91394000D01*
X153645302Y-91490673D01*
X153466673Y-91669301D01*
X153461819Y-91681018D01*
X153361171Y-91580370D01*
X153318769Y-91516911D01*
X153067377Y-91348936D01*
X153039555Y-91343402D01*
X152949249Y-91208251D01*
X152739205Y-91067903D01*
X152491440Y-91018620D01*
X151719922Y-91018620D01*
X151632890Y-90931589D01*
X151590489Y-90868131D01*
X151475283Y-90791153D01*
X151638000Y-90667502D01*
X151638000Y-89077000D01*
X151618000Y-89077000D01*
X151618000Y-88823000D01*
X151638000Y-88823000D01*
X151638000Y-88803000D01*
X151892000Y-88803000D01*
X151892000Y-88823000D01*
X151912000Y-88823000D01*
X151912000Y-89077000D01*
X151892000Y-89077000D01*
X151892000Y-90667502D01*
X152059001Y-90794408D01*
X152397507Y-90628959D01*
X152611654Y-90772047D01*
X153035000Y-90856256D01*
X153458345Y-90772047D01*
X153670000Y-90630624D01*
X153881654Y-90772047D01*
X154305000Y-90856256D01*
X154728345Y-90772047D01*
X154940000Y-90630624D01*
X155151654Y-90772047D01*
X155575000Y-90856256D01*
X155998345Y-90772047D01*
X156210000Y-90630624D01*
X156421654Y-90772047D01*
X156845000Y-90856256D01*
X157268345Y-90772047D01*
X157480000Y-90630624D01*
X157691654Y-90772047D01*
X158115000Y-90856256D01*
X158538345Y-90772047D01*
X158750000Y-90630624D01*
X158961654Y-90772047D01*
X159385000Y-90856256D01*
X159808345Y-90772047D01*
X160020000Y-90630624D01*
X160231654Y-90772047D01*
X160655000Y-90856256D01*
X161078345Y-90772047D01*
X161290000Y-90630624D01*
X161501654Y-90772047D01*
X161925000Y-90856256D01*
X162348345Y-90772047D01*
X162560000Y-90630624D01*
X162771654Y-90772047D01*
X163195000Y-90856256D01*
X163618345Y-90772047D01*
X163977241Y-90532241D01*
X164217047Y-90173346D01*
X164280000Y-89856861D01*
X164280000Y-88220000D01*
X164882898Y-88220000D01*
X164897759Y-88242241D01*
G36*
X146573744Y-78570000D02*
X146657953Y-78993346D01*
X146799376Y-79205000D01*
X146657953Y-79416654D01*
X146573744Y-79840000D01*
X146578963Y-79866236D01*
X146086151Y-80359048D01*
X145674786Y-79947683D01*
X145709363Y-79848968D01*
X144780000Y-78919605D01*
X144765858Y-78933748D01*
X144586253Y-78754143D01*
X144600395Y-78740000D01*
X144586253Y-78725858D01*
X144765858Y-78546253D01*
X144780000Y-78560395D01*
X144794143Y-78546253D01*
X144973748Y-78725858D01*
X144959605Y-78740000D01*
X145888968Y-79669363D01*
X146149580Y-79578077D01*
X146366045Y-78990167D01*
X146341049Y-78364172D01*
X146283320Y-78224801D01*
X146642409Y-78224801D01*
X146573744Y-78570000D01*
X146573744Y-78570000D01*
G37*
X146573744Y-78570000D02*
X146657953Y-78993346D01*
X146799376Y-79205000D01*
X146657953Y-79416654D01*
X146573744Y-79840000D01*
X146578963Y-79866236D01*
X146086151Y-80359048D01*
X145674786Y-79947683D01*
X145709363Y-79848968D01*
X144780000Y-78919605D01*
X144765858Y-78933748D01*
X144586253Y-78754143D01*
X144600395Y-78740000D01*
X144586253Y-78725858D01*
X144765858Y-78546253D01*
X144780000Y-78560395D01*
X144794143Y-78546253D01*
X144973748Y-78725858D01*
X144959605Y-78740000D01*
X145888968Y-79669363D01*
X146149580Y-79578077D01*
X146366045Y-78990167D01*
X146341049Y-78364172D01*
X146283320Y-78224801D01*
X146642409Y-78224801D01*
X146573744Y-78570000D01*
G04 #@! TD*
M02*
