G04 #@! TF.GenerationSoftware,KiCad,Pcbnew,(5.0.2)-1*
G04 #@! TF.CreationDate,2019-10-09T02:29:05+02:00*
G04 #@! TF.ProjectId,esp32-lifepo4,65737033-322d-46c6-9966-65706f342e6b,rev?*
G04 #@! TF.SameCoordinates,Original*
G04 #@! TF.FileFunction,Soldermask,Top*
G04 #@! TF.FilePolarity,Negative*
%FSLAX46Y46*%
G04 Gerber Fmt 4.6, Leading zero omitted, Abs format (unit mm)*
G04 Created by KiCad (PCBNEW (5.0.2)-1) date 09/10/2019 02:29:05*
%MOMM*%
%LPD*%
G01*
G04 APERTURE LIST*
%ADD10C,0.100000*%
G04 APERTURE END LIST*
D10*
G36*
X170483765Y-98058620D02*
X170673289Y-98137123D01*
X170843855Y-98251092D01*
X170988908Y-98396145D01*
X171102877Y-98566711D01*
X171181380Y-98756235D01*
X171221400Y-98957430D01*
X171221400Y-99162570D01*
X171181380Y-99363765D01*
X171102877Y-99553289D01*
X170988908Y-99723855D01*
X170843855Y-99868908D01*
X170673289Y-99982877D01*
X170483765Y-100061380D01*
X170282570Y-100101400D01*
X170077430Y-100101400D01*
X169876235Y-100061380D01*
X169686711Y-99982877D01*
X169516145Y-99868908D01*
X169371092Y-99723855D01*
X169257123Y-99553289D01*
X169178620Y-99363765D01*
X169138600Y-99162570D01*
X169138600Y-98957430D01*
X169178620Y-98756235D01*
X169257123Y-98566711D01*
X169371092Y-98396145D01*
X169516145Y-98251092D01*
X169686711Y-98137123D01*
X169876235Y-98058620D01*
X170077430Y-98018600D01*
X170282570Y-98018600D01*
X170483765Y-98058620D01*
X170483765Y-98058620D01*
G37*
G36*
X145083765Y-98058620D02*
X145273289Y-98137123D01*
X145443855Y-98251092D01*
X145588908Y-98396145D01*
X145702877Y-98566711D01*
X145781380Y-98756235D01*
X145821400Y-98957430D01*
X145821400Y-99162570D01*
X145781380Y-99363765D01*
X145702877Y-99553289D01*
X145588908Y-99723855D01*
X145443855Y-99868908D01*
X145273289Y-99982877D01*
X145083765Y-100061380D01*
X144882570Y-100101400D01*
X144677430Y-100101400D01*
X144476235Y-100061380D01*
X144286711Y-99982877D01*
X144116145Y-99868908D01*
X143971092Y-99723855D01*
X143857123Y-99553289D01*
X143778620Y-99363765D01*
X143738600Y-99162570D01*
X143738600Y-98957430D01*
X143778620Y-98756235D01*
X143857123Y-98566711D01*
X143971092Y-98396145D01*
X144116145Y-98251092D01*
X144286711Y-98137123D01*
X144476235Y-98058620D01*
X144677430Y-98018600D01*
X144882570Y-98018600D01*
X145083765Y-98058620D01*
X145083765Y-98058620D01*
G37*
G36*
X154883000Y-100057000D02*
X153981000Y-100057000D01*
X153981000Y-99155000D01*
X154883000Y-99155000D01*
X154883000Y-100057000D01*
X154883000Y-100057000D01*
G37*
G36*
X160979000Y-100057000D02*
X160077000Y-100057000D01*
X160077000Y-99155000D01*
X160979000Y-99155000D01*
X160979000Y-100057000D01*
X160979000Y-100057000D01*
G37*
G36*
X166687500Y-99796600D02*
X165036500Y-99796600D01*
X165036500Y-98323400D01*
X166687500Y-98323400D01*
X166687500Y-99796600D01*
X166687500Y-99796600D01*
G37*
G36*
X157081220Y-98999040D02*
X156080460Y-98999040D01*
X156080460Y-97596960D01*
X157081220Y-97596960D01*
X157081220Y-98999040D01*
X157081220Y-98999040D01*
G37*
G36*
X158879540Y-98999040D02*
X157878780Y-98999040D01*
X157878780Y-97596960D01*
X158879540Y-97596960D01*
X158879540Y-98999040D01*
X158879540Y-98999040D01*
G37*
G36*
X160979000Y-98457000D02*
X160077000Y-98457000D01*
X160077000Y-97555000D01*
X160979000Y-97555000D01*
X160979000Y-98457000D01*
X160979000Y-98457000D01*
G37*
G36*
X154883000Y-98457000D02*
X153981000Y-98457000D01*
X153981000Y-97555000D01*
X154883000Y-97555000D01*
X154883000Y-98457000D01*
X154883000Y-98457000D01*
G37*
G36*
X163744000Y-98325000D02*
X162392000Y-98325000D01*
X162392000Y-97223000D01*
X163744000Y-97223000D01*
X163744000Y-98325000D01*
X163744000Y-98325000D01*
G37*
G36*
X152568000Y-98325000D02*
X151216000Y-98325000D01*
X151216000Y-97223000D01*
X152568000Y-97223000D01*
X152568000Y-98325000D01*
X152568000Y-98325000D01*
G37*
G36*
X150049000Y-98297000D02*
X148147000Y-98297000D01*
X148147000Y-95695000D01*
X150049000Y-95695000D01*
X150049000Y-98297000D01*
X150049000Y-98297000D01*
G37*
G36*
X170483765Y-95518620D02*
X170673289Y-95597123D01*
X170843855Y-95711092D01*
X170988908Y-95856145D01*
X171102877Y-96026711D01*
X171181380Y-96216235D01*
X171221400Y-96417430D01*
X171221400Y-96622570D01*
X171181380Y-96823765D01*
X171102877Y-97013289D01*
X170988908Y-97183855D01*
X170843855Y-97328908D01*
X170673289Y-97442877D01*
X170483765Y-97521380D01*
X170282570Y-97561400D01*
X170077430Y-97561400D01*
X169876235Y-97521380D01*
X169686711Y-97442877D01*
X169516145Y-97328908D01*
X169371092Y-97183855D01*
X169257123Y-97013289D01*
X169178620Y-96823765D01*
X169138600Y-96622570D01*
X169138600Y-96417430D01*
X169178620Y-96216235D01*
X169257123Y-96026711D01*
X169371092Y-95856145D01*
X169516145Y-95711092D01*
X169686711Y-95597123D01*
X169876235Y-95518620D01*
X170077430Y-95478600D01*
X170282570Y-95478600D01*
X170483765Y-95518620D01*
X170483765Y-95518620D01*
G37*
G36*
X145083765Y-95518620D02*
X145273289Y-95597123D01*
X145443855Y-95711092D01*
X145588908Y-95856145D01*
X145702877Y-96026711D01*
X145781380Y-96216235D01*
X145821400Y-96417430D01*
X145821400Y-96622570D01*
X145781380Y-96823765D01*
X145702877Y-97013289D01*
X145588908Y-97183855D01*
X145443855Y-97328908D01*
X145273289Y-97442877D01*
X145083765Y-97521380D01*
X144882570Y-97561400D01*
X144677430Y-97561400D01*
X144476235Y-97521380D01*
X144286711Y-97442877D01*
X144116145Y-97328908D01*
X143971092Y-97183855D01*
X143857123Y-97013289D01*
X143778620Y-96823765D01*
X143738600Y-96622570D01*
X143738600Y-96417430D01*
X143778620Y-96216235D01*
X143857123Y-96026711D01*
X143971092Y-95856145D01*
X144116145Y-95711092D01*
X144286711Y-95597123D01*
X144476235Y-95518620D01*
X144677430Y-95478600D01*
X144882570Y-95478600D01*
X145083765Y-95518620D01*
X145083765Y-95518620D01*
G37*
G36*
X161006000Y-96490000D02*
X159354000Y-96490000D01*
X159354000Y-95788000D01*
X161006000Y-95788000D01*
X161006000Y-96490000D01*
X161006000Y-96490000D01*
G37*
G36*
X155606000Y-96490000D02*
X153954000Y-96490000D01*
X153954000Y-95788000D01*
X155606000Y-95788000D01*
X155606000Y-96490000D01*
X155606000Y-96490000D01*
G37*
G36*
X163744000Y-96325000D02*
X162392000Y-96325000D01*
X162392000Y-95223000D01*
X163744000Y-95223000D01*
X163744000Y-96325000D01*
X163744000Y-96325000D01*
G37*
G36*
X152568000Y-96325000D02*
X151216000Y-96325000D01*
X151216000Y-95223000D01*
X152568000Y-95223000D01*
X152568000Y-96325000D01*
X152568000Y-96325000D01*
G37*
G36*
X155606000Y-95220000D02*
X153954000Y-95220000D01*
X153954000Y-94518000D01*
X155606000Y-94518000D01*
X155606000Y-95220000D01*
X155606000Y-95220000D01*
G37*
G36*
X161006000Y-95220000D02*
X159354000Y-95220000D01*
X159354000Y-94518000D01*
X161006000Y-94518000D01*
X161006000Y-95220000D01*
X161006000Y-95220000D01*
G37*
G36*
X170483765Y-92978620D02*
X170673289Y-93057123D01*
X170843855Y-93171092D01*
X170988908Y-93316145D01*
X171102877Y-93486711D01*
X171181380Y-93676235D01*
X171221400Y-93877430D01*
X171221400Y-94082570D01*
X171181380Y-94283765D01*
X171102877Y-94473289D01*
X170988908Y-94643855D01*
X170843855Y-94788908D01*
X170673289Y-94902877D01*
X170483765Y-94981380D01*
X170282570Y-95021400D01*
X170077430Y-95021400D01*
X169876235Y-94981380D01*
X169686711Y-94902877D01*
X169516145Y-94788908D01*
X169371092Y-94643855D01*
X169257123Y-94473289D01*
X169178620Y-94283765D01*
X169138600Y-94082570D01*
X169138600Y-93877430D01*
X169178620Y-93676235D01*
X169257123Y-93486711D01*
X169371092Y-93316145D01*
X169516145Y-93171092D01*
X169686711Y-93057123D01*
X169876235Y-92978620D01*
X170077430Y-92938600D01*
X170282570Y-92938600D01*
X170483765Y-92978620D01*
X170483765Y-92978620D01*
G37*
G36*
X145083765Y-92978620D02*
X145273289Y-93057123D01*
X145443855Y-93171092D01*
X145588908Y-93316145D01*
X145702877Y-93486711D01*
X145781380Y-93676235D01*
X145821400Y-93877430D01*
X145821400Y-94082570D01*
X145781380Y-94283765D01*
X145702877Y-94473289D01*
X145588908Y-94643855D01*
X145443855Y-94788908D01*
X145273289Y-94902877D01*
X145083765Y-94981380D01*
X144882570Y-95021400D01*
X144677430Y-95021400D01*
X144476235Y-94981380D01*
X144286711Y-94902877D01*
X144116145Y-94788908D01*
X143971092Y-94643855D01*
X143857123Y-94473289D01*
X143778620Y-94283765D01*
X143738600Y-94082570D01*
X143738600Y-93877430D01*
X143778620Y-93676235D01*
X143857123Y-93486711D01*
X143971092Y-93316145D01*
X144116145Y-93171092D01*
X144286711Y-93057123D01*
X144476235Y-92978620D01*
X144677430Y-92938600D01*
X144882570Y-92938600D01*
X145083765Y-92978620D01*
X145083765Y-92978620D01*
G37*
G36*
X152593040Y-94363540D02*
X151190960Y-94363540D01*
X151190960Y-93362780D01*
X152593040Y-93362780D01*
X152593040Y-94363540D01*
X152593040Y-94363540D01*
G37*
G36*
X163769040Y-94363540D02*
X162366960Y-94363540D01*
X162366960Y-93362780D01*
X163769040Y-93362780D01*
X163769040Y-94363540D01*
X163769040Y-94363540D01*
G37*
G36*
X167881000Y-94356000D02*
X166719000Y-94356000D01*
X166719000Y-93604000D01*
X167881000Y-93604000D01*
X167881000Y-94356000D01*
X167881000Y-94356000D01*
G37*
G36*
X165681000Y-94356000D02*
X164519000Y-94356000D01*
X164519000Y-91704000D01*
X165681000Y-91704000D01*
X165681000Y-94356000D01*
X165681000Y-94356000D01*
G37*
G36*
X150049000Y-94297000D02*
X148147000Y-94297000D01*
X148147000Y-91695000D01*
X150049000Y-91695000D01*
X150049000Y-94297000D01*
X150049000Y-94297000D01*
G37*
G36*
X161006000Y-93950000D02*
X159354000Y-93950000D01*
X159354000Y-93248000D01*
X161006000Y-93248000D01*
X161006000Y-93950000D01*
X161006000Y-93950000D01*
G37*
G36*
X155606000Y-93950000D02*
X153954000Y-93950000D01*
X153954000Y-93248000D01*
X155606000Y-93248000D01*
X155606000Y-93950000D01*
X155606000Y-93950000D01*
G37*
G36*
X161006000Y-92680000D02*
X159354000Y-92680000D01*
X159354000Y-91978000D01*
X161006000Y-91978000D01*
X161006000Y-92680000D01*
X161006000Y-92680000D01*
G37*
G36*
X155606000Y-92680000D02*
X153954000Y-92680000D01*
X153954000Y-91978000D01*
X155606000Y-91978000D01*
X155606000Y-92680000D01*
X155606000Y-92680000D01*
G37*
G36*
X152593040Y-92565220D02*
X151190960Y-92565220D01*
X151190960Y-91564460D01*
X152593040Y-91564460D01*
X152593040Y-92565220D01*
X152593040Y-92565220D01*
G37*
G36*
X163769040Y-92565220D02*
X162366960Y-92565220D01*
X162366960Y-91564460D01*
X163769040Y-91564460D01*
X163769040Y-92565220D01*
X163769040Y-92565220D01*
G37*
G36*
X145083765Y-90438620D02*
X145273289Y-90517123D01*
X145443855Y-90631092D01*
X145588908Y-90776145D01*
X145702877Y-90946711D01*
X145781380Y-91136235D01*
X145821400Y-91337430D01*
X145821400Y-91542570D01*
X145781380Y-91743765D01*
X145702877Y-91933289D01*
X145588908Y-92103855D01*
X145443855Y-92248908D01*
X145273289Y-92362877D01*
X145083765Y-92441380D01*
X144882570Y-92481400D01*
X144677430Y-92481400D01*
X144476235Y-92441380D01*
X144286711Y-92362877D01*
X144116145Y-92248908D01*
X143971092Y-92103855D01*
X143857123Y-91933289D01*
X143778620Y-91743765D01*
X143738600Y-91542570D01*
X143738600Y-91337430D01*
X143778620Y-91136235D01*
X143857123Y-90946711D01*
X143971092Y-90776145D01*
X144116145Y-90631092D01*
X144286711Y-90517123D01*
X144476235Y-90438620D01*
X144677430Y-90398600D01*
X144882570Y-90398600D01*
X145083765Y-90438620D01*
X145083765Y-90438620D01*
G37*
G36*
X170483765Y-90438620D02*
X170673289Y-90517123D01*
X170843855Y-90631092D01*
X170988908Y-90776145D01*
X171102877Y-90946711D01*
X171181380Y-91136235D01*
X171221400Y-91337430D01*
X171221400Y-91542570D01*
X171181380Y-91743765D01*
X171102877Y-91933289D01*
X170988908Y-92103855D01*
X170843855Y-92248908D01*
X170673289Y-92362877D01*
X170483765Y-92441380D01*
X170282570Y-92481400D01*
X170077430Y-92481400D01*
X169876235Y-92441380D01*
X169686711Y-92362877D01*
X169516145Y-92248908D01*
X169371092Y-92103855D01*
X169257123Y-91933289D01*
X169178620Y-91743765D01*
X169138600Y-91542570D01*
X169138600Y-91337430D01*
X169178620Y-91136235D01*
X169257123Y-90946711D01*
X169371092Y-90776145D01*
X169516145Y-90631092D01*
X169686711Y-90517123D01*
X169876235Y-90438620D01*
X170077430Y-90398600D01*
X170282570Y-90398600D01*
X170483765Y-90438620D01*
X170483765Y-90438620D01*
G37*
G36*
X167881000Y-92456000D02*
X166719000Y-92456000D01*
X166719000Y-91704000D01*
X167881000Y-91704000D01*
X167881000Y-92456000D01*
X167881000Y-92456000D01*
G37*
G36*
X151863213Y-87656249D02*
X151957652Y-87684897D01*
X152044687Y-87731418D01*
X152120975Y-87794025D01*
X152183582Y-87870313D01*
X152230103Y-87957348D01*
X152258751Y-88051787D01*
X152266000Y-88125388D01*
X152266000Y-89774612D01*
X152258751Y-89848213D01*
X152230103Y-89942652D01*
X152183582Y-90029687D01*
X152120975Y-90105975D01*
X152044687Y-90168582D01*
X151957651Y-90215103D01*
X151863212Y-90243751D01*
X151765000Y-90253424D01*
X151666787Y-90243751D01*
X151572348Y-90215103D01*
X151485313Y-90168582D01*
X151409025Y-90105975D01*
X151346418Y-90029687D01*
X151299897Y-89942651D01*
X151271249Y-89848212D01*
X151264000Y-89774611D01*
X151264001Y-88125388D01*
X151271250Y-88051787D01*
X151299898Y-87957348D01*
X151346419Y-87870313D01*
X151409026Y-87794025D01*
X151485314Y-87731418D01*
X151572349Y-87684897D01*
X151666788Y-87656249D01*
X151765000Y-87646576D01*
X151863213Y-87656249D01*
X151863213Y-87656249D01*
G37*
G36*
X153133213Y-87656249D02*
X153227652Y-87684897D01*
X153314687Y-87731418D01*
X153390975Y-87794025D01*
X153453582Y-87870313D01*
X153500103Y-87957348D01*
X153528751Y-88051787D01*
X153536000Y-88125388D01*
X153536000Y-89774612D01*
X153528751Y-89848213D01*
X153500103Y-89942652D01*
X153453582Y-90029687D01*
X153390975Y-90105975D01*
X153314687Y-90168582D01*
X153227651Y-90215103D01*
X153133212Y-90243751D01*
X153035000Y-90253424D01*
X152936787Y-90243751D01*
X152842348Y-90215103D01*
X152755313Y-90168582D01*
X152679025Y-90105975D01*
X152616418Y-90029687D01*
X152569897Y-89942651D01*
X152541249Y-89848212D01*
X152534000Y-89774611D01*
X152534001Y-88125388D01*
X152541250Y-88051787D01*
X152569898Y-87957348D01*
X152616419Y-87870313D01*
X152679026Y-87794025D01*
X152755314Y-87731418D01*
X152842349Y-87684897D01*
X152936788Y-87656249D01*
X153035000Y-87646576D01*
X153133213Y-87656249D01*
X153133213Y-87656249D01*
G37*
G36*
X154403213Y-87656249D02*
X154497652Y-87684897D01*
X154584687Y-87731418D01*
X154660975Y-87794025D01*
X154723582Y-87870313D01*
X154770103Y-87957348D01*
X154798751Y-88051787D01*
X154806000Y-88125388D01*
X154806000Y-89774612D01*
X154798751Y-89848213D01*
X154770103Y-89942652D01*
X154723582Y-90029687D01*
X154660975Y-90105975D01*
X154584687Y-90168582D01*
X154497651Y-90215103D01*
X154403212Y-90243751D01*
X154305000Y-90253424D01*
X154206787Y-90243751D01*
X154112348Y-90215103D01*
X154025313Y-90168582D01*
X153949025Y-90105975D01*
X153886418Y-90029687D01*
X153839897Y-89942651D01*
X153811249Y-89848212D01*
X153804000Y-89774611D01*
X153804001Y-88125388D01*
X153811250Y-88051787D01*
X153839898Y-87957348D01*
X153886419Y-87870313D01*
X153949026Y-87794025D01*
X154025314Y-87731418D01*
X154112349Y-87684897D01*
X154206788Y-87656249D01*
X154305000Y-87646576D01*
X154403213Y-87656249D01*
X154403213Y-87656249D01*
G37*
G36*
X155673213Y-87656249D02*
X155767652Y-87684897D01*
X155854687Y-87731418D01*
X155930975Y-87794025D01*
X155993582Y-87870313D01*
X156040103Y-87957348D01*
X156068751Y-88051787D01*
X156076000Y-88125388D01*
X156076000Y-89774612D01*
X156068751Y-89848213D01*
X156040103Y-89942652D01*
X155993582Y-90029687D01*
X155930975Y-90105975D01*
X155854687Y-90168582D01*
X155767651Y-90215103D01*
X155673212Y-90243751D01*
X155575000Y-90253424D01*
X155476787Y-90243751D01*
X155382348Y-90215103D01*
X155295313Y-90168582D01*
X155219025Y-90105975D01*
X155156418Y-90029687D01*
X155109897Y-89942651D01*
X155081249Y-89848212D01*
X155074000Y-89774611D01*
X155074001Y-88125388D01*
X155081250Y-88051787D01*
X155109898Y-87957348D01*
X155156419Y-87870313D01*
X155219026Y-87794025D01*
X155295314Y-87731418D01*
X155382349Y-87684897D01*
X155476788Y-87656249D01*
X155575000Y-87646576D01*
X155673213Y-87656249D01*
X155673213Y-87656249D01*
G37*
G36*
X156943213Y-87656249D02*
X157037652Y-87684897D01*
X157124687Y-87731418D01*
X157200975Y-87794025D01*
X157263582Y-87870313D01*
X157310103Y-87957348D01*
X157338751Y-88051787D01*
X157346000Y-88125388D01*
X157346000Y-89774612D01*
X157338751Y-89848213D01*
X157310103Y-89942652D01*
X157263582Y-90029687D01*
X157200975Y-90105975D01*
X157124687Y-90168582D01*
X157037651Y-90215103D01*
X156943212Y-90243751D01*
X156845000Y-90253424D01*
X156746787Y-90243751D01*
X156652348Y-90215103D01*
X156565313Y-90168582D01*
X156489025Y-90105975D01*
X156426418Y-90029687D01*
X156379897Y-89942651D01*
X156351249Y-89848212D01*
X156344000Y-89774611D01*
X156344001Y-88125388D01*
X156351250Y-88051787D01*
X156379898Y-87957348D01*
X156426419Y-87870313D01*
X156489026Y-87794025D01*
X156565314Y-87731418D01*
X156652349Y-87684897D01*
X156746788Y-87656249D01*
X156845000Y-87646576D01*
X156943213Y-87656249D01*
X156943213Y-87656249D01*
G37*
G36*
X159483213Y-87656249D02*
X159577652Y-87684897D01*
X159664687Y-87731418D01*
X159740975Y-87794025D01*
X159803582Y-87870313D01*
X159850103Y-87957348D01*
X159878751Y-88051787D01*
X159886000Y-88125388D01*
X159886000Y-89774612D01*
X159878751Y-89848213D01*
X159850103Y-89942652D01*
X159803582Y-90029687D01*
X159740975Y-90105975D01*
X159664687Y-90168582D01*
X159577651Y-90215103D01*
X159483212Y-90243751D01*
X159385000Y-90253424D01*
X159286787Y-90243751D01*
X159192348Y-90215103D01*
X159105313Y-90168582D01*
X159029025Y-90105975D01*
X158966418Y-90029687D01*
X158919897Y-89942651D01*
X158891249Y-89848212D01*
X158884000Y-89774611D01*
X158884001Y-88125388D01*
X158891250Y-88051787D01*
X158919898Y-87957348D01*
X158966419Y-87870313D01*
X159029026Y-87794025D01*
X159105314Y-87731418D01*
X159192349Y-87684897D01*
X159286788Y-87656249D01*
X159385000Y-87646576D01*
X159483213Y-87656249D01*
X159483213Y-87656249D01*
G37*
G36*
X158213213Y-87656249D02*
X158307652Y-87684897D01*
X158394687Y-87731418D01*
X158470975Y-87794025D01*
X158533582Y-87870313D01*
X158580103Y-87957348D01*
X158608751Y-88051787D01*
X158616000Y-88125388D01*
X158616000Y-89774612D01*
X158608751Y-89848213D01*
X158580103Y-89942652D01*
X158533582Y-90029687D01*
X158470975Y-90105975D01*
X158394687Y-90168582D01*
X158307651Y-90215103D01*
X158213212Y-90243751D01*
X158115000Y-90253424D01*
X158016787Y-90243751D01*
X157922348Y-90215103D01*
X157835313Y-90168582D01*
X157759025Y-90105975D01*
X157696418Y-90029687D01*
X157649897Y-89942651D01*
X157621249Y-89848212D01*
X157614000Y-89774611D01*
X157614001Y-88125388D01*
X157621250Y-88051787D01*
X157649898Y-87957348D01*
X157696419Y-87870313D01*
X157759026Y-87794025D01*
X157835314Y-87731418D01*
X157922349Y-87684897D01*
X158016788Y-87656249D01*
X158115000Y-87646576D01*
X158213213Y-87656249D01*
X158213213Y-87656249D01*
G37*
G36*
X163293213Y-87656249D02*
X163387652Y-87684897D01*
X163474687Y-87731418D01*
X163550975Y-87794025D01*
X163613582Y-87870313D01*
X163660103Y-87957348D01*
X163688751Y-88051787D01*
X163696000Y-88125388D01*
X163696000Y-89774612D01*
X163688751Y-89848213D01*
X163660103Y-89942652D01*
X163613582Y-90029687D01*
X163550975Y-90105975D01*
X163474687Y-90168582D01*
X163387651Y-90215103D01*
X163293212Y-90243751D01*
X163195000Y-90253424D01*
X163096787Y-90243751D01*
X163002348Y-90215103D01*
X162915313Y-90168582D01*
X162839025Y-90105975D01*
X162776418Y-90029687D01*
X162729897Y-89942651D01*
X162701249Y-89848212D01*
X162694000Y-89774611D01*
X162694001Y-88125388D01*
X162701250Y-88051787D01*
X162729898Y-87957348D01*
X162776419Y-87870313D01*
X162839026Y-87794025D01*
X162915314Y-87731418D01*
X163002349Y-87684897D01*
X163096788Y-87656249D01*
X163195000Y-87646576D01*
X163293213Y-87656249D01*
X163293213Y-87656249D01*
G37*
G36*
X160753213Y-87656249D02*
X160847652Y-87684897D01*
X160934687Y-87731418D01*
X161010975Y-87794025D01*
X161073582Y-87870313D01*
X161120103Y-87957348D01*
X161148751Y-88051787D01*
X161156000Y-88125388D01*
X161156000Y-89774612D01*
X161148751Y-89848213D01*
X161120103Y-89942652D01*
X161073582Y-90029687D01*
X161010975Y-90105975D01*
X160934687Y-90168582D01*
X160847651Y-90215103D01*
X160753212Y-90243751D01*
X160655000Y-90253424D01*
X160556787Y-90243751D01*
X160462348Y-90215103D01*
X160375313Y-90168582D01*
X160299025Y-90105975D01*
X160236418Y-90029687D01*
X160189897Y-89942651D01*
X160161249Y-89848212D01*
X160154000Y-89774611D01*
X160154001Y-88125388D01*
X160161250Y-88051787D01*
X160189898Y-87957348D01*
X160236419Y-87870313D01*
X160299026Y-87794025D01*
X160375314Y-87731418D01*
X160462349Y-87684897D01*
X160556788Y-87656249D01*
X160655000Y-87646576D01*
X160753213Y-87656249D01*
X160753213Y-87656249D01*
G37*
G36*
X162023213Y-87656249D02*
X162117652Y-87684897D01*
X162204687Y-87731418D01*
X162280975Y-87794025D01*
X162343582Y-87870313D01*
X162390103Y-87957348D01*
X162418751Y-88051787D01*
X162426000Y-88125388D01*
X162426000Y-89774612D01*
X162418751Y-89848213D01*
X162390103Y-89942652D01*
X162343582Y-90029687D01*
X162280975Y-90105975D01*
X162204687Y-90168582D01*
X162117651Y-90215103D01*
X162023212Y-90243751D01*
X161925000Y-90253424D01*
X161826787Y-90243751D01*
X161732348Y-90215103D01*
X161645313Y-90168582D01*
X161569025Y-90105975D01*
X161506418Y-90029687D01*
X161459897Y-89942651D01*
X161431249Y-89848212D01*
X161424000Y-89774611D01*
X161424001Y-88125388D01*
X161431250Y-88051787D01*
X161459898Y-87957348D01*
X161506419Y-87870313D01*
X161569026Y-87794025D01*
X161645314Y-87731418D01*
X161732349Y-87684897D01*
X161826788Y-87656249D01*
X161925000Y-87646576D01*
X162023213Y-87656249D01*
X162023213Y-87656249D01*
G37*
G36*
X145083765Y-87898620D02*
X145273289Y-87977123D01*
X145443855Y-88091092D01*
X145588908Y-88236145D01*
X145702877Y-88406711D01*
X145781380Y-88596235D01*
X145821400Y-88797430D01*
X145821400Y-89002570D01*
X145781380Y-89203765D01*
X145702877Y-89393289D01*
X145588908Y-89563855D01*
X145443855Y-89708908D01*
X145273289Y-89822877D01*
X145083765Y-89901380D01*
X144882570Y-89941400D01*
X144677430Y-89941400D01*
X144476235Y-89901380D01*
X144286711Y-89822877D01*
X144116145Y-89708908D01*
X143971092Y-89563855D01*
X143857123Y-89393289D01*
X143778620Y-89203765D01*
X143738600Y-89002570D01*
X143738600Y-88797430D01*
X143778620Y-88596235D01*
X143857123Y-88406711D01*
X143971092Y-88236145D01*
X144116145Y-88091092D01*
X144286711Y-87977123D01*
X144476235Y-87898620D01*
X144677430Y-87858600D01*
X144882570Y-87858600D01*
X145083765Y-87898620D01*
X145083765Y-87898620D01*
G37*
G36*
X170483765Y-87898620D02*
X170673289Y-87977123D01*
X170843855Y-88091092D01*
X170988908Y-88236145D01*
X171102877Y-88406711D01*
X171181380Y-88596235D01*
X171221400Y-88797430D01*
X171221400Y-89002570D01*
X171181380Y-89203765D01*
X171102877Y-89393289D01*
X170988908Y-89563855D01*
X170843855Y-89708908D01*
X170673289Y-89822877D01*
X170483765Y-89901380D01*
X170282570Y-89941400D01*
X170077430Y-89941400D01*
X169876235Y-89901380D01*
X169686711Y-89822877D01*
X169516145Y-89708908D01*
X169371092Y-89563855D01*
X169257123Y-89393289D01*
X169178620Y-89203765D01*
X169138600Y-89002570D01*
X169138600Y-88797430D01*
X169178620Y-88596235D01*
X169257123Y-88406711D01*
X169371092Y-88236145D01*
X169516145Y-88091092D01*
X169686711Y-87977123D01*
X169876235Y-87898620D01*
X170077430Y-87858600D01*
X170282570Y-87858600D01*
X170483765Y-87898620D01*
X170483765Y-87898620D01*
G37*
G36*
X149378213Y-86966249D02*
X149472652Y-86994897D01*
X149559687Y-87041418D01*
X149635975Y-87104025D01*
X149698582Y-87180313D01*
X149745103Y-87267348D01*
X149773751Y-87361787D01*
X149783424Y-87460000D01*
X149773751Y-87558213D01*
X149745103Y-87652652D01*
X149698582Y-87739687D01*
X149635975Y-87815975D01*
X149559687Y-87878582D01*
X149472652Y-87925103D01*
X149378213Y-87953751D01*
X149304612Y-87961000D01*
X147655388Y-87961000D01*
X147581787Y-87953751D01*
X147487348Y-87925103D01*
X147400313Y-87878582D01*
X147324025Y-87815975D01*
X147261418Y-87739687D01*
X147214897Y-87652652D01*
X147186249Y-87558213D01*
X147176576Y-87460000D01*
X147186249Y-87361787D01*
X147214897Y-87267348D01*
X147261418Y-87180313D01*
X147324025Y-87104025D01*
X147400313Y-87041418D01*
X147487348Y-86994897D01*
X147581787Y-86966249D01*
X147655388Y-86959000D01*
X149304612Y-86959000D01*
X149378213Y-86966249D01*
X149378213Y-86966249D01*
G37*
G36*
X167378213Y-86966249D02*
X167472652Y-86994897D01*
X167559687Y-87041418D01*
X167635975Y-87104025D01*
X167698582Y-87180313D01*
X167745103Y-87267348D01*
X167773751Y-87361787D01*
X167783424Y-87460000D01*
X167773751Y-87558213D01*
X167745103Y-87652652D01*
X167698582Y-87739687D01*
X167635975Y-87815975D01*
X167559687Y-87878582D01*
X167472652Y-87925103D01*
X167378213Y-87953751D01*
X167304612Y-87961000D01*
X165655388Y-87961000D01*
X165581787Y-87953751D01*
X165487348Y-87925103D01*
X165400313Y-87878582D01*
X165324025Y-87815975D01*
X165261418Y-87739687D01*
X165214897Y-87652652D01*
X165186249Y-87558213D01*
X165176576Y-87460000D01*
X165186249Y-87361787D01*
X165214897Y-87267348D01*
X165261418Y-87180313D01*
X165324025Y-87104025D01*
X165400313Y-87041418D01*
X165487348Y-86994897D01*
X165581787Y-86966249D01*
X165655388Y-86959000D01*
X167304612Y-86959000D01*
X167378213Y-86966249D01*
X167378213Y-86966249D01*
G37*
G36*
X145083765Y-85358620D02*
X145273289Y-85437123D01*
X145443855Y-85551092D01*
X145588908Y-85696145D01*
X145702877Y-85866711D01*
X145781380Y-86056235D01*
X145821400Y-86257430D01*
X145821400Y-86462570D01*
X145781380Y-86663765D01*
X145702877Y-86853289D01*
X145588908Y-87023855D01*
X145443855Y-87168908D01*
X145273289Y-87282877D01*
X145083765Y-87361380D01*
X144882570Y-87401400D01*
X144677430Y-87401400D01*
X144476235Y-87361380D01*
X144286711Y-87282877D01*
X144116145Y-87168908D01*
X143971092Y-87023855D01*
X143857123Y-86853289D01*
X143778620Y-86663765D01*
X143738600Y-86462570D01*
X143738600Y-86257430D01*
X143778620Y-86056235D01*
X143857123Y-85866711D01*
X143971092Y-85696145D01*
X144116145Y-85551092D01*
X144286711Y-85437123D01*
X144476235Y-85358620D01*
X144677430Y-85318600D01*
X144882570Y-85318600D01*
X145083765Y-85358620D01*
X145083765Y-85358620D01*
G37*
G36*
X170483765Y-85358620D02*
X170673289Y-85437123D01*
X170843855Y-85551092D01*
X170988908Y-85696145D01*
X171102877Y-85866711D01*
X171181380Y-86056235D01*
X171221400Y-86257430D01*
X171221400Y-86462570D01*
X171181380Y-86663765D01*
X171102877Y-86853289D01*
X170988908Y-87023855D01*
X170843855Y-87168908D01*
X170673289Y-87282877D01*
X170483765Y-87361380D01*
X170282570Y-87401400D01*
X170077430Y-87401400D01*
X169876235Y-87361380D01*
X169686711Y-87282877D01*
X169516145Y-87168908D01*
X169371092Y-87023855D01*
X169257123Y-86853289D01*
X169178620Y-86663765D01*
X169138600Y-86462570D01*
X169138600Y-86257430D01*
X169178620Y-86056235D01*
X169257123Y-85866711D01*
X169371092Y-85696145D01*
X169516145Y-85551092D01*
X169686711Y-85437123D01*
X169876235Y-85358620D01*
X170077430Y-85318600D01*
X170282570Y-85318600D01*
X170483765Y-85358620D01*
X170483765Y-85358620D01*
G37*
G36*
X149378213Y-85696249D02*
X149472652Y-85724897D01*
X149559687Y-85771418D01*
X149635975Y-85834025D01*
X149698582Y-85910313D01*
X149745103Y-85997348D01*
X149773751Y-86091787D01*
X149783424Y-86190000D01*
X149773751Y-86288213D01*
X149745103Y-86382652D01*
X149698582Y-86469687D01*
X149635975Y-86545975D01*
X149559687Y-86608582D01*
X149472652Y-86655103D01*
X149378213Y-86683751D01*
X149304612Y-86691000D01*
X147655388Y-86691000D01*
X147581787Y-86683751D01*
X147487348Y-86655103D01*
X147400313Y-86608582D01*
X147324025Y-86545975D01*
X147261418Y-86469687D01*
X147214897Y-86382652D01*
X147186249Y-86288213D01*
X147176576Y-86190000D01*
X147186249Y-86091787D01*
X147214897Y-85997348D01*
X147261418Y-85910313D01*
X147324025Y-85834025D01*
X147400313Y-85771418D01*
X147487348Y-85724897D01*
X147581787Y-85696249D01*
X147655388Y-85689000D01*
X149304612Y-85689000D01*
X149378213Y-85696249D01*
X149378213Y-85696249D01*
G37*
G36*
X167378213Y-85696249D02*
X167472652Y-85724897D01*
X167559687Y-85771418D01*
X167635975Y-85834025D01*
X167698582Y-85910313D01*
X167745103Y-85997348D01*
X167773751Y-86091787D01*
X167783424Y-86190000D01*
X167773751Y-86288213D01*
X167745103Y-86382652D01*
X167698582Y-86469687D01*
X167635975Y-86545975D01*
X167559687Y-86608582D01*
X167472652Y-86655103D01*
X167378213Y-86683751D01*
X167304612Y-86691000D01*
X165655388Y-86691000D01*
X165581787Y-86683751D01*
X165487348Y-86655103D01*
X165400313Y-86608582D01*
X165324025Y-86545975D01*
X165261418Y-86469687D01*
X165214897Y-86382652D01*
X165186249Y-86288213D01*
X165176576Y-86190000D01*
X165186249Y-86091787D01*
X165214897Y-85997348D01*
X165261418Y-85910313D01*
X165324025Y-85834025D01*
X165400313Y-85771418D01*
X165487348Y-85724897D01*
X165581787Y-85696249D01*
X165655388Y-85689000D01*
X167304612Y-85689000D01*
X167378213Y-85696249D01*
X167378213Y-85696249D01*
G37*
G36*
X149378213Y-84426249D02*
X149472652Y-84454897D01*
X149559687Y-84501418D01*
X149635975Y-84564025D01*
X149698582Y-84640313D01*
X149745103Y-84727348D01*
X149773751Y-84821787D01*
X149783424Y-84920000D01*
X149773751Y-85018213D01*
X149745103Y-85112652D01*
X149698582Y-85199687D01*
X149635975Y-85275975D01*
X149559687Y-85338582D01*
X149472652Y-85385103D01*
X149378213Y-85413751D01*
X149304612Y-85421000D01*
X147655388Y-85421000D01*
X147581787Y-85413751D01*
X147487348Y-85385103D01*
X147400313Y-85338582D01*
X147324025Y-85275975D01*
X147261418Y-85199687D01*
X147214897Y-85112652D01*
X147186249Y-85018213D01*
X147176576Y-84920000D01*
X147186249Y-84821787D01*
X147214897Y-84727348D01*
X147261418Y-84640313D01*
X147324025Y-84564025D01*
X147400313Y-84501418D01*
X147487348Y-84454897D01*
X147581787Y-84426249D01*
X147655388Y-84419000D01*
X149304612Y-84419000D01*
X149378213Y-84426249D01*
X149378213Y-84426249D01*
G37*
G36*
X167378213Y-84426249D02*
X167472652Y-84454897D01*
X167559687Y-84501418D01*
X167635975Y-84564025D01*
X167698582Y-84640313D01*
X167745103Y-84727348D01*
X167773751Y-84821787D01*
X167783424Y-84920000D01*
X167773751Y-85018213D01*
X167745103Y-85112652D01*
X167698582Y-85199687D01*
X167635975Y-85275975D01*
X167559687Y-85338582D01*
X167472652Y-85385103D01*
X167378213Y-85413751D01*
X167304612Y-85421000D01*
X165655388Y-85421000D01*
X165581787Y-85413751D01*
X165487348Y-85385103D01*
X165400313Y-85338582D01*
X165324025Y-85275975D01*
X165261418Y-85199687D01*
X165214897Y-85112652D01*
X165186249Y-85018213D01*
X165176576Y-84920000D01*
X165186249Y-84821787D01*
X165214897Y-84727348D01*
X165261418Y-84640313D01*
X165324025Y-84564025D01*
X165400313Y-84501418D01*
X165487348Y-84454897D01*
X165581787Y-84426249D01*
X165655388Y-84419000D01*
X167304612Y-84419000D01*
X167378213Y-84426249D01*
X167378213Y-84426249D01*
G37*
G36*
X145083765Y-82818620D02*
X145273289Y-82897123D01*
X145443855Y-83011092D01*
X145588908Y-83156145D01*
X145702877Y-83326711D01*
X145781380Y-83516235D01*
X145821400Y-83717430D01*
X145821400Y-83922570D01*
X145781380Y-84123765D01*
X145702877Y-84313289D01*
X145588908Y-84483855D01*
X145443855Y-84628908D01*
X145273289Y-84742877D01*
X145083765Y-84821380D01*
X144882570Y-84861400D01*
X144677430Y-84861400D01*
X144476235Y-84821380D01*
X144286711Y-84742877D01*
X144116145Y-84628908D01*
X143971092Y-84483855D01*
X143857123Y-84313289D01*
X143778620Y-84123765D01*
X143738600Y-83922570D01*
X143738600Y-83717430D01*
X143778620Y-83516235D01*
X143857123Y-83326711D01*
X143971092Y-83156145D01*
X144116145Y-83011092D01*
X144286711Y-82897123D01*
X144476235Y-82818620D01*
X144677430Y-82778600D01*
X144882570Y-82778600D01*
X145083765Y-82818620D01*
X145083765Y-82818620D01*
G37*
G36*
X170483765Y-82818620D02*
X170673289Y-82897123D01*
X170843855Y-83011092D01*
X170988908Y-83156145D01*
X171102877Y-83326711D01*
X171181380Y-83516235D01*
X171221400Y-83717430D01*
X171221400Y-83922570D01*
X171181380Y-84123765D01*
X171102877Y-84313289D01*
X170988908Y-84483855D01*
X170843855Y-84628908D01*
X170673289Y-84742877D01*
X170483765Y-84821380D01*
X170282570Y-84861400D01*
X170077430Y-84861400D01*
X169876235Y-84821380D01*
X169686711Y-84742877D01*
X169516145Y-84628908D01*
X169371092Y-84483855D01*
X169257123Y-84313289D01*
X169178620Y-84123765D01*
X169138600Y-83922570D01*
X169138600Y-83717430D01*
X169178620Y-83516235D01*
X169257123Y-83326711D01*
X169371092Y-83156145D01*
X169516145Y-83011092D01*
X169686711Y-82897123D01*
X169876235Y-82818620D01*
X170077430Y-82778600D01*
X170282570Y-82778600D01*
X170483765Y-82818620D01*
X170483765Y-82818620D01*
G37*
G36*
X149378213Y-83156249D02*
X149472652Y-83184897D01*
X149559687Y-83231418D01*
X149635975Y-83294025D01*
X149698582Y-83370313D01*
X149745103Y-83457348D01*
X149773751Y-83551787D01*
X149783424Y-83650000D01*
X149773751Y-83748213D01*
X149745103Y-83842652D01*
X149698582Y-83929687D01*
X149635975Y-84005975D01*
X149559687Y-84068582D01*
X149472652Y-84115103D01*
X149378213Y-84143751D01*
X149304612Y-84151000D01*
X147655388Y-84151000D01*
X147581787Y-84143751D01*
X147487348Y-84115103D01*
X147400313Y-84068582D01*
X147324025Y-84005975D01*
X147261418Y-83929687D01*
X147214897Y-83842652D01*
X147186249Y-83748213D01*
X147176576Y-83650000D01*
X147186249Y-83551787D01*
X147214897Y-83457348D01*
X147261418Y-83370313D01*
X147324025Y-83294025D01*
X147400313Y-83231418D01*
X147487348Y-83184897D01*
X147581787Y-83156249D01*
X147655388Y-83149000D01*
X149304612Y-83149000D01*
X149378213Y-83156249D01*
X149378213Y-83156249D01*
G37*
G36*
X167378213Y-83156249D02*
X167472652Y-83184897D01*
X167559687Y-83231418D01*
X167635975Y-83294025D01*
X167698582Y-83370313D01*
X167745103Y-83457348D01*
X167773751Y-83551787D01*
X167783424Y-83650000D01*
X167773751Y-83748213D01*
X167745103Y-83842652D01*
X167698582Y-83929687D01*
X167635975Y-84005975D01*
X167559687Y-84068582D01*
X167472652Y-84115103D01*
X167378213Y-84143751D01*
X167304612Y-84151000D01*
X165655388Y-84151000D01*
X165581787Y-84143751D01*
X165487348Y-84115103D01*
X165400313Y-84068582D01*
X165324025Y-84005975D01*
X165261418Y-83929687D01*
X165214897Y-83842652D01*
X165186249Y-83748213D01*
X165176576Y-83650000D01*
X165186249Y-83551787D01*
X165214897Y-83457348D01*
X165261418Y-83370313D01*
X165324025Y-83294025D01*
X165400313Y-83231418D01*
X165487348Y-83184897D01*
X165581787Y-83156249D01*
X165655388Y-83149000D01*
X167304612Y-83149000D01*
X167378213Y-83156249D01*
X167378213Y-83156249D01*
G37*
G36*
X149378213Y-81886249D02*
X149472652Y-81914897D01*
X149559687Y-81961418D01*
X149635975Y-82024025D01*
X149698582Y-82100313D01*
X149745103Y-82187348D01*
X149773751Y-82281787D01*
X149783424Y-82380000D01*
X149773751Y-82478213D01*
X149745103Y-82572652D01*
X149698582Y-82659687D01*
X149635975Y-82735975D01*
X149559687Y-82798582D01*
X149472652Y-82845103D01*
X149378213Y-82873751D01*
X149304612Y-82881000D01*
X147655388Y-82881000D01*
X147581787Y-82873751D01*
X147487348Y-82845103D01*
X147400313Y-82798582D01*
X147324025Y-82735975D01*
X147261418Y-82659687D01*
X147214897Y-82572652D01*
X147186249Y-82478213D01*
X147176576Y-82380000D01*
X147186249Y-82281787D01*
X147214897Y-82187348D01*
X147261418Y-82100313D01*
X147324025Y-82024025D01*
X147400313Y-81961418D01*
X147487348Y-81914897D01*
X147581787Y-81886249D01*
X147655388Y-81879000D01*
X149304612Y-81879000D01*
X149378213Y-81886249D01*
X149378213Y-81886249D01*
G37*
G36*
X167378213Y-81886249D02*
X167472652Y-81914897D01*
X167559687Y-81961418D01*
X167635975Y-82024025D01*
X167698582Y-82100313D01*
X167745103Y-82187348D01*
X167773751Y-82281787D01*
X167783424Y-82380000D01*
X167773751Y-82478213D01*
X167745103Y-82572652D01*
X167698582Y-82659687D01*
X167635975Y-82735975D01*
X167559687Y-82798582D01*
X167472652Y-82845103D01*
X167378213Y-82873751D01*
X167304612Y-82881000D01*
X165655388Y-82881000D01*
X165581787Y-82873751D01*
X165487348Y-82845103D01*
X165400313Y-82798582D01*
X165324025Y-82735975D01*
X165261418Y-82659687D01*
X165214897Y-82572652D01*
X165186249Y-82478213D01*
X165176576Y-82380000D01*
X165186249Y-82281787D01*
X165214897Y-82187348D01*
X165261418Y-82100313D01*
X165324025Y-82024025D01*
X165400313Y-81961418D01*
X165487348Y-81914897D01*
X165581787Y-81886249D01*
X165655388Y-81879000D01*
X167304612Y-81879000D01*
X167378213Y-81886249D01*
X167378213Y-81886249D01*
G37*
G36*
X145083765Y-80278620D02*
X145273289Y-80357123D01*
X145443855Y-80471092D01*
X145588908Y-80616145D01*
X145702877Y-80786711D01*
X145781380Y-80976235D01*
X145821400Y-81177430D01*
X145821400Y-81382570D01*
X145781380Y-81583765D01*
X145702877Y-81773289D01*
X145588908Y-81943855D01*
X145443855Y-82088908D01*
X145273289Y-82202877D01*
X145083765Y-82281380D01*
X144882570Y-82321400D01*
X144677430Y-82321400D01*
X144476235Y-82281380D01*
X144286711Y-82202877D01*
X144116145Y-82088908D01*
X143971092Y-81943855D01*
X143857123Y-81773289D01*
X143778620Y-81583765D01*
X143738600Y-81382570D01*
X143738600Y-81177430D01*
X143778620Y-80976235D01*
X143857123Y-80786711D01*
X143971092Y-80616145D01*
X144116145Y-80471092D01*
X144286711Y-80357123D01*
X144476235Y-80278620D01*
X144677430Y-80238600D01*
X144882570Y-80238600D01*
X145083765Y-80278620D01*
X145083765Y-80278620D01*
G37*
G36*
X170483765Y-80278620D02*
X170673289Y-80357123D01*
X170843855Y-80471092D01*
X170988908Y-80616145D01*
X171102877Y-80786711D01*
X171181380Y-80976235D01*
X171221400Y-81177430D01*
X171221400Y-81382570D01*
X171181380Y-81583765D01*
X171102877Y-81773289D01*
X170988908Y-81943855D01*
X170843855Y-82088908D01*
X170673289Y-82202877D01*
X170483765Y-82281380D01*
X170282570Y-82321400D01*
X170077430Y-82321400D01*
X169876235Y-82281380D01*
X169686711Y-82202877D01*
X169516145Y-82088908D01*
X169371092Y-81943855D01*
X169257123Y-81773289D01*
X169178620Y-81583765D01*
X169138600Y-81382570D01*
X169138600Y-81177430D01*
X169178620Y-80976235D01*
X169257123Y-80786711D01*
X169371092Y-80616145D01*
X169516145Y-80471092D01*
X169686711Y-80357123D01*
X169876235Y-80278620D01*
X170077430Y-80238600D01*
X170282570Y-80238600D01*
X170483765Y-80278620D01*
X170483765Y-80278620D01*
G37*
G36*
X160231000Y-81701000D02*
X154129000Y-81701000D01*
X154129000Y-75599000D01*
X160231000Y-75599000D01*
X160231000Y-81701000D01*
X160231000Y-81701000D01*
G37*
G36*
X167378213Y-80616249D02*
X167472652Y-80644897D01*
X167559687Y-80691418D01*
X167635975Y-80754025D01*
X167698582Y-80830313D01*
X167745103Y-80917348D01*
X167773751Y-81011787D01*
X167783424Y-81110000D01*
X167773751Y-81208213D01*
X167745103Y-81302652D01*
X167698582Y-81389687D01*
X167635975Y-81465975D01*
X167559687Y-81528582D01*
X167472652Y-81575103D01*
X167378213Y-81603751D01*
X167304612Y-81611000D01*
X165655388Y-81611000D01*
X165581787Y-81603751D01*
X165487348Y-81575103D01*
X165400313Y-81528582D01*
X165324025Y-81465975D01*
X165261418Y-81389687D01*
X165214897Y-81302652D01*
X165186249Y-81208213D01*
X165176576Y-81110000D01*
X165186249Y-81011787D01*
X165214897Y-80917348D01*
X165261418Y-80830313D01*
X165324025Y-80754025D01*
X165400313Y-80691418D01*
X165487348Y-80644897D01*
X165581787Y-80616249D01*
X165655388Y-80609000D01*
X167304612Y-80609000D01*
X167378213Y-80616249D01*
X167378213Y-80616249D01*
G37*
G36*
X149378213Y-80616249D02*
X149472652Y-80644897D01*
X149559687Y-80691418D01*
X149635975Y-80754025D01*
X149698582Y-80830313D01*
X149745103Y-80917348D01*
X149773751Y-81011787D01*
X149783424Y-81110000D01*
X149773751Y-81208213D01*
X149745103Y-81302652D01*
X149698582Y-81389687D01*
X149635975Y-81465975D01*
X149559687Y-81528582D01*
X149472652Y-81575103D01*
X149378213Y-81603751D01*
X149304612Y-81611000D01*
X147655388Y-81611000D01*
X147581787Y-81603751D01*
X147487348Y-81575103D01*
X147400313Y-81528582D01*
X147324025Y-81465975D01*
X147261418Y-81389687D01*
X147214897Y-81302652D01*
X147186249Y-81208213D01*
X147176576Y-81110000D01*
X147186249Y-81011787D01*
X147214897Y-80917348D01*
X147261418Y-80830313D01*
X147324025Y-80754025D01*
X147400313Y-80691418D01*
X147487348Y-80644897D01*
X147581787Y-80616249D01*
X147655388Y-80609000D01*
X149304612Y-80609000D01*
X149378213Y-80616249D01*
X149378213Y-80616249D01*
G37*
G36*
X167378213Y-79346249D02*
X167472652Y-79374897D01*
X167559687Y-79421418D01*
X167635975Y-79484025D01*
X167698582Y-79560313D01*
X167745103Y-79647348D01*
X167773751Y-79741787D01*
X167783424Y-79840000D01*
X167773751Y-79938213D01*
X167745103Y-80032652D01*
X167698582Y-80119687D01*
X167635975Y-80195975D01*
X167559687Y-80258582D01*
X167472652Y-80305103D01*
X167378213Y-80333751D01*
X167304612Y-80341000D01*
X165655388Y-80341000D01*
X165581787Y-80333751D01*
X165487348Y-80305103D01*
X165400313Y-80258582D01*
X165324025Y-80195975D01*
X165261418Y-80119687D01*
X165214897Y-80032652D01*
X165186249Y-79938213D01*
X165176576Y-79840000D01*
X165186249Y-79741787D01*
X165214897Y-79647348D01*
X165261418Y-79560313D01*
X165324025Y-79484025D01*
X165400313Y-79421418D01*
X165487348Y-79374897D01*
X165581787Y-79346249D01*
X165655388Y-79339000D01*
X167304612Y-79339000D01*
X167378213Y-79346249D01*
X167378213Y-79346249D01*
G37*
G36*
X149378213Y-79346249D02*
X149472652Y-79374897D01*
X149559687Y-79421418D01*
X149635975Y-79484025D01*
X149698582Y-79560313D01*
X149745103Y-79647348D01*
X149773751Y-79741787D01*
X149783424Y-79840000D01*
X149773751Y-79938213D01*
X149745103Y-80032652D01*
X149698582Y-80119687D01*
X149635975Y-80195975D01*
X149559687Y-80258582D01*
X149472652Y-80305103D01*
X149378213Y-80333751D01*
X149304612Y-80341000D01*
X147655388Y-80341000D01*
X147581787Y-80333751D01*
X147487348Y-80305103D01*
X147400313Y-80258582D01*
X147324025Y-80195975D01*
X147261418Y-80119687D01*
X147214897Y-80032652D01*
X147186249Y-79938213D01*
X147176576Y-79840000D01*
X147186249Y-79741787D01*
X147214897Y-79647348D01*
X147261418Y-79560313D01*
X147324025Y-79484025D01*
X147400313Y-79421418D01*
X147487348Y-79374897D01*
X147581787Y-79346249D01*
X147655388Y-79339000D01*
X149304612Y-79339000D01*
X149378213Y-79346249D01*
X149378213Y-79346249D01*
G37*
G36*
X170483765Y-77738620D02*
X170673289Y-77817123D01*
X170843855Y-77931092D01*
X170988908Y-78076145D01*
X171102877Y-78246711D01*
X171181380Y-78436235D01*
X171221400Y-78637430D01*
X171221400Y-78842570D01*
X171181380Y-79043765D01*
X171102877Y-79233289D01*
X170988908Y-79403855D01*
X170843855Y-79548908D01*
X170673289Y-79662877D01*
X170483765Y-79741380D01*
X170282570Y-79781400D01*
X170077430Y-79781400D01*
X169876235Y-79741380D01*
X169686711Y-79662877D01*
X169516145Y-79548908D01*
X169371092Y-79403855D01*
X169257123Y-79233289D01*
X169178620Y-79043765D01*
X169138600Y-78842570D01*
X169138600Y-78637430D01*
X169178620Y-78436235D01*
X169257123Y-78246711D01*
X169371092Y-78076145D01*
X169516145Y-77931092D01*
X169686711Y-77817123D01*
X169876235Y-77738620D01*
X170077430Y-77698600D01*
X170282570Y-77698600D01*
X170483765Y-77738620D01*
X170483765Y-77738620D01*
G37*
G36*
X145083765Y-77738620D02*
X145273289Y-77817123D01*
X145443855Y-77931092D01*
X145588908Y-78076145D01*
X145702877Y-78246711D01*
X145781380Y-78436235D01*
X145821400Y-78637430D01*
X145821400Y-78842570D01*
X145781380Y-79043765D01*
X145702877Y-79233289D01*
X145588908Y-79403855D01*
X145443855Y-79548908D01*
X145273289Y-79662877D01*
X145083765Y-79741380D01*
X144882570Y-79781400D01*
X144677430Y-79781400D01*
X144476235Y-79741380D01*
X144286711Y-79662877D01*
X144116145Y-79548908D01*
X143971092Y-79403855D01*
X143857123Y-79233289D01*
X143778620Y-79043765D01*
X143738600Y-78842570D01*
X143738600Y-78637430D01*
X143778620Y-78436235D01*
X143857123Y-78246711D01*
X143971092Y-78076145D01*
X144116145Y-77931092D01*
X144286711Y-77817123D01*
X144476235Y-77738620D01*
X144677430Y-77698600D01*
X144882570Y-77698600D01*
X145083765Y-77738620D01*
X145083765Y-77738620D01*
G37*
G36*
X167378213Y-78076249D02*
X167472652Y-78104897D01*
X167559687Y-78151418D01*
X167635975Y-78214025D01*
X167698582Y-78290313D01*
X167745103Y-78377348D01*
X167773751Y-78471787D01*
X167783424Y-78570000D01*
X167773751Y-78668213D01*
X167745103Y-78762652D01*
X167698582Y-78849687D01*
X167635975Y-78925975D01*
X167559687Y-78988582D01*
X167472652Y-79035103D01*
X167378213Y-79063751D01*
X167304612Y-79071000D01*
X165655388Y-79071000D01*
X165581787Y-79063751D01*
X165487348Y-79035103D01*
X165400313Y-78988582D01*
X165324025Y-78925975D01*
X165261418Y-78849687D01*
X165214897Y-78762652D01*
X165186249Y-78668213D01*
X165176576Y-78570000D01*
X165186249Y-78471787D01*
X165214897Y-78377348D01*
X165261418Y-78290313D01*
X165324025Y-78214025D01*
X165400313Y-78151418D01*
X165487348Y-78104897D01*
X165581787Y-78076249D01*
X165655388Y-78069000D01*
X167304612Y-78069000D01*
X167378213Y-78076249D01*
X167378213Y-78076249D01*
G37*
G36*
X149378213Y-78076249D02*
X149472652Y-78104897D01*
X149559687Y-78151418D01*
X149635975Y-78214025D01*
X149698582Y-78290313D01*
X149745103Y-78377348D01*
X149773751Y-78471787D01*
X149783424Y-78570000D01*
X149773751Y-78668213D01*
X149745103Y-78762652D01*
X149698582Y-78849687D01*
X149635975Y-78925975D01*
X149559687Y-78988582D01*
X149472652Y-79035103D01*
X149378213Y-79063751D01*
X149304612Y-79071000D01*
X147655388Y-79071000D01*
X147581787Y-79063751D01*
X147487348Y-79035103D01*
X147400313Y-78988582D01*
X147324025Y-78925975D01*
X147261418Y-78849687D01*
X147214897Y-78762652D01*
X147186249Y-78668213D01*
X147176576Y-78570000D01*
X147186249Y-78471787D01*
X147214897Y-78377348D01*
X147261418Y-78290313D01*
X147324025Y-78214025D01*
X147400313Y-78151418D01*
X147487348Y-78104897D01*
X147581787Y-78076249D01*
X147655388Y-78069000D01*
X149304612Y-78069000D01*
X149378213Y-78076249D01*
X149378213Y-78076249D01*
G37*
G36*
X149378213Y-76806249D02*
X149472652Y-76834897D01*
X149559687Y-76881418D01*
X149635975Y-76944025D01*
X149698582Y-77020313D01*
X149745103Y-77107348D01*
X149773751Y-77201787D01*
X149783424Y-77300000D01*
X149773751Y-77398213D01*
X149745103Y-77492652D01*
X149698582Y-77579687D01*
X149635975Y-77655975D01*
X149559687Y-77718582D01*
X149472652Y-77765103D01*
X149378213Y-77793751D01*
X149304612Y-77801000D01*
X147655388Y-77801000D01*
X147581787Y-77793751D01*
X147487348Y-77765103D01*
X147400313Y-77718582D01*
X147324025Y-77655975D01*
X147261418Y-77579687D01*
X147214897Y-77492652D01*
X147186249Y-77398213D01*
X147176576Y-77300000D01*
X147186249Y-77201787D01*
X147214897Y-77107348D01*
X147261418Y-77020313D01*
X147324025Y-76944025D01*
X147400313Y-76881418D01*
X147487348Y-76834897D01*
X147581787Y-76806249D01*
X147655388Y-76799000D01*
X149304612Y-76799000D01*
X149378213Y-76806249D01*
X149378213Y-76806249D01*
G37*
G36*
X167378213Y-76806249D02*
X167472652Y-76834897D01*
X167559687Y-76881418D01*
X167635975Y-76944025D01*
X167698582Y-77020313D01*
X167745103Y-77107348D01*
X167773751Y-77201787D01*
X167783424Y-77300000D01*
X167773751Y-77398213D01*
X167745103Y-77492652D01*
X167698582Y-77579687D01*
X167635975Y-77655975D01*
X167559687Y-77718582D01*
X167472652Y-77765103D01*
X167378213Y-77793751D01*
X167304612Y-77801000D01*
X165655388Y-77801000D01*
X165581787Y-77793751D01*
X165487348Y-77765103D01*
X165400313Y-77718582D01*
X165324025Y-77655975D01*
X165261418Y-77579687D01*
X165214897Y-77492652D01*
X165186249Y-77398213D01*
X165176576Y-77300000D01*
X165186249Y-77201787D01*
X165214897Y-77107348D01*
X165261418Y-77020313D01*
X165324025Y-76944025D01*
X165400313Y-76881418D01*
X165487348Y-76834897D01*
X165581787Y-76806249D01*
X165655388Y-76799000D01*
X167304612Y-76799000D01*
X167378213Y-76806249D01*
X167378213Y-76806249D01*
G37*
G36*
X145083765Y-75198620D02*
X145273289Y-75277123D01*
X145443855Y-75391092D01*
X145588908Y-75536145D01*
X145702877Y-75706711D01*
X145781380Y-75896235D01*
X145821400Y-76097430D01*
X145821400Y-76302570D01*
X145781380Y-76503765D01*
X145702877Y-76693289D01*
X145588908Y-76863855D01*
X145443855Y-77008908D01*
X145273289Y-77122877D01*
X145083765Y-77201380D01*
X144882570Y-77241400D01*
X144677430Y-77241400D01*
X144476235Y-77201380D01*
X144286711Y-77122877D01*
X144116145Y-77008908D01*
X143971092Y-76863855D01*
X143857123Y-76693289D01*
X143778620Y-76503765D01*
X143738600Y-76302570D01*
X143738600Y-76097430D01*
X143778620Y-75896235D01*
X143857123Y-75706711D01*
X143971092Y-75536145D01*
X144116145Y-75391092D01*
X144286711Y-75277123D01*
X144476235Y-75198620D01*
X144677430Y-75158600D01*
X144882570Y-75158600D01*
X145083765Y-75198620D01*
X145083765Y-75198620D01*
G37*
G36*
X170483765Y-75198620D02*
X170673289Y-75277123D01*
X170843855Y-75391092D01*
X170988908Y-75536145D01*
X171102877Y-75706711D01*
X171181380Y-75896235D01*
X171221400Y-76097430D01*
X171221400Y-76302570D01*
X171181380Y-76503765D01*
X171102877Y-76693289D01*
X170988908Y-76863855D01*
X170843855Y-77008908D01*
X170673289Y-77122877D01*
X170483765Y-77201380D01*
X170282570Y-77241400D01*
X170077430Y-77241400D01*
X169876235Y-77201380D01*
X169686711Y-77122877D01*
X169516145Y-77008908D01*
X169371092Y-76863855D01*
X169257123Y-76693289D01*
X169178620Y-76503765D01*
X169138600Y-76302570D01*
X169138600Y-76097430D01*
X169178620Y-75896235D01*
X169257123Y-75706711D01*
X169371092Y-75536145D01*
X169516145Y-75391092D01*
X169686711Y-75277123D01*
X169876235Y-75198620D01*
X170077430Y-75158600D01*
X170282570Y-75158600D01*
X170483765Y-75198620D01*
X170483765Y-75198620D01*
G37*
G36*
X149378213Y-75536249D02*
X149472652Y-75564897D01*
X149559687Y-75611418D01*
X149635975Y-75674025D01*
X149698582Y-75750313D01*
X149745103Y-75837348D01*
X149773751Y-75931787D01*
X149783424Y-76030000D01*
X149773751Y-76128213D01*
X149745103Y-76222652D01*
X149698582Y-76309687D01*
X149635975Y-76385975D01*
X149559687Y-76448582D01*
X149472652Y-76495103D01*
X149378213Y-76523751D01*
X149304612Y-76531000D01*
X147655388Y-76531000D01*
X147581787Y-76523751D01*
X147487348Y-76495103D01*
X147400313Y-76448582D01*
X147324025Y-76385975D01*
X147261418Y-76309687D01*
X147214897Y-76222652D01*
X147186249Y-76128213D01*
X147176576Y-76030000D01*
X147186249Y-75931787D01*
X147214897Y-75837348D01*
X147261418Y-75750313D01*
X147324025Y-75674025D01*
X147400313Y-75611418D01*
X147487348Y-75564897D01*
X147581787Y-75536249D01*
X147655388Y-75529000D01*
X149304612Y-75529000D01*
X149378213Y-75536249D01*
X149378213Y-75536249D01*
G37*
G36*
X167378213Y-75536249D02*
X167472652Y-75564897D01*
X167559687Y-75611418D01*
X167635975Y-75674025D01*
X167698582Y-75750313D01*
X167745103Y-75837348D01*
X167773751Y-75931787D01*
X167783424Y-76030000D01*
X167773751Y-76128213D01*
X167745103Y-76222652D01*
X167698582Y-76309687D01*
X167635975Y-76385975D01*
X167559687Y-76448582D01*
X167472652Y-76495103D01*
X167378213Y-76523751D01*
X167304612Y-76531000D01*
X165655388Y-76531000D01*
X165581787Y-76523751D01*
X165487348Y-76495103D01*
X165400313Y-76448582D01*
X165324025Y-76385975D01*
X165261418Y-76309687D01*
X165214897Y-76222652D01*
X165186249Y-76128213D01*
X165176576Y-76030000D01*
X165186249Y-75931787D01*
X165214897Y-75837348D01*
X165261418Y-75750313D01*
X165324025Y-75674025D01*
X165400313Y-75611418D01*
X165487348Y-75564897D01*
X165581787Y-75536249D01*
X165655388Y-75529000D01*
X167304612Y-75529000D01*
X167378213Y-75536249D01*
X167378213Y-75536249D01*
G37*
G36*
X167378213Y-74266249D02*
X167472652Y-74294897D01*
X167559687Y-74341418D01*
X167635975Y-74404025D01*
X167698582Y-74480313D01*
X167745103Y-74567348D01*
X167773751Y-74661787D01*
X167783424Y-74760000D01*
X167773751Y-74858213D01*
X167745103Y-74952652D01*
X167698582Y-75039687D01*
X167635975Y-75115975D01*
X167559687Y-75178582D01*
X167472652Y-75225103D01*
X167378213Y-75253751D01*
X167304612Y-75261000D01*
X165655388Y-75261000D01*
X165581787Y-75253751D01*
X165487348Y-75225103D01*
X165400313Y-75178582D01*
X165324025Y-75115975D01*
X165261418Y-75039687D01*
X165214897Y-74952652D01*
X165186249Y-74858213D01*
X165176576Y-74760000D01*
X165186249Y-74661787D01*
X165214897Y-74567348D01*
X165261418Y-74480313D01*
X165324025Y-74404025D01*
X165400313Y-74341418D01*
X165487348Y-74294897D01*
X165581787Y-74266249D01*
X165655388Y-74259000D01*
X167304612Y-74259000D01*
X167378213Y-74266249D01*
X167378213Y-74266249D01*
G37*
G36*
X149378213Y-74266249D02*
X149472652Y-74294897D01*
X149559687Y-74341418D01*
X149635975Y-74404025D01*
X149698582Y-74480313D01*
X149745103Y-74567348D01*
X149773751Y-74661787D01*
X149783424Y-74760000D01*
X149773751Y-74858213D01*
X149745103Y-74952652D01*
X149698582Y-75039687D01*
X149635975Y-75115975D01*
X149559687Y-75178582D01*
X149472652Y-75225103D01*
X149378213Y-75253751D01*
X149304612Y-75261000D01*
X147655388Y-75261000D01*
X147581787Y-75253751D01*
X147487348Y-75225103D01*
X147400313Y-75178582D01*
X147324025Y-75115975D01*
X147261418Y-75039687D01*
X147214897Y-74952652D01*
X147186249Y-74858213D01*
X147176576Y-74760000D01*
X147186249Y-74661787D01*
X147214897Y-74567348D01*
X147261418Y-74480313D01*
X147324025Y-74404025D01*
X147400313Y-74341418D01*
X147487348Y-74294897D01*
X147581787Y-74266249D01*
X147655388Y-74259000D01*
X149304612Y-74259000D01*
X149378213Y-74266249D01*
X149378213Y-74266249D01*
G37*
G36*
X170483765Y-72658620D02*
X170673289Y-72737123D01*
X170843855Y-72851092D01*
X170988908Y-72996145D01*
X171102877Y-73166711D01*
X171181380Y-73356235D01*
X171221400Y-73557430D01*
X171221400Y-73762570D01*
X171181380Y-73963765D01*
X171102877Y-74153289D01*
X170988908Y-74323855D01*
X170843855Y-74468908D01*
X170673289Y-74582877D01*
X170483765Y-74661380D01*
X170282570Y-74701400D01*
X170077430Y-74701400D01*
X169876235Y-74661380D01*
X169686711Y-74582877D01*
X169516145Y-74468908D01*
X169371092Y-74323855D01*
X169257123Y-74153289D01*
X169178620Y-73963765D01*
X169138600Y-73762570D01*
X169138600Y-73557430D01*
X169178620Y-73356235D01*
X169257123Y-73166711D01*
X169371092Y-72996145D01*
X169516145Y-72851092D01*
X169686711Y-72737123D01*
X169876235Y-72658620D01*
X170077430Y-72618600D01*
X170282570Y-72618600D01*
X170483765Y-72658620D01*
X170483765Y-72658620D01*
G37*
G36*
X145083765Y-72658620D02*
X145273289Y-72737123D01*
X145443855Y-72851092D01*
X145588908Y-72996145D01*
X145702877Y-73166711D01*
X145781380Y-73356235D01*
X145821400Y-73557430D01*
X145821400Y-73762570D01*
X145781380Y-73963765D01*
X145702877Y-74153289D01*
X145588908Y-74323855D01*
X145443855Y-74468908D01*
X145273289Y-74582877D01*
X145083765Y-74661380D01*
X144882570Y-74701400D01*
X144677430Y-74701400D01*
X144476235Y-74661380D01*
X144286711Y-74582877D01*
X144116145Y-74468908D01*
X143971092Y-74323855D01*
X143857123Y-74153289D01*
X143778620Y-73963765D01*
X143738600Y-73762570D01*
X143738600Y-73557430D01*
X143778620Y-73356235D01*
X143857123Y-73166711D01*
X143971092Y-72996145D01*
X144116145Y-72851092D01*
X144286711Y-72737123D01*
X144476235Y-72658620D01*
X144677430Y-72618600D01*
X144882570Y-72618600D01*
X145083765Y-72658620D01*
X145083765Y-72658620D01*
G37*
G36*
X149378213Y-72996249D02*
X149472652Y-73024897D01*
X149559687Y-73071418D01*
X149635975Y-73134025D01*
X149698582Y-73210313D01*
X149745103Y-73297348D01*
X149773751Y-73391787D01*
X149783424Y-73490000D01*
X149773751Y-73588213D01*
X149745103Y-73682652D01*
X149698582Y-73769687D01*
X149635975Y-73845975D01*
X149559687Y-73908582D01*
X149472652Y-73955103D01*
X149378213Y-73983751D01*
X149304612Y-73991000D01*
X147655388Y-73991000D01*
X147581787Y-73983751D01*
X147487348Y-73955103D01*
X147400313Y-73908582D01*
X147324025Y-73845975D01*
X147261418Y-73769687D01*
X147214897Y-73682652D01*
X147186249Y-73588213D01*
X147176576Y-73490000D01*
X147186249Y-73391787D01*
X147214897Y-73297348D01*
X147261418Y-73210313D01*
X147324025Y-73134025D01*
X147400313Y-73071418D01*
X147487348Y-73024897D01*
X147581787Y-72996249D01*
X147655388Y-72989000D01*
X149304612Y-72989000D01*
X149378213Y-72996249D01*
X149378213Y-72996249D01*
G37*
G36*
X167378213Y-72996249D02*
X167472652Y-73024897D01*
X167559687Y-73071418D01*
X167635975Y-73134025D01*
X167698582Y-73210313D01*
X167745103Y-73297348D01*
X167773751Y-73391787D01*
X167783424Y-73490000D01*
X167773751Y-73588213D01*
X167745103Y-73682652D01*
X167698582Y-73769687D01*
X167635975Y-73845975D01*
X167559687Y-73908582D01*
X167472652Y-73955103D01*
X167378213Y-73983751D01*
X167304612Y-73991000D01*
X165655388Y-73991000D01*
X165581787Y-73983751D01*
X165487348Y-73955103D01*
X165400313Y-73908582D01*
X165324025Y-73845975D01*
X165261418Y-73769687D01*
X165214897Y-73682652D01*
X165186249Y-73588213D01*
X165176576Y-73490000D01*
X165186249Y-73391787D01*
X165214897Y-73297348D01*
X165261418Y-73210313D01*
X165324025Y-73134025D01*
X165400313Y-73071418D01*
X165487348Y-73024897D01*
X165581787Y-72996249D01*
X165655388Y-72989000D01*
X167304612Y-72989000D01*
X167378213Y-72996249D01*
X167378213Y-72996249D01*
G37*
G36*
X167378213Y-71726249D02*
X167472652Y-71754897D01*
X167559687Y-71801418D01*
X167635975Y-71864025D01*
X167698582Y-71940313D01*
X167745103Y-72027348D01*
X167773751Y-72121787D01*
X167783424Y-72220000D01*
X167773751Y-72318213D01*
X167745103Y-72412652D01*
X167698582Y-72499687D01*
X167635975Y-72575975D01*
X167559687Y-72638582D01*
X167472652Y-72685103D01*
X167378213Y-72713751D01*
X167304612Y-72721000D01*
X165655388Y-72721000D01*
X165581787Y-72713751D01*
X165487348Y-72685103D01*
X165400313Y-72638582D01*
X165324025Y-72575975D01*
X165261418Y-72499687D01*
X165214897Y-72412652D01*
X165186249Y-72318213D01*
X165176576Y-72220000D01*
X165186249Y-72121787D01*
X165214897Y-72027348D01*
X165261418Y-71940313D01*
X165324025Y-71864025D01*
X165400313Y-71801418D01*
X165487348Y-71754897D01*
X165581787Y-71726249D01*
X165655388Y-71719000D01*
X167304612Y-71719000D01*
X167378213Y-71726249D01*
X167378213Y-71726249D01*
G37*
G36*
X149378213Y-71726249D02*
X149472652Y-71754897D01*
X149559687Y-71801418D01*
X149635975Y-71864025D01*
X149698582Y-71940313D01*
X149745103Y-72027348D01*
X149773751Y-72121787D01*
X149783424Y-72220000D01*
X149773751Y-72318213D01*
X149745103Y-72412652D01*
X149698582Y-72499687D01*
X149635975Y-72575975D01*
X149559687Y-72638582D01*
X149472652Y-72685103D01*
X149378213Y-72713751D01*
X149304612Y-72721000D01*
X147655388Y-72721000D01*
X147581787Y-72713751D01*
X147487348Y-72685103D01*
X147400313Y-72638582D01*
X147324025Y-72575975D01*
X147261418Y-72499687D01*
X147214897Y-72412652D01*
X147186249Y-72318213D01*
X147176576Y-72220000D01*
X147186249Y-72121787D01*
X147214897Y-72027348D01*
X147261418Y-71940313D01*
X147324025Y-71864025D01*
X147400313Y-71801418D01*
X147487348Y-71754897D01*
X147581787Y-71726249D01*
X147655388Y-71719000D01*
X149304612Y-71719000D01*
X149378213Y-71726249D01*
X149378213Y-71726249D01*
G37*
G36*
X170483765Y-70118620D02*
X170673289Y-70197123D01*
X170843855Y-70311092D01*
X170988908Y-70456145D01*
X171102877Y-70626711D01*
X171181380Y-70816235D01*
X171221400Y-71017430D01*
X171221400Y-71222570D01*
X171181380Y-71423765D01*
X171102877Y-71613289D01*
X170988908Y-71783855D01*
X170843855Y-71928908D01*
X170673289Y-72042877D01*
X170483765Y-72121380D01*
X170282570Y-72161400D01*
X170077430Y-72161400D01*
X169876235Y-72121380D01*
X169686711Y-72042877D01*
X169516145Y-71928908D01*
X169371092Y-71783855D01*
X169257123Y-71613289D01*
X169178620Y-71423765D01*
X169138600Y-71222570D01*
X169138600Y-71017430D01*
X169178620Y-70816235D01*
X169257123Y-70626711D01*
X169371092Y-70456145D01*
X169516145Y-70311092D01*
X169686711Y-70197123D01*
X169876235Y-70118620D01*
X170077430Y-70078600D01*
X170282570Y-70078600D01*
X170483765Y-70118620D01*
X170483765Y-70118620D01*
G37*
G36*
X145083765Y-70118620D02*
X145273289Y-70197123D01*
X145443855Y-70311092D01*
X145588908Y-70456145D01*
X145702877Y-70626711D01*
X145781380Y-70816235D01*
X145821400Y-71017430D01*
X145821400Y-71222570D01*
X145781380Y-71423765D01*
X145702877Y-71613289D01*
X145588908Y-71783855D01*
X145443855Y-71928908D01*
X145273289Y-72042877D01*
X145083765Y-72121380D01*
X144882570Y-72161400D01*
X144677430Y-72161400D01*
X144476235Y-72121380D01*
X144286711Y-72042877D01*
X144116145Y-71928908D01*
X143971092Y-71783855D01*
X143857123Y-71613289D01*
X143778620Y-71423765D01*
X143738600Y-71222570D01*
X143738600Y-71017430D01*
X143778620Y-70816235D01*
X143857123Y-70626711D01*
X143971092Y-70456145D01*
X144116145Y-70311092D01*
X144286711Y-70197123D01*
X144476235Y-70118620D01*
X144677430Y-70078600D01*
X144882570Y-70078600D01*
X145083765Y-70118620D01*
X145083765Y-70118620D01*
G37*
G36*
X149378213Y-70456249D02*
X149472652Y-70484897D01*
X149559687Y-70531418D01*
X149635975Y-70594025D01*
X149698582Y-70670313D01*
X149745103Y-70757348D01*
X149773751Y-70851787D01*
X149783424Y-70950000D01*
X149773751Y-71048213D01*
X149745103Y-71142652D01*
X149698582Y-71229687D01*
X149635975Y-71305975D01*
X149559687Y-71368582D01*
X149472652Y-71415103D01*
X149378213Y-71443751D01*
X149304612Y-71451000D01*
X147655388Y-71451000D01*
X147581787Y-71443751D01*
X147487348Y-71415103D01*
X147400313Y-71368582D01*
X147324025Y-71305975D01*
X147261418Y-71229687D01*
X147214897Y-71142652D01*
X147186249Y-71048213D01*
X147176576Y-70950000D01*
X147186249Y-70851787D01*
X147214897Y-70757348D01*
X147261418Y-70670313D01*
X147324025Y-70594025D01*
X147400313Y-70531418D01*
X147487348Y-70484897D01*
X147581787Y-70456249D01*
X147655388Y-70449000D01*
X149304612Y-70449000D01*
X149378213Y-70456249D01*
X149378213Y-70456249D01*
G37*
G36*
X167378213Y-70456249D02*
X167472652Y-70484897D01*
X167559687Y-70531418D01*
X167635975Y-70594025D01*
X167698582Y-70670313D01*
X167745103Y-70757348D01*
X167773751Y-70851787D01*
X167783424Y-70950000D01*
X167773751Y-71048213D01*
X167745103Y-71142652D01*
X167698582Y-71229687D01*
X167635975Y-71305975D01*
X167559687Y-71368582D01*
X167472652Y-71415103D01*
X167378213Y-71443751D01*
X167304612Y-71451000D01*
X165655388Y-71451000D01*
X165581787Y-71443751D01*
X165487348Y-71415103D01*
X165400313Y-71368582D01*
X165324025Y-71305975D01*
X165261418Y-71229687D01*
X165214897Y-71142652D01*
X165186249Y-71048213D01*
X165176576Y-70950000D01*
X165186249Y-70851787D01*
X165214897Y-70757348D01*
X165261418Y-70670313D01*
X165324025Y-70594025D01*
X165400313Y-70531418D01*
X165487348Y-70484897D01*
X165581787Y-70456249D01*
X165655388Y-70449000D01*
X167304612Y-70449000D01*
X167378213Y-70456249D01*
X167378213Y-70456249D01*
G37*
M02*
