M48
;DRILL file {KiCad (5.0.2)-1} date 09/10/2019 16:14:49
;FORMAT={-:-/ absolute / inch / decimal}
FMAT,2
INCH,TZ
T1C0.0157
T2C0.0400
%
G90
G05
T1
X5.77Y-2.9625
X5.77Y-3.0875
X5.785Y-3.925
X5.8575Y-3.54
X5.9Y-3.65
X5.935Y-3.205
X5.964Y-3.155
X5.9775Y-3.3175
X5.9925Y-3.0925
X6.0215Y-3.3175
X6.0275Y-2.9875
X6.03Y-3.74
X6.03Y-3.8175
X6.0375Y-3.175
X6.09Y-3.42
X6.12Y-3.86
X6.1625Y-3.2341
X6.1625Y-3.78
X6.1925Y-3.35
X6.4325Y-3.28
X6.44Y-2.8925
X6.4425Y-3.2125
X6.4425Y-3.3775
X6.4475Y-3.085
X6.4525Y-2.9675
X6.575Y-3.7475
X6.63Y-3.66
T2
X6.7Y-2.8
X6.7Y-2.9
X6.7Y-3.
X6.7Y-3.1
X6.7Y-3.2
X6.7Y-3.3
X6.7Y-3.4
X6.7Y-3.5
X6.7Y-3.6
X6.7Y-3.7
X6.7Y-3.8
X6.7Y-3.9
X5.7Y-2.8
X5.7Y-2.9
X5.7Y-3.
X5.7Y-3.1
X5.7Y-3.2
X5.7Y-3.3
X5.7Y-3.4
X5.7Y-3.5
X5.7Y-3.6
X5.7Y-3.7
X5.7Y-3.8
X5.7Y-3.9
T0
M30
