M48
;DRILL file {KiCad (5.0.2)-1} date 20/10/2019 23:59:22
;FORMAT={-:-/ absolute / inch / decimal}
FMAT,2
INCH,TZ
T1C0.0157
T2C0.0400
%
G90
G05
T1
X5.364Y-3.2776
X5.3865Y-3.8634
X5.387Y-3.4871
X5.437Y-3.7171
X5.4415Y-4.6084
X5.447Y-4.5071
X5.4485Y-4.0195
X5.4603Y-3.8274
X5.462Y-3.5321
X5.4926Y-3.2078
X5.4947Y-4.5897
X5.502Y-3.5571
X5.5206Y-3.3328
X5.5233Y-4.3421
X5.5233Y-4.544
X5.5365Y-2.8134
X5.5365Y-2.8634
X5.5365Y-2.9134
X5.541Y-4.4889
X5.5549Y-4.3749
X5.5586Y-3.3432
X5.5701Y-3.7862
X5.5975Y-3.3376
X5.622Y-3.7321
X5.6352Y-4.0118
X5.6366Y-3.3428
X5.6759Y-3.344
X5.6865Y-4.1634
X5.7153Y-3.3433
X5.722Y-3.2821
X5.7265Y-4.3134
X5.7315Y-3.9154
X5.7586Y-3.3513
X5.761Y-3.6571
X5.7705Y-4.1294
X5.772Y-4.0021
X5.7933Y-3.6069
X5.797Y-3.2771
X5.812Y-3.5571
X5.822Y-3.3671
X5.8365Y-4.1634
X5.842Y-3.3121
X5.8447Y-3.2648
X5.88Y-4.2637
X5.8806Y-3.9739
X5.8827Y-4.2129
X5.8849Y-3.2673
X5.8932Y-4.0368
X5.9115Y-3.5484
X5.924Y-3.2717
X5.932Y-4.2071
X5.9565Y-3.5927
X5.9633Y-3.2696
X5.972Y-4.2821
X5.9785Y-3.9721
X5.997Y-4.3171
X6.0026Y-3.2668
X6.017Y-4.3521
X6.0389Y-4.3848
X6.042Y-3.267
X6.05Y-3.3572
X6.052Y-4.4221
X6.0563Y-3.2071
X6.067Y-3.4471
X6.082Y-4.4721
X6.0856Y-3.7721
X6.0885Y-3.5171
X6.117Y-4.5171
T2
X6.1865Y-3.5634
X6.1865Y-3.6634
X6.1865Y-3.7634
X6.1865Y-3.8634
X6.1865Y-3.9634
X6.1865Y-4.0634
X6.1865Y-4.1634
X6.1865Y-4.2634
X6.1865Y-4.3634
X6.1865Y-4.4634
X6.1865Y-4.5634
X6.1865Y-4.6634
X5.3865Y-3.5634
X5.3865Y-3.6634
X5.3865Y-3.7634
X5.3865Y-3.8634
X5.3865Y-3.9634
X5.3865Y-4.0634
X5.3865Y-4.1634
X5.3865Y-4.2634
X5.3865Y-4.3634
X5.3865Y-4.4634
X5.3865Y-4.5634
X5.3865Y-4.6634
T0
M30
