G04 #@! TF.GenerationSoftware,KiCad,Pcbnew,(5.0.2)-1*
G04 #@! TF.CreationDate,2019-10-09T16:14:47+02:00*
G04 #@! TF.ProjectId,esp32-lifepo4,65737033-322d-46c6-9966-65706f342e6b,rev?*
G04 #@! TF.SameCoordinates,Original*
G04 #@! TF.FileFunction,Paste,Top*
G04 #@! TF.FilePolarity,Positive*
%FSLAX46Y46*%
G04 Gerber Fmt 4.6, Leading zero omitted, Abs format (unit mm)*
G04 Created by KiCad (PCBNEW (5.0.2)-1) date 09/10/2019 16:14:47*
%MOMM*%
%LPD*%
G01*
G04 APERTURE LIST*
%ADD10R,1.250000X1.000000*%
%ADD11R,0.800000X0.800000*%
%ADD12R,0.797560X1.198880*%
%ADD13R,1.198880X0.797560*%
%ADD14O,2.500000X0.900000*%
%ADD15O,0.900000X2.500000*%
%ADD16R,6.000000X6.000000*%
%ADD17R,1.550000X0.600000*%
%ADD18R,1.060000X0.650000*%
G04 APERTURE END LIST*
D10*
G04 #@! TO.C,C1*
X151892000Y-97774000D03*
X151892000Y-95774000D03*
G04 #@! TD*
G04 #@! TO.C,C2*
X163068000Y-95774000D03*
X163068000Y-97774000D03*
G04 #@! TD*
D11*
G04 #@! TO.C,D2*
X160528000Y-98006000D03*
X160528000Y-99606000D03*
G04 #@! TD*
G04 #@! TO.C,D3*
X154432000Y-99606000D03*
X154432000Y-98006000D03*
G04 #@! TD*
D12*
G04 #@! TO.C,R1*
X158379160Y-98298000D03*
X156580840Y-98298000D03*
G04 #@! TD*
D13*
G04 #@! TO.C,R2*
X151892000Y-92064840D03*
X151892000Y-93863160D03*
G04 #@! TD*
G04 #@! TO.C,R3*
X163068000Y-93863160D03*
X163068000Y-92064840D03*
G04 #@! TD*
D14*
G04 #@! TO.C,U1*
X166480000Y-70950000D03*
X166480000Y-72220000D03*
X166480000Y-73490000D03*
X166480000Y-74760000D03*
X166480000Y-76030000D03*
X166480000Y-77300000D03*
X166480000Y-78570000D03*
X166480000Y-79840000D03*
X166480000Y-81110000D03*
X166480000Y-82380000D03*
X166480000Y-83650000D03*
X166480000Y-84920000D03*
X166480000Y-86190000D03*
X166480000Y-87460000D03*
D15*
X163195000Y-88950000D03*
X161925000Y-88950000D03*
X160655000Y-88950000D03*
X159385000Y-88950000D03*
X158115000Y-88950000D03*
X156845000Y-88950000D03*
X155575000Y-88950000D03*
X154305000Y-88950000D03*
X153035000Y-88950000D03*
X151765000Y-88950000D03*
D14*
X148480000Y-87460000D03*
X148480000Y-86190000D03*
X148480000Y-84920000D03*
X148480000Y-83650000D03*
X148480000Y-82380000D03*
X148480000Y-81110000D03*
X148480000Y-79840000D03*
X148480000Y-78570000D03*
X148480000Y-77300000D03*
X148480000Y-76030000D03*
X148480000Y-74760000D03*
X148480000Y-73490000D03*
X148480000Y-72220000D03*
X148480000Y-70950000D03*
D16*
X157180000Y-78650000D03*
G04 #@! TD*
D17*
G04 #@! TO.C,U2*
X160180000Y-92329000D03*
X160180000Y-93599000D03*
X160180000Y-94869000D03*
X160180000Y-96139000D03*
X154780000Y-96139000D03*
X154780000Y-94869000D03*
X154780000Y-93599000D03*
X154780000Y-92329000D03*
G04 #@! TD*
D18*
G04 #@! TO.C,U3*
X167300000Y-92080000D03*
X167300000Y-93980000D03*
X165100000Y-93980000D03*
X165100000Y-93030000D03*
X165100000Y-92080000D03*
G04 #@! TD*
M02*
