G04 #@! TF.GenerationSoftware,KiCad,Pcbnew,(5.0.2)-1*
G04 #@! TF.CreationDate,2019-10-20T23:59:16+02:00*
G04 #@! TF.ProjectId,esp32-lifepo4 - slim,65737033-322d-46c6-9966-65706f34202d,rev?*
G04 #@! TF.SameCoordinates,Original*
G04 #@! TF.FileFunction,Legend,Top*
G04 #@! TF.FilePolarity,Positive*
%FSLAX46Y46*%
G04 Gerber Fmt 4.6, Leading zero omitted, Abs format (unit mm)*
G04 Created by KiCad (PCBNEW (5.0.2)-1) date 20/10/2019 23:59:16*
%MOMM*%
%LPD*%
G01*
G04 APERTURE LIST*
%ADD10C,0.250000*%
%ADD11C,0.500000*%
%ADD12C,0.150000*%
%ADD13C,0.120000*%
%ADD14C,0.203200*%
%ADD15C,0.152400*%
%ADD16C,0.127000*%
G04 APERTURE END LIST*
D10*
X153289095Y-117991000D02*
X153193857Y-117943380D01*
X153051000Y-117943380D01*
X152908142Y-117991000D01*
X152812904Y-118086238D01*
X152765285Y-118181476D01*
X152717666Y-118371952D01*
X152717666Y-118514809D01*
X152765285Y-118705285D01*
X152812904Y-118800523D01*
X152908142Y-118895761D01*
X153051000Y-118943380D01*
X153146238Y-118943380D01*
X153289095Y-118895761D01*
X153336714Y-118848142D01*
X153336714Y-118514809D01*
X153146238Y-118514809D01*
X153765285Y-118943380D02*
X153765285Y-117943380D01*
X154336714Y-118943380D01*
X154336714Y-117943380D01*
X154812904Y-118943380D02*
X154812904Y-117943380D01*
X155051000Y-117943380D01*
X155193857Y-117991000D01*
X155289095Y-118086238D01*
X155336714Y-118181476D01*
X155384333Y-118371952D01*
X155384333Y-118514809D01*
X155336714Y-118705285D01*
X155289095Y-118800523D01*
X155193857Y-118895761D01*
X155051000Y-118943380D01*
X154812904Y-118943380D01*
X153162095Y-89924000D02*
X153066857Y-89876380D01*
X152924000Y-89876380D01*
X152781142Y-89924000D01*
X152685904Y-90019238D01*
X152638285Y-90114476D01*
X152590666Y-90304952D01*
X152590666Y-90447809D01*
X152638285Y-90638285D01*
X152685904Y-90733523D01*
X152781142Y-90828761D01*
X152924000Y-90876380D01*
X153019238Y-90876380D01*
X153162095Y-90828761D01*
X153209714Y-90781142D01*
X153209714Y-90447809D01*
X153019238Y-90447809D01*
X153638285Y-90876380D02*
X153638285Y-89876380D01*
X154209714Y-90876380D01*
X154209714Y-89876380D01*
X154685904Y-90876380D02*
X154685904Y-89876380D01*
X154924000Y-89876380D01*
X155066857Y-89924000D01*
X155162095Y-90019238D01*
X155209714Y-90114476D01*
X155257333Y-90304952D01*
X155257333Y-90447809D01*
X155209714Y-90638285D01*
X155162095Y-90733523D01*
X155066857Y-90828761D01*
X154924000Y-90876380D01*
X154685904Y-90876380D01*
X152812904Y-92543380D02*
X153384333Y-92543380D01*
X153098619Y-93543380D02*
X153098619Y-92543380D01*
X153622428Y-92543380D02*
X154289095Y-93543380D01*
X154289095Y-92543380D02*
X153622428Y-93543380D01*
X154860523Y-92543380D02*
X154955761Y-92543380D01*
X155051000Y-92591000D01*
X155098619Y-92638619D01*
X155146238Y-92733857D01*
X155193857Y-92924333D01*
X155193857Y-93162428D01*
X155146238Y-93352904D01*
X155098619Y-93448142D01*
X155051000Y-93495761D01*
X154955761Y-93543380D01*
X154860523Y-93543380D01*
X154765285Y-93495761D01*
X154717666Y-93448142D01*
X154670047Y-93352904D01*
X154622428Y-93162428D01*
X154622428Y-92924333D01*
X154670047Y-92733857D01*
X154717666Y-92638619D01*
X154765285Y-92591000D01*
X154860523Y-92543380D01*
X153408142Y-96083380D02*
X153074809Y-95607190D01*
X152836714Y-96083380D02*
X152836714Y-95083380D01*
X153217666Y-95083380D01*
X153312904Y-95131000D01*
X153360523Y-95178619D01*
X153408142Y-95273857D01*
X153408142Y-95416714D01*
X153360523Y-95511952D01*
X153312904Y-95559571D01*
X153217666Y-95607190D01*
X152836714Y-95607190D01*
X153741476Y-95083380D02*
X154408142Y-96083380D01*
X154408142Y-95083380D02*
X153741476Y-96083380D01*
X154979571Y-95083380D02*
X155074809Y-95083380D01*
X155170047Y-95131000D01*
X155217666Y-95178619D01*
X155265285Y-95273857D01*
X155312904Y-95464333D01*
X155312904Y-95702428D01*
X155265285Y-95892904D01*
X155217666Y-95988142D01*
X155170047Y-96035761D01*
X155074809Y-96083380D01*
X154979571Y-96083380D01*
X154884333Y-96035761D01*
X154836714Y-95988142D01*
X154789095Y-95892904D01*
X154741476Y-95702428D01*
X154741476Y-95464333D01*
X154789095Y-95273857D01*
X154836714Y-95178619D01*
X154884333Y-95131000D01*
X154979571Y-95083380D01*
X152574809Y-98623380D02*
X152574809Y-97623380D01*
X153241476Y-97623380D02*
X153431952Y-97623380D01*
X153527190Y-97671000D01*
X153622428Y-97766238D01*
X153670047Y-97956714D01*
X153670047Y-98290047D01*
X153622428Y-98480523D01*
X153527190Y-98575761D01*
X153431952Y-98623380D01*
X153241476Y-98623380D01*
X153146238Y-98575761D01*
X153051000Y-98480523D01*
X153003380Y-98290047D01*
X153003380Y-97956714D01*
X153051000Y-97766238D01*
X153146238Y-97671000D01*
X153241476Y-97623380D01*
X154051000Y-97718619D02*
X154098619Y-97671000D01*
X154193857Y-97623380D01*
X154431952Y-97623380D01*
X154527190Y-97671000D01*
X154574809Y-97718619D01*
X154622428Y-97813857D01*
X154622428Y-97909095D01*
X154574809Y-98051952D01*
X154003380Y-98623380D01*
X154622428Y-98623380D01*
X154955761Y-97623380D02*
X155574809Y-97623380D01*
X155241476Y-98004333D01*
X155384333Y-98004333D01*
X155479571Y-98051952D01*
X155527190Y-98099571D01*
X155574809Y-98194809D01*
X155574809Y-98432904D01*
X155527190Y-98528142D01*
X155479571Y-98575761D01*
X155384333Y-98623380D01*
X155098619Y-98623380D01*
X155003380Y-98575761D01*
X154955761Y-98528142D01*
X152574809Y-101163380D02*
X152574809Y-100163380D01*
X153241476Y-100163380D02*
X153431952Y-100163380D01*
X153527190Y-100211000D01*
X153622428Y-100306238D01*
X153670047Y-100496714D01*
X153670047Y-100830047D01*
X153622428Y-101020523D01*
X153527190Y-101115761D01*
X153431952Y-101163380D01*
X153241476Y-101163380D01*
X153146238Y-101115761D01*
X153051000Y-101020523D01*
X153003380Y-100830047D01*
X153003380Y-100496714D01*
X153051000Y-100306238D01*
X153146238Y-100211000D01*
X153241476Y-100163380D01*
X154051000Y-100258619D02*
X154098619Y-100211000D01*
X154193857Y-100163380D01*
X154431952Y-100163380D01*
X154527190Y-100211000D01*
X154574809Y-100258619D01*
X154622428Y-100353857D01*
X154622428Y-100449095D01*
X154574809Y-100591952D01*
X154003380Y-101163380D01*
X154622428Y-101163380D01*
X155003380Y-100258619D02*
X155051000Y-100211000D01*
X155146238Y-100163380D01*
X155384333Y-100163380D01*
X155479571Y-100211000D01*
X155527190Y-100258619D01*
X155574809Y-100353857D01*
X155574809Y-100449095D01*
X155527190Y-100591952D01*
X154955761Y-101163380D01*
X155574809Y-101163380D01*
X152574809Y-103703380D02*
X152574809Y-102703380D01*
X153241476Y-102703380D02*
X153431952Y-102703380D01*
X153527190Y-102751000D01*
X153622428Y-102846238D01*
X153670047Y-103036714D01*
X153670047Y-103370047D01*
X153622428Y-103560523D01*
X153527190Y-103655761D01*
X153431952Y-103703380D01*
X153241476Y-103703380D01*
X153146238Y-103655761D01*
X153051000Y-103560523D01*
X153003380Y-103370047D01*
X153003380Y-103036714D01*
X153051000Y-102846238D01*
X153146238Y-102751000D01*
X153241476Y-102703380D01*
X154051000Y-102798619D02*
X154098619Y-102751000D01*
X154193857Y-102703380D01*
X154431952Y-102703380D01*
X154527190Y-102751000D01*
X154574809Y-102798619D01*
X154622428Y-102893857D01*
X154622428Y-102989095D01*
X154574809Y-103131952D01*
X154003380Y-103703380D01*
X154622428Y-103703380D01*
X155574809Y-103703380D02*
X155003380Y-103703380D01*
X155289095Y-103703380D02*
X155289095Y-102703380D01*
X155193857Y-102846238D01*
X155098619Y-102941476D01*
X155003380Y-102989095D01*
X152574809Y-106243380D02*
X152574809Y-105243380D01*
X153241476Y-105243380D02*
X153431952Y-105243380D01*
X153527190Y-105291000D01*
X153622428Y-105386238D01*
X153670047Y-105576714D01*
X153670047Y-105910047D01*
X153622428Y-106100523D01*
X153527190Y-106195761D01*
X153431952Y-106243380D01*
X153241476Y-106243380D01*
X153146238Y-106195761D01*
X153051000Y-106100523D01*
X153003380Y-105910047D01*
X153003380Y-105576714D01*
X153051000Y-105386238D01*
X153146238Y-105291000D01*
X153241476Y-105243380D01*
X154622428Y-106243380D02*
X154051000Y-106243380D01*
X154336714Y-106243380D02*
X154336714Y-105243380D01*
X154241476Y-105386238D01*
X154146238Y-105481476D01*
X154051000Y-105529095D01*
X155098619Y-106243380D02*
X155289095Y-106243380D01*
X155384333Y-106195761D01*
X155431952Y-106148142D01*
X155527190Y-106005285D01*
X155574809Y-105814809D01*
X155574809Y-105433857D01*
X155527190Y-105338619D01*
X155479571Y-105291000D01*
X155384333Y-105243380D01*
X155193857Y-105243380D01*
X155098619Y-105291000D01*
X155051000Y-105338619D01*
X155003380Y-105433857D01*
X155003380Y-105671952D01*
X155051000Y-105767190D01*
X155098619Y-105814809D01*
X155193857Y-105862428D01*
X155384333Y-105862428D01*
X155479571Y-105814809D01*
X155527190Y-105767190D01*
X155574809Y-105671952D01*
X152574809Y-108783380D02*
X152574809Y-107783380D01*
X153241476Y-107783380D02*
X153431952Y-107783380D01*
X153527190Y-107831000D01*
X153622428Y-107926238D01*
X153670047Y-108116714D01*
X153670047Y-108450047D01*
X153622428Y-108640523D01*
X153527190Y-108735761D01*
X153431952Y-108783380D01*
X153241476Y-108783380D01*
X153146238Y-108735761D01*
X153051000Y-108640523D01*
X153003380Y-108450047D01*
X153003380Y-108116714D01*
X153051000Y-107926238D01*
X153146238Y-107831000D01*
X153241476Y-107783380D01*
X154622428Y-108783380D02*
X154051000Y-108783380D01*
X154336714Y-108783380D02*
X154336714Y-107783380D01*
X154241476Y-107926238D01*
X154146238Y-108021476D01*
X154051000Y-108069095D01*
X155193857Y-108211952D02*
X155098619Y-108164333D01*
X155051000Y-108116714D01*
X155003380Y-108021476D01*
X155003380Y-107973857D01*
X155051000Y-107878619D01*
X155098619Y-107831000D01*
X155193857Y-107783380D01*
X155384333Y-107783380D01*
X155479571Y-107831000D01*
X155527190Y-107878619D01*
X155574809Y-107973857D01*
X155574809Y-108021476D01*
X155527190Y-108116714D01*
X155479571Y-108164333D01*
X155384333Y-108211952D01*
X155193857Y-108211952D01*
X155098619Y-108259571D01*
X155051000Y-108307190D01*
X155003380Y-108402428D01*
X155003380Y-108592904D01*
X155051000Y-108688142D01*
X155098619Y-108735761D01*
X155193857Y-108783380D01*
X155384333Y-108783380D01*
X155479571Y-108735761D01*
X155527190Y-108688142D01*
X155574809Y-108592904D01*
X155574809Y-108402428D01*
X155527190Y-108307190D01*
X155479571Y-108259571D01*
X155384333Y-108211952D01*
X152574809Y-111323380D02*
X152574809Y-110323380D01*
X153241476Y-110323380D02*
X153431952Y-110323380D01*
X153527190Y-110371000D01*
X153622428Y-110466238D01*
X153670047Y-110656714D01*
X153670047Y-110990047D01*
X153622428Y-111180523D01*
X153527190Y-111275761D01*
X153431952Y-111323380D01*
X153241476Y-111323380D01*
X153146238Y-111275761D01*
X153051000Y-111180523D01*
X153003380Y-110990047D01*
X153003380Y-110656714D01*
X153051000Y-110466238D01*
X153146238Y-110371000D01*
X153241476Y-110323380D01*
X154622428Y-111323380D02*
X154051000Y-111323380D01*
X154336714Y-111323380D02*
X154336714Y-110323380D01*
X154241476Y-110466238D01*
X154146238Y-110561476D01*
X154051000Y-110609095D01*
X154955761Y-110323380D02*
X155622428Y-110323380D01*
X155193857Y-111323380D01*
X152574809Y-113863380D02*
X152574809Y-112863380D01*
X153241476Y-112863380D02*
X153431952Y-112863380D01*
X153527190Y-112911000D01*
X153622428Y-113006238D01*
X153670047Y-113196714D01*
X153670047Y-113530047D01*
X153622428Y-113720523D01*
X153527190Y-113815761D01*
X153431952Y-113863380D01*
X153241476Y-113863380D01*
X153146238Y-113815761D01*
X153051000Y-113720523D01*
X153003380Y-113530047D01*
X153003380Y-113196714D01*
X153051000Y-113006238D01*
X153146238Y-112911000D01*
X153241476Y-112863380D01*
X154622428Y-113863380D02*
X154051000Y-113863380D01*
X154336714Y-113863380D02*
X154336714Y-112863380D01*
X154241476Y-113006238D01*
X154146238Y-113101476D01*
X154051000Y-113149095D01*
X155479571Y-112863380D02*
X155289095Y-112863380D01*
X155193857Y-112911000D01*
X155146238Y-112958619D01*
X155051000Y-113101476D01*
X155003380Y-113291952D01*
X155003380Y-113672904D01*
X155051000Y-113768142D01*
X155098619Y-113815761D01*
X155193857Y-113863380D01*
X155384333Y-113863380D01*
X155479571Y-113815761D01*
X155527190Y-113768142D01*
X155574809Y-113672904D01*
X155574809Y-113434809D01*
X155527190Y-113339571D01*
X155479571Y-113291952D01*
X155384333Y-113244333D01*
X155193857Y-113244333D01*
X155098619Y-113291952D01*
X155051000Y-113339571D01*
X155003380Y-113434809D01*
X152574809Y-116403380D02*
X152574809Y-115403380D01*
X153241476Y-115403380D02*
X153431952Y-115403380D01*
X153527190Y-115451000D01*
X153622428Y-115546238D01*
X153670047Y-115736714D01*
X153670047Y-116070047D01*
X153622428Y-116260523D01*
X153527190Y-116355761D01*
X153431952Y-116403380D01*
X153241476Y-116403380D01*
X153146238Y-116355761D01*
X153051000Y-116260523D01*
X153003380Y-116070047D01*
X153003380Y-115736714D01*
X153051000Y-115546238D01*
X153146238Y-115451000D01*
X153241476Y-115403380D01*
X154622428Y-116403380D02*
X154051000Y-116403380D01*
X154336714Y-116403380D02*
X154336714Y-115403380D01*
X154241476Y-115546238D01*
X154146238Y-115641476D01*
X154051000Y-115689095D01*
X155479571Y-115736714D02*
X155479571Y-116403380D01*
X155241476Y-115355761D02*
X155003380Y-116070047D01*
X155622428Y-116070047D01*
X138350809Y-118943380D02*
X138350809Y-117943380D01*
X139017476Y-117943380D02*
X139207952Y-117943380D01*
X139303190Y-117991000D01*
X139398428Y-118086238D01*
X139446047Y-118276714D01*
X139446047Y-118610047D01*
X139398428Y-118800523D01*
X139303190Y-118895761D01*
X139207952Y-118943380D01*
X139017476Y-118943380D01*
X138922238Y-118895761D01*
X138827000Y-118800523D01*
X138779380Y-118610047D01*
X138779380Y-118276714D01*
X138827000Y-118086238D01*
X138922238Y-117991000D01*
X139017476Y-117943380D01*
X139827000Y-118038619D02*
X139874619Y-117991000D01*
X139969857Y-117943380D01*
X140207952Y-117943380D01*
X140303190Y-117991000D01*
X140350809Y-118038619D01*
X140398428Y-118133857D01*
X140398428Y-118229095D01*
X140350809Y-118371952D01*
X139779380Y-118943380D01*
X140398428Y-118943380D01*
X140731761Y-117943380D02*
X141398428Y-117943380D01*
X140969857Y-118943380D01*
X138350809Y-116530380D02*
X138350809Y-115530380D01*
X139017476Y-115530380D02*
X139207952Y-115530380D01*
X139303190Y-115578000D01*
X139398428Y-115673238D01*
X139446047Y-115863714D01*
X139446047Y-116197047D01*
X139398428Y-116387523D01*
X139303190Y-116482761D01*
X139207952Y-116530380D01*
X139017476Y-116530380D01*
X138922238Y-116482761D01*
X138827000Y-116387523D01*
X138779380Y-116197047D01*
X138779380Y-115863714D01*
X138827000Y-115673238D01*
X138922238Y-115578000D01*
X139017476Y-115530380D01*
X139827000Y-115625619D02*
X139874619Y-115578000D01*
X139969857Y-115530380D01*
X140207952Y-115530380D01*
X140303190Y-115578000D01*
X140350809Y-115625619D01*
X140398428Y-115720857D01*
X140398428Y-115816095D01*
X140350809Y-115958952D01*
X139779380Y-116530380D01*
X140398428Y-116530380D01*
X141255571Y-115530380D02*
X141065095Y-115530380D01*
X140969857Y-115578000D01*
X140922238Y-115625619D01*
X140827000Y-115768476D01*
X140779380Y-115958952D01*
X140779380Y-116339904D01*
X140827000Y-116435142D01*
X140874619Y-116482761D01*
X140969857Y-116530380D01*
X141160333Y-116530380D01*
X141255571Y-116482761D01*
X141303190Y-116435142D01*
X141350809Y-116339904D01*
X141350809Y-116101809D01*
X141303190Y-116006571D01*
X141255571Y-115958952D01*
X141160333Y-115911333D01*
X140969857Y-115911333D01*
X140874619Y-115958952D01*
X140827000Y-116006571D01*
X140779380Y-116101809D01*
X138350809Y-113863380D02*
X138350809Y-112863380D01*
X139017476Y-112863380D02*
X139207952Y-112863380D01*
X139303190Y-112911000D01*
X139398428Y-113006238D01*
X139446047Y-113196714D01*
X139446047Y-113530047D01*
X139398428Y-113720523D01*
X139303190Y-113815761D01*
X139207952Y-113863380D01*
X139017476Y-113863380D01*
X138922238Y-113815761D01*
X138827000Y-113720523D01*
X138779380Y-113530047D01*
X138779380Y-113196714D01*
X138827000Y-113006238D01*
X138922238Y-112911000D01*
X139017476Y-112863380D01*
X139827000Y-112958619D02*
X139874619Y-112911000D01*
X139969857Y-112863380D01*
X140207952Y-112863380D01*
X140303190Y-112911000D01*
X140350809Y-112958619D01*
X140398428Y-113053857D01*
X140398428Y-113149095D01*
X140350809Y-113291952D01*
X139779380Y-113863380D01*
X140398428Y-113863380D01*
X141303190Y-112863380D02*
X140827000Y-112863380D01*
X140779380Y-113339571D01*
X140827000Y-113291952D01*
X140922238Y-113244333D01*
X141160333Y-113244333D01*
X141255571Y-113291952D01*
X141303190Y-113339571D01*
X141350809Y-113434809D01*
X141350809Y-113672904D01*
X141303190Y-113768142D01*
X141255571Y-113815761D01*
X141160333Y-113863380D01*
X140922238Y-113863380D01*
X140827000Y-113815761D01*
X140779380Y-113768142D01*
X138350809Y-111450380D02*
X138350809Y-110450380D01*
X139017476Y-110450380D02*
X139207952Y-110450380D01*
X139303190Y-110498000D01*
X139398428Y-110593238D01*
X139446047Y-110783714D01*
X139446047Y-111117047D01*
X139398428Y-111307523D01*
X139303190Y-111402761D01*
X139207952Y-111450380D01*
X139017476Y-111450380D01*
X138922238Y-111402761D01*
X138827000Y-111307523D01*
X138779380Y-111117047D01*
X138779380Y-110783714D01*
X138827000Y-110593238D01*
X138922238Y-110498000D01*
X139017476Y-110450380D01*
X139779380Y-110450380D02*
X140398428Y-110450380D01*
X140065095Y-110831333D01*
X140207952Y-110831333D01*
X140303190Y-110878952D01*
X140350809Y-110926571D01*
X140398428Y-111021809D01*
X140398428Y-111259904D01*
X140350809Y-111355142D01*
X140303190Y-111402761D01*
X140207952Y-111450380D01*
X139922238Y-111450380D01*
X139827000Y-111402761D01*
X139779380Y-111355142D01*
X141303190Y-110450380D02*
X140827000Y-110450380D01*
X140779380Y-110926571D01*
X140827000Y-110878952D01*
X140922238Y-110831333D01*
X141160333Y-110831333D01*
X141255571Y-110878952D01*
X141303190Y-110926571D01*
X141350809Y-111021809D01*
X141350809Y-111259904D01*
X141303190Y-111355142D01*
X141255571Y-111402761D01*
X141160333Y-111450380D01*
X140922238Y-111450380D01*
X140827000Y-111402761D01*
X140779380Y-111355142D01*
X138350809Y-108783380D02*
X138350809Y-107783380D01*
X139017476Y-107783380D02*
X139207952Y-107783380D01*
X139303190Y-107831000D01*
X139398428Y-107926238D01*
X139446047Y-108116714D01*
X139446047Y-108450047D01*
X139398428Y-108640523D01*
X139303190Y-108735761D01*
X139207952Y-108783380D01*
X139017476Y-108783380D01*
X138922238Y-108735761D01*
X138827000Y-108640523D01*
X138779380Y-108450047D01*
X138779380Y-108116714D01*
X138827000Y-107926238D01*
X138922238Y-107831000D01*
X139017476Y-107783380D01*
X139779380Y-107783380D02*
X140398428Y-107783380D01*
X140065095Y-108164333D01*
X140207952Y-108164333D01*
X140303190Y-108211952D01*
X140350809Y-108259571D01*
X140398428Y-108354809D01*
X140398428Y-108592904D01*
X140350809Y-108688142D01*
X140303190Y-108735761D01*
X140207952Y-108783380D01*
X139922238Y-108783380D01*
X139827000Y-108735761D01*
X139779380Y-108688142D01*
X141255571Y-108116714D02*
X141255571Y-108783380D01*
X141017476Y-107735761D02*
X140779380Y-108450047D01*
X141398428Y-108450047D01*
X138350809Y-106243380D02*
X138350809Y-105243380D01*
X139017476Y-105243380D02*
X139207952Y-105243380D01*
X139303190Y-105291000D01*
X139398428Y-105386238D01*
X139446047Y-105576714D01*
X139446047Y-105910047D01*
X139398428Y-106100523D01*
X139303190Y-106195761D01*
X139207952Y-106243380D01*
X139017476Y-106243380D01*
X138922238Y-106195761D01*
X138827000Y-106100523D01*
X138779380Y-105910047D01*
X138779380Y-105576714D01*
X138827000Y-105386238D01*
X138922238Y-105291000D01*
X139017476Y-105243380D01*
X139779380Y-105243380D02*
X140398428Y-105243380D01*
X140065095Y-105624333D01*
X140207952Y-105624333D01*
X140303190Y-105671952D01*
X140350809Y-105719571D01*
X140398428Y-105814809D01*
X140398428Y-106052904D01*
X140350809Y-106148142D01*
X140303190Y-106195761D01*
X140207952Y-106243380D01*
X139922238Y-106243380D01*
X139827000Y-106195761D01*
X139779380Y-106148142D01*
X140731761Y-105243380D02*
X141350809Y-105243380D01*
X141017476Y-105624333D01*
X141160333Y-105624333D01*
X141255571Y-105671952D01*
X141303190Y-105719571D01*
X141350809Y-105814809D01*
X141350809Y-106052904D01*
X141303190Y-106148142D01*
X141255571Y-106195761D01*
X141160333Y-106243380D01*
X140874619Y-106243380D01*
X140779380Y-106195761D01*
X140731761Y-106148142D01*
X138350809Y-103830380D02*
X138350809Y-102830380D01*
X139017476Y-102830380D02*
X139207952Y-102830380D01*
X139303190Y-102878000D01*
X139398428Y-102973238D01*
X139446047Y-103163714D01*
X139446047Y-103497047D01*
X139398428Y-103687523D01*
X139303190Y-103782761D01*
X139207952Y-103830380D01*
X139017476Y-103830380D01*
X138922238Y-103782761D01*
X138827000Y-103687523D01*
X138779380Y-103497047D01*
X138779380Y-103163714D01*
X138827000Y-102973238D01*
X138922238Y-102878000D01*
X139017476Y-102830380D01*
X139779380Y-102830380D02*
X140398428Y-102830380D01*
X140065095Y-103211333D01*
X140207952Y-103211333D01*
X140303190Y-103258952D01*
X140350809Y-103306571D01*
X140398428Y-103401809D01*
X140398428Y-103639904D01*
X140350809Y-103735142D01*
X140303190Y-103782761D01*
X140207952Y-103830380D01*
X139922238Y-103830380D01*
X139827000Y-103782761D01*
X139779380Y-103735142D01*
X140779380Y-102925619D02*
X140827000Y-102878000D01*
X140922238Y-102830380D01*
X141160333Y-102830380D01*
X141255571Y-102878000D01*
X141303190Y-102925619D01*
X141350809Y-103020857D01*
X141350809Y-103116095D01*
X141303190Y-103258952D01*
X140731761Y-103830380D01*
X141350809Y-103830380D01*
X138723857Y-100639571D02*
X138866714Y-100687190D01*
X138914333Y-100734809D01*
X138961952Y-100830047D01*
X138961952Y-100972904D01*
X138914333Y-101068142D01*
X138866714Y-101115761D01*
X138771476Y-101163380D01*
X138390523Y-101163380D01*
X138390523Y-100163380D01*
X138723857Y-100163380D01*
X138819095Y-100211000D01*
X138866714Y-100258619D01*
X138914333Y-100353857D01*
X138914333Y-100449095D01*
X138866714Y-100544333D01*
X138819095Y-100591952D01*
X138723857Y-100639571D01*
X138390523Y-100639571D01*
X139581000Y-100163380D02*
X139771476Y-100163380D01*
X139866714Y-100211000D01*
X139961952Y-100306238D01*
X140009571Y-100496714D01*
X140009571Y-100830047D01*
X139961952Y-101020523D01*
X139866714Y-101115761D01*
X139771476Y-101163380D01*
X139581000Y-101163380D01*
X139485761Y-101115761D01*
X139390523Y-101020523D01*
X139342904Y-100830047D01*
X139342904Y-100496714D01*
X139390523Y-100306238D01*
X139485761Y-100211000D01*
X139581000Y-100163380D01*
X140628619Y-100163380D02*
X140819095Y-100163380D01*
X140914333Y-100211000D01*
X141009571Y-100306238D01*
X141057190Y-100496714D01*
X141057190Y-100830047D01*
X141009571Y-101020523D01*
X140914333Y-101115761D01*
X140819095Y-101163380D01*
X140628619Y-101163380D01*
X140533380Y-101115761D01*
X140438142Y-101020523D01*
X140390523Y-100830047D01*
X140390523Y-100496714D01*
X140438142Y-100306238D01*
X140533380Y-100211000D01*
X140628619Y-100163380D01*
X141342904Y-100163380D02*
X141914333Y-100163380D01*
X141628619Y-101163380D02*
X141628619Y-100163380D01*
X138938095Y-97671000D02*
X138842857Y-97623380D01*
X138700000Y-97623380D01*
X138557142Y-97671000D01*
X138461904Y-97766238D01*
X138414285Y-97861476D01*
X138366666Y-98051952D01*
X138366666Y-98194809D01*
X138414285Y-98385285D01*
X138461904Y-98480523D01*
X138557142Y-98575761D01*
X138700000Y-98623380D01*
X138795238Y-98623380D01*
X138938095Y-98575761D01*
X138985714Y-98528142D01*
X138985714Y-98194809D01*
X138795238Y-98194809D01*
X139414285Y-98623380D02*
X139414285Y-97623380D01*
X139985714Y-98623380D01*
X139985714Y-97623380D01*
X140461904Y-98623380D02*
X140461904Y-97623380D01*
X140700000Y-97623380D01*
X140842857Y-97671000D01*
X140938095Y-97766238D01*
X140985714Y-97861476D01*
X141033333Y-98051952D01*
X141033333Y-98194809D01*
X140985714Y-98385285D01*
X140938095Y-98480523D01*
X140842857Y-98575761D01*
X140700000Y-98623380D01*
X140461904Y-98623380D01*
X138723857Y-95432571D02*
X138866714Y-95480190D01*
X138914333Y-95527809D01*
X138961952Y-95623047D01*
X138961952Y-95765904D01*
X138914333Y-95861142D01*
X138866714Y-95908761D01*
X138771476Y-95956380D01*
X138390523Y-95956380D01*
X138390523Y-94956380D01*
X138723857Y-94956380D01*
X138819095Y-95004000D01*
X138866714Y-95051619D01*
X138914333Y-95146857D01*
X138914333Y-95242095D01*
X138866714Y-95337333D01*
X138819095Y-95384952D01*
X138723857Y-95432571D01*
X138390523Y-95432571D01*
X139342904Y-95670666D02*
X139819095Y-95670666D01*
X139247666Y-95956380D02*
X139581000Y-94956380D01*
X139914333Y-95956380D01*
X140104809Y-94956380D02*
X140676238Y-94956380D01*
X140390523Y-95956380D02*
X140390523Y-94956380D01*
X141009571Y-95575428D02*
X141771476Y-95575428D01*
X141390523Y-95956380D02*
X141390523Y-95194476D01*
X138334904Y-90003380D02*
X138953952Y-90003380D01*
X138620619Y-90384333D01*
X138763476Y-90384333D01*
X138858714Y-90431952D01*
X138906333Y-90479571D01*
X138953952Y-90574809D01*
X138953952Y-90812904D01*
X138906333Y-90908142D01*
X138858714Y-90955761D01*
X138763476Y-91003380D01*
X138477761Y-91003380D01*
X138382523Y-90955761D01*
X138334904Y-90908142D01*
X139239666Y-90003380D02*
X139573000Y-91003380D01*
X139906333Y-90003380D01*
X140144428Y-90003380D02*
X140763476Y-90003380D01*
X140430142Y-90384333D01*
X140573000Y-90384333D01*
X140668238Y-90431952D01*
X140715857Y-90479571D01*
X140763476Y-90574809D01*
X140763476Y-90812904D01*
X140715857Y-90908142D01*
X140668238Y-90955761D01*
X140573000Y-91003380D01*
X140287285Y-91003380D01*
X140192047Y-90955761D01*
X140144428Y-90908142D01*
X138350761Y-92543380D02*
X138684095Y-93543380D01*
X139017428Y-92543380D01*
X139350761Y-93543380D02*
X139350761Y-92543380D01*
X139826952Y-93543380D02*
X139826952Y-92543380D01*
X140398380Y-93543380D01*
X140398380Y-92543380D01*
D11*
G04 #@! TO.C,U1*
X137354141Y-68666934D02*
G75*
G03X137354141Y-68666934I-283981J0D01*
G01*
D12*
X155976160Y-68520934D02*
X137976160Y-68520934D01*
X137976160Y-62520934D02*
X137976160Y-88020934D01*
X155976160Y-62520934D02*
X155976160Y-88020934D01*
X155976160Y-88020934D02*
X137976160Y-88020934D01*
X155976160Y-62520934D02*
X137976160Y-62520934D01*
D13*
G04 #@! TO.C,C1*
X142746160Y-98630934D02*
X142746160Y-97630934D01*
X141046160Y-97630934D02*
X141046160Y-98630934D01*
G04 #@! TO.C,C2*
X152906160Y-98630934D02*
X152906160Y-97630934D01*
X151206160Y-97630934D02*
X151206160Y-98630934D01*
G04 #@! TO.C,D2*
X152886160Y-103710934D02*
X150786160Y-103710934D01*
X152886160Y-102710934D02*
X150786160Y-102710934D01*
X152886160Y-103710934D02*
X152886160Y-102710934D01*
G04 #@! TO.C,D3*
X143996160Y-103710934D02*
X143996160Y-102710934D01*
X143996160Y-102710934D02*
X141896160Y-102710934D01*
X143996160Y-103710934D02*
X141896160Y-103710934D01*
D14*
G04 #@! TO.C,J1*
X138086160Y-105115934D02*
X138086160Y-106385934D01*
X138086160Y-106385934D02*
X137451160Y-107020934D01*
X136181160Y-107020934D02*
X135546160Y-106385934D01*
X137451160Y-101940934D02*
X138086160Y-102575934D01*
X138086160Y-102575934D02*
X138086160Y-103845934D01*
X138086160Y-103845934D02*
X137451160Y-104480934D01*
X136181160Y-104480934D02*
X135546160Y-103845934D01*
X135546160Y-103845934D02*
X135546160Y-102575934D01*
X135546160Y-102575934D02*
X136181160Y-101940934D01*
X138086160Y-105115934D02*
X137451160Y-104480934D01*
X136181160Y-104480934D02*
X135546160Y-105115934D01*
X135546160Y-106385934D02*
X135546160Y-105115934D01*
X138086160Y-97495934D02*
X138086160Y-98765934D01*
X138086160Y-98765934D02*
X137451160Y-99400934D01*
X136181160Y-99400934D02*
X135546160Y-98765934D01*
X137451160Y-99400934D02*
X138086160Y-100035934D01*
X138086160Y-100035934D02*
X138086160Y-101305934D01*
X138086160Y-101305934D02*
X137451160Y-101940934D01*
X136181160Y-101940934D02*
X135546160Y-101305934D01*
X135546160Y-101305934D02*
X135546160Y-100035934D01*
X135546160Y-100035934D02*
X136181160Y-99400934D01*
X137451160Y-94320934D02*
X138086160Y-94955934D01*
X138086160Y-94955934D02*
X138086160Y-96225934D01*
X138086160Y-96225934D02*
X137451160Y-96860934D01*
X136181160Y-96860934D02*
X135546160Y-96225934D01*
X135546160Y-96225934D02*
X135546160Y-94955934D01*
X135546160Y-94955934D02*
X136181160Y-94320934D01*
X138086160Y-97495934D02*
X137451160Y-96860934D01*
X136181160Y-96860934D02*
X135546160Y-97495934D01*
X135546160Y-98765934D02*
X135546160Y-97495934D01*
X138086160Y-89875934D02*
X138086160Y-91145934D01*
X138086160Y-91145934D02*
X137451160Y-91780934D01*
X136181160Y-91780934D02*
X135546160Y-91145934D01*
X137451160Y-91780934D02*
X138086160Y-92415934D01*
X138086160Y-92415934D02*
X138086160Y-93685934D01*
X138086160Y-93685934D02*
X137451160Y-94320934D01*
X136181160Y-94320934D02*
X135546160Y-93685934D01*
X135546160Y-93685934D02*
X135546160Y-92415934D01*
X135546160Y-92415934D02*
X136181160Y-91780934D01*
X137451160Y-89240934D02*
X136181160Y-89240934D01*
X138086160Y-89875934D02*
X137451160Y-89240934D01*
X136181160Y-89240934D02*
X135546160Y-89875934D01*
X135546160Y-91145934D02*
X135546160Y-89875934D01*
X138086160Y-107655934D02*
X138086160Y-108925934D01*
X138086160Y-108925934D02*
X137451160Y-109560934D01*
X136181160Y-109560934D02*
X135546160Y-108925934D01*
X138086160Y-107655934D02*
X137451160Y-107020934D01*
X136181160Y-107020934D02*
X135546160Y-107655934D01*
X135546160Y-108925934D02*
X135546160Y-107655934D01*
X138086160Y-110195934D02*
X138086160Y-111465934D01*
X138086160Y-111465934D02*
X137451160Y-112100934D01*
X136181160Y-112100934D02*
X135546160Y-111465934D01*
X138086160Y-110195934D02*
X137451160Y-109560934D01*
X136181160Y-109560934D02*
X135546160Y-110195934D01*
X135546160Y-111465934D02*
X135546160Y-110195934D01*
X138086160Y-112735934D02*
X138086160Y-114005934D01*
X138086160Y-114005934D02*
X137451160Y-114640934D01*
X136181160Y-114640934D02*
X135546160Y-114005934D01*
X138086160Y-112735934D02*
X137451160Y-112100934D01*
X136181160Y-112100934D02*
X135546160Y-112735934D01*
X135546160Y-114005934D02*
X135546160Y-112735934D01*
X138086160Y-115275934D02*
X138086160Y-116545934D01*
X138086160Y-116545934D02*
X137451160Y-117180934D01*
X136181160Y-117180934D02*
X135546160Y-116545934D01*
X138086160Y-115275934D02*
X137451160Y-114640934D01*
X136181160Y-114640934D02*
X135546160Y-115275934D01*
X135546160Y-116545934D02*
X135546160Y-115275934D01*
X138086160Y-117815934D02*
X138086160Y-119085934D01*
X138086160Y-119085934D02*
X137451160Y-119720934D01*
X137451160Y-119720934D02*
X136181160Y-119720934D01*
X136181160Y-119720934D02*
X135546160Y-119085934D01*
X138086160Y-117815934D02*
X137451160Y-117180934D01*
X136181160Y-117180934D02*
X135546160Y-117815934D01*
X135546160Y-119085934D02*
X135546160Y-117815934D01*
G04 #@! TO.C,J2*
X158406160Y-89875934D02*
X158406160Y-91145934D01*
X157771160Y-91780934D02*
X158406160Y-91145934D01*
X155866160Y-91145934D02*
X156501160Y-91780934D01*
X157771160Y-89240934D02*
X158406160Y-89875934D01*
X156501160Y-89240934D02*
X157771160Y-89240934D01*
X155866160Y-89875934D02*
X156501160Y-89240934D01*
X155866160Y-91145934D02*
X155866160Y-89875934D01*
X158406160Y-92415934D02*
X158406160Y-93685934D01*
X157771160Y-94320934D02*
X158406160Y-93685934D01*
X155866160Y-93685934D02*
X156501160Y-94320934D01*
X157771160Y-91780934D02*
X158406160Y-92415934D01*
X155866160Y-92415934D02*
X156501160Y-91780934D01*
X155866160Y-93685934D02*
X155866160Y-92415934D01*
X158406160Y-94955934D02*
X158406160Y-96225934D01*
X157771160Y-96860934D02*
X158406160Y-96225934D01*
X155866160Y-96225934D02*
X156501160Y-96860934D01*
X157771160Y-94320934D02*
X158406160Y-94955934D01*
X155866160Y-94955934D02*
X156501160Y-94320934D01*
X155866160Y-96225934D02*
X155866160Y-94955934D01*
X158406160Y-97495934D02*
X158406160Y-98765934D01*
X157771160Y-99400934D02*
X158406160Y-98765934D01*
X155866160Y-98765934D02*
X156501160Y-99400934D01*
X157771160Y-96860934D02*
X158406160Y-97495934D01*
X155866160Y-97495934D02*
X156501160Y-96860934D01*
X155866160Y-98765934D02*
X155866160Y-97495934D01*
X158406160Y-100035934D02*
X158406160Y-101305934D01*
X157771160Y-101940934D02*
X158406160Y-101305934D01*
X155866160Y-101305934D02*
X156501160Y-101940934D01*
X157771160Y-99400934D02*
X158406160Y-100035934D01*
X155866160Y-100035934D02*
X156501160Y-99400934D01*
X155866160Y-101305934D02*
X155866160Y-100035934D01*
X158406160Y-117815934D02*
X158406160Y-119085934D01*
X157771160Y-119720934D02*
X158406160Y-119085934D01*
X155866160Y-119085934D02*
X156501160Y-119720934D01*
X156501160Y-119720934D02*
X157771160Y-119720934D01*
X158406160Y-116545934D02*
X157771160Y-117180934D01*
X158406160Y-115275934D02*
X158406160Y-116545934D01*
X157771160Y-114640934D02*
X158406160Y-115275934D01*
X155866160Y-115275934D02*
X156501160Y-114640934D01*
X155866160Y-116545934D02*
X155866160Y-115275934D01*
X156501160Y-117180934D02*
X155866160Y-116545934D01*
X157771160Y-117180934D02*
X158406160Y-117815934D01*
X155866160Y-117815934D02*
X156501160Y-117180934D01*
X155866160Y-119085934D02*
X155866160Y-117815934D01*
X158406160Y-110195934D02*
X158406160Y-111465934D01*
X157771160Y-112100934D02*
X158406160Y-111465934D01*
X155866160Y-111465934D02*
X156501160Y-112100934D01*
X158406160Y-114005934D02*
X157771160Y-114640934D01*
X158406160Y-112735934D02*
X158406160Y-114005934D01*
X157771160Y-112100934D02*
X158406160Y-112735934D01*
X155866160Y-112735934D02*
X156501160Y-112100934D01*
X155866160Y-114005934D02*
X155866160Y-112735934D01*
X156501160Y-114640934D02*
X155866160Y-114005934D01*
X158406160Y-108925934D02*
X157771160Y-109560934D01*
X158406160Y-107655934D02*
X158406160Y-108925934D01*
X157771160Y-107020934D02*
X158406160Y-107655934D01*
X155866160Y-107655934D02*
X156501160Y-107020934D01*
X155866160Y-108925934D02*
X155866160Y-107655934D01*
X156501160Y-109560934D02*
X155866160Y-108925934D01*
X157771160Y-109560934D02*
X158406160Y-110195934D01*
X155866160Y-110195934D02*
X156501160Y-109560934D01*
X155866160Y-111465934D02*
X155866160Y-110195934D01*
X158406160Y-102575934D02*
X158406160Y-103845934D01*
X157771160Y-104480934D02*
X158406160Y-103845934D01*
X155866160Y-103845934D02*
X156501160Y-104480934D01*
X158406160Y-106385934D02*
X157771160Y-107020934D01*
X158406160Y-105115934D02*
X158406160Y-106385934D01*
X157771160Y-104480934D02*
X158406160Y-105115934D01*
X155866160Y-105115934D02*
X156501160Y-104480934D01*
X155866160Y-106385934D02*
X155866160Y-105115934D01*
X156501160Y-107020934D02*
X155866160Y-106385934D01*
X157771160Y-101940934D02*
X158406160Y-102575934D01*
X155866160Y-102575934D02*
X156501160Y-101940934D01*
X155866160Y-103845934D02*
X155866160Y-102575934D01*
D15*
G04 #@! TO.C,JP1*
X146112560Y-102194934D02*
X147839760Y-102194934D01*
X145858560Y-102448934D02*
X145858560Y-103972934D01*
X148093760Y-102448934D02*
X148093760Y-103972934D01*
X147839760Y-104226934D02*
X146112560Y-104226934D01*
X145858560Y-103972934D02*
G75*
G03X146112560Y-104226934I254000J0D01*
G01*
X147839760Y-104226934D02*
G75*
G03X148093760Y-103972934I0J254000D01*
G01*
X148093760Y-102448934D02*
G75*
G03X147839760Y-102194934I-254000J0D01*
G01*
X146112560Y-102194934D02*
G75*
G03X145858560Y-102448934I0J-254000D01*
G01*
D12*
G04 #@! TO.C,U2*
X144901160Y-95605934D02*
X143501160Y-95605934D01*
X144901160Y-100705934D02*
X149051160Y-100705934D01*
X144901160Y-95555934D02*
X149051160Y-95555934D01*
X144901160Y-100705934D02*
X144901160Y-100560934D01*
X149051160Y-100705934D02*
X149051160Y-100560934D01*
X149051160Y-95555934D02*
X149051160Y-95700934D01*
X144901160Y-95555934D02*
X144901160Y-95605934D01*
D13*
G04 #@! TO.C,U3*
X145366160Y-111200934D02*
X145366160Y-113650934D01*
X148586160Y-113000934D02*
X148586160Y-111200934D01*
G04 #@! TO.C,U1*
D12*
X157771255Y-65706314D02*
X157771255Y-66515838D01*
X157818874Y-66611076D01*
X157866493Y-66658695D01*
X157961731Y-66706314D01*
X158152207Y-66706314D01*
X158247445Y-66658695D01*
X158295064Y-66611076D01*
X158342683Y-66515838D01*
X158342683Y-65706314D01*
X159342683Y-66706314D02*
X158771255Y-66706314D01*
X159056969Y-66706314D02*
X159056969Y-65706314D01*
X158961731Y-65849172D01*
X158866493Y-65944410D01*
X158771255Y-65992029D01*
X153762731Y-82731362D02*
X153762731Y-82398029D01*
X154286540Y-82255172D02*
X154286540Y-82731362D01*
X153286540Y-82731362D01*
X153286540Y-82255172D01*
X154238921Y-81874219D02*
X154286540Y-81778981D01*
X154286540Y-81588505D01*
X154238921Y-81493267D01*
X154143683Y-81445648D01*
X154096064Y-81445648D01*
X154000826Y-81493267D01*
X153953207Y-81588505D01*
X153953207Y-81731362D01*
X153905588Y-81826600D01*
X153810350Y-81874219D01*
X153762731Y-81874219D01*
X153667493Y-81826600D01*
X153619874Y-81731362D01*
X153619874Y-81588505D01*
X153667493Y-81493267D01*
X153619874Y-81017076D02*
X154619874Y-81017076D01*
X153667493Y-81017076D02*
X153619874Y-80921838D01*
X153619874Y-80731362D01*
X153667493Y-80636124D01*
X153715112Y-80588505D01*
X153810350Y-80540886D01*
X154096064Y-80540886D01*
X154191302Y-80588505D01*
X154238921Y-80636124D01*
X154286540Y-80731362D01*
X154286540Y-80921838D01*
X154238921Y-81017076D01*
X154286540Y-80112314D02*
X153619874Y-80112314D01*
X153810350Y-80112314D02*
X153715112Y-80064695D01*
X153667493Y-80017076D01*
X153619874Y-79921838D01*
X153619874Y-79826600D01*
X154238921Y-79112314D02*
X154286540Y-79207553D01*
X154286540Y-79398029D01*
X154238921Y-79493267D01*
X154143683Y-79540886D01*
X153762731Y-79540886D01*
X153667493Y-79493267D01*
X153619874Y-79398029D01*
X153619874Y-79207553D01*
X153667493Y-79112314D01*
X153762731Y-79064695D01*
X153857969Y-79064695D01*
X153953207Y-79540886D01*
X154238921Y-78683743D02*
X154286540Y-78588505D01*
X154286540Y-78398029D01*
X154238921Y-78302791D01*
X154143683Y-78255172D01*
X154096064Y-78255172D01*
X154000826Y-78302791D01*
X153953207Y-78398029D01*
X153953207Y-78540886D01*
X153905588Y-78636124D01*
X153810350Y-78683743D01*
X153762731Y-78683743D01*
X153667493Y-78636124D01*
X153619874Y-78540886D01*
X153619874Y-78398029D01*
X153667493Y-78302791D01*
X154238921Y-77874219D02*
X154286540Y-77778981D01*
X154286540Y-77588505D01*
X154238921Y-77493267D01*
X154143683Y-77445648D01*
X154096064Y-77445648D01*
X154000826Y-77493267D01*
X153953207Y-77588505D01*
X153953207Y-77731362D01*
X153905588Y-77826600D01*
X153810350Y-77874219D01*
X153762731Y-77874219D01*
X153667493Y-77826600D01*
X153619874Y-77731362D01*
X153619874Y-77588505D01*
X153667493Y-77493267D01*
X154286540Y-77017076D02*
X153619874Y-77017076D01*
X153286540Y-77017076D02*
X153334160Y-77064695D01*
X153381779Y-77017076D01*
X153334160Y-76969457D01*
X153286540Y-77017076D01*
X153381779Y-77017076D01*
X153619874Y-76683743D02*
X153619874Y-76302791D01*
X154286540Y-76540886D02*
X153429398Y-76540886D01*
X153334160Y-76493267D01*
X153286540Y-76398029D01*
X153286540Y-76302791D01*
X154238921Y-75255172D02*
X154286540Y-75112314D01*
X154286540Y-74874219D01*
X154238921Y-74778981D01*
X154191302Y-74731362D01*
X154096064Y-74683743D01*
X154000826Y-74683743D01*
X153905588Y-74731362D01*
X153857969Y-74778981D01*
X153810350Y-74874219D01*
X153762731Y-75064695D01*
X153715112Y-75159934D01*
X153667493Y-75207553D01*
X153572255Y-75255172D01*
X153477017Y-75255172D01*
X153381779Y-75207553D01*
X153334160Y-75159934D01*
X153286540Y-75064695D01*
X153286540Y-74826600D01*
X153334160Y-74683743D01*
X153619874Y-74350410D02*
X154286540Y-74112314D01*
X153619874Y-73874219D02*
X154286540Y-74112314D01*
X154524636Y-74207553D01*
X154572255Y-74255172D01*
X154619874Y-74350410D01*
X154238921Y-73540886D02*
X154286540Y-73445648D01*
X154286540Y-73255172D01*
X154238921Y-73159934D01*
X154143683Y-73112314D01*
X154096064Y-73112314D01*
X154000826Y-73159934D01*
X153953207Y-73255172D01*
X153953207Y-73398029D01*
X153905588Y-73493267D01*
X153810350Y-73540886D01*
X153762731Y-73540886D01*
X153667493Y-73493267D01*
X153619874Y-73398029D01*
X153619874Y-73255172D01*
X153667493Y-73159934D01*
X153619874Y-72826600D02*
X153619874Y-72445648D01*
X153286540Y-72683743D02*
X154143683Y-72683743D01*
X154238921Y-72636124D01*
X154286540Y-72540886D01*
X154286540Y-72445648D01*
X154238921Y-71731362D02*
X154286540Y-71826600D01*
X154286540Y-72017076D01*
X154238921Y-72112314D01*
X154143683Y-72159934D01*
X153762731Y-72159934D01*
X153667493Y-72112314D01*
X153619874Y-72017076D01*
X153619874Y-71826600D01*
X153667493Y-71731362D01*
X153762731Y-71683743D01*
X153857969Y-71683743D01*
X153953207Y-72159934D01*
X154286540Y-71255172D02*
X153619874Y-71255172D01*
X153715112Y-71255172D02*
X153667493Y-71207553D01*
X153619874Y-71112314D01*
X153619874Y-70969457D01*
X153667493Y-70874219D01*
X153762731Y-70826600D01*
X154286540Y-70826600D01*
X153762731Y-70826600D02*
X153667493Y-70778981D01*
X153619874Y-70683743D01*
X153619874Y-70540886D01*
X153667493Y-70445648D01*
X153762731Y-70398029D01*
X154286540Y-70398029D01*
X154238921Y-69969457D02*
X154286540Y-69874219D01*
X154286540Y-69683743D01*
X154238921Y-69588505D01*
X154143683Y-69540886D01*
X154096064Y-69540886D01*
X154000826Y-69588505D01*
X153953207Y-69683743D01*
X153953207Y-69826600D01*
X153905588Y-69921838D01*
X153810350Y-69969457D01*
X153762731Y-69969457D01*
X153667493Y-69921838D01*
X153619874Y-69826600D01*
X153619874Y-69683743D01*
X153667493Y-69588505D01*
X152111731Y-80469314D02*
X152111731Y-80135981D01*
X152635540Y-79993124D02*
X152635540Y-80469314D01*
X151635540Y-80469314D01*
X151635540Y-79993124D01*
X152587921Y-79612172D02*
X152635540Y-79469314D01*
X152635540Y-79231219D01*
X152587921Y-79135981D01*
X152540302Y-79088362D01*
X152445064Y-79040743D01*
X152349826Y-79040743D01*
X152254588Y-79088362D01*
X152206969Y-79135981D01*
X152159350Y-79231219D01*
X152111731Y-79421695D01*
X152064112Y-79516934D01*
X152016493Y-79564553D01*
X151921255Y-79612172D01*
X151826017Y-79612172D01*
X151730779Y-79564553D01*
X151683160Y-79516934D01*
X151635540Y-79421695D01*
X151635540Y-79183600D01*
X151683160Y-79040743D01*
X152635540Y-78612172D02*
X151635540Y-78612172D01*
X151635540Y-78231219D01*
X151683160Y-78135981D01*
X151730779Y-78088362D01*
X151826017Y-78040743D01*
X151968874Y-78040743D01*
X152064112Y-78088362D01*
X152111731Y-78135981D01*
X152159350Y-78231219D01*
X152159350Y-78612172D01*
X151635540Y-77707410D02*
X151635540Y-77088362D01*
X152016493Y-77421695D01*
X152016493Y-77278838D01*
X152064112Y-77183600D01*
X152111731Y-77135981D01*
X152206969Y-77088362D01*
X152445064Y-77088362D01*
X152540302Y-77135981D01*
X152587921Y-77183600D01*
X152635540Y-77278838D01*
X152635540Y-77564553D01*
X152587921Y-77659791D01*
X152540302Y-77707410D01*
X151730779Y-76707410D02*
X151683160Y-76659791D01*
X151635540Y-76564553D01*
X151635540Y-76326457D01*
X151683160Y-76231219D01*
X151730779Y-76183600D01*
X151826017Y-76135981D01*
X151921255Y-76135981D01*
X152064112Y-76183600D01*
X152635540Y-76755029D01*
X152635540Y-76135981D01*
X152254588Y-75707410D02*
X152254588Y-74945505D01*
X151635540Y-74564553D02*
X152635540Y-74326457D01*
X151921255Y-74135981D01*
X152635540Y-73945505D01*
X151635540Y-73707410D01*
X152635540Y-72755029D02*
X152159350Y-73088362D01*
X152635540Y-73326457D02*
X151635540Y-73326457D01*
X151635540Y-72945505D01*
X151683160Y-72850267D01*
X151730779Y-72802648D01*
X151826017Y-72755029D01*
X151968874Y-72755029D01*
X152064112Y-72802648D01*
X152111731Y-72850267D01*
X152159350Y-72945505D01*
X152159350Y-73326457D01*
X151635540Y-72135981D02*
X151635540Y-71945505D01*
X151683160Y-71850267D01*
X151778398Y-71755029D01*
X151968874Y-71707410D01*
X152302207Y-71707410D01*
X152492683Y-71755029D01*
X152587921Y-71850267D01*
X152635540Y-71945505D01*
X152635540Y-72135981D01*
X152587921Y-72231219D01*
X152492683Y-72326457D01*
X152302207Y-72374076D01*
X151968874Y-72374076D01*
X151778398Y-72326457D01*
X151683160Y-72231219D01*
X151635540Y-72135981D01*
X151635540Y-71088362D02*
X151635540Y-70897886D01*
X151683160Y-70802648D01*
X151778398Y-70707410D01*
X151968874Y-70659791D01*
X152302207Y-70659791D01*
X152492683Y-70707410D01*
X152587921Y-70802648D01*
X152635540Y-70897886D01*
X152635540Y-71088362D01*
X152587921Y-71183600D01*
X152492683Y-71278838D01*
X152302207Y-71326457D01*
X151968874Y-71326457D01*
X151778398Y-71278838D01*
X151683160Y-71183600D01*
X151635540Y-71088362D01*
X152635540Y-70231219D02*
X151635540Y-70231219D01*
X152349826Y-69897886D01*
X151635540Y-69564553D01*
X152635540Y-69564553D01*
G04 #@! TO.C,C1*
X143160714Y-98177333D02*
X143198809Y-98215428D01*
X143236904Y-98329714D01*
X143236904Y-98405904D01*
X143198809Y-98520190D01*
X143122619Y-98596380D01*
X143046428Y-98634476D01*
X142894047Y-98672571D01*
X142779761Y-98672571D01*
X142627380Y-98634476D01*
X142551190Y-98596380D01*
X142475000Y-98520190D01*
X142436904Y-98405904D01*
X142436904Y-98329714D01*
X142475000Y-98215428D01*
X142513095Y-98177333D01*
X143236904Y-97415428D02*
X143236904Y-97872571D01*
X143236904Y-97644000D02*
X142436904Y-97644000D01*
X142551190Y-97720190D01*
X142627380Y-97796380D01*
X142665476Y-97872571D01*
G04 #@! TO.C,C2*
X151415714Y-98304333D02*
X151453809Y-98342428D01*
X151491904Y-98456714D01*
X151491904Y-98532904D01*
X151453809Y-98647190D01*
X151377619Y-98723380D01*
X151301428Y-98761476D01*
X151149047Y-98799571D01*
X151034761Y-98799571D01*
X150882380Y-98761476D01*
X150806190Y-98723380D01*
X150730000Y-98647190D01*
X150691904Y-98532904D01*
X150691904Y-98456714D01*
X150730000Y-98342428D01*
X150768095Y-98304333D01*
X150768095Y-97999571D02*
X150730000Y-97961476D01*
X150691904Y-97885285D01*
X150691904Y-97694809D01*
X150730000Y-97618619D01*
X150768095Y-97580523D01*
X150844285Y-97542428D01*
X150920476Y-97542428D01*
X151034761Y-97580523D01*
X151491904Y-98037666D01*
X151491904Y-97542428D01*
G04 #@! TO.C,D2*
X150995683Y-104822838D02*
X150995683Y-104022838D01*
X151186160Y-104022838D01*
X151300445Y-104060934D01*
X151376636Y-104137124D01*
X151414731Y-104213314D01*
X151452826Y-104365695D01*
X151452826Y-104479981D01*
X151414731Y-104632362D01*
X151376636Y-104708553D01*
X151300445Y-104784743D01*
X151186160Y-104822838D01*
X150995683Y-104822838D01*
X151757588Y-104099029D02*
X151795683Y-104060934D01*
X151871874Y-104022838D01*
X152062350Y-104022838D01*
X152138540Y-104060934D01*
X152176636Y-104099029D01*
X152214731Y-104175219D01*
X152214731Y-104251410D01*
X152176636Y-104365695D01*
X151719493Y-104822838D01*
X152214731Y-104822838D01*
G04 #@! TO.C,D3*
X142105683Y-104822838D02*
X142105683Y-104022838D01*
X142296160Y-104022838D01*
X142410445Y-104060934D01*
X142486636Y-104137124D01*
X142524731Y-104213314D01*
X142562826Y-104365695D01*
X142562826Y-104479981D01*
X142524731Y-104632362D01*
X142486636Y-104708553D01*
X142410445Y-104784743D01*
X142296160Y-104822838D01*
X142105683Y-104822838D01*
X142829493Y-104022838D02*
X143324731Y-104022838D01*
X143058064Y-104327600D01*
X143172350Y-104327600D01*
X143248540Y-104365695D01*
X143286636Y-104403791D01*
X143324731Y-104479981D01*
X143324731Y-104670457D01*
X143286636Y-104746648D01*
X143248540Y-104784743D01*
X143172350Y-104822838D01*
X142943779Y-104822838D01*
X142867588Y-104784743D01*
X142829493Y-104746648D01*
G04 #@! TO.C,J1*
D16*
X138387331Y-90714134D02*
X138822760Y-90714134D01*
X138909845Y-90743162D01*
X138967902Y-90801219D01*
X138996931Y-90888305D01*
X138996931Y-90946362D01*
X138996931Y-90104534D02*
X138996931Y-90452876D01*
X138996931Y-90278705D02*
X138387331Y-90278705D01*
X138474417Y-90336762D01*
X138532474Y-90394819D01*
X138561502Y-90452876D01*
X135128874Y-92789676D02*
X135157902Y-92818705D01*
X135186931Y-92905791D01*
X135186931Y-92963848D01*
X135157902Y-93050934D01*
X135099845Y-93108991D01*
X135041788Y-93138019D01*
X134925674Y-93167048D01*
X134838588Y-93167048D01*
X134722474Y-93138019D01*
X134664417Y-93108991D01*
X134606360Y-93050934D01*
X134577331Y-92963848D01*
X134577331Y-92905791D01*
X134606360Y-92818705D01*
X134635388Y-92789676D01*
X135186931Y-92441334D02*
X135157902Y-92499391D01*
X135128874Y-92528419D01*
X135070817Y-92557448D01*
X134896645Y-92557448D01*
X134838588Y-92528419D01*
X134809560Y-92499391D01*
X134780531Y-92441334D01*
X134780531Y-92354248D01*
X134809560Y-92296191D01*
X134838588Y-92267162D01*
X134896645Y-92238134D01*
X135070817Y-92238134D01*
X135128874Y-92267162D01*
X135157902Y-92296191D01*
X135186931Y-92354248D01*
X135186931Y-92441334D01*
X134780531Y-91976876D02*
X135186931Y-91976876D01*
X134838588Y-91976876D02*
X134809560Y-91947848D01*
X134780531Y-91889791D01*
X134780531Y-91802705D01*
X134809560Y-91744648D01*
X134867617Y-91715619D01*
X135186931Y-91715619D01*
X134780531Y-91425334D02*
X135186931Y-91425334D01*
X134838588Y-91425334D02*
X134809560Y-91396305D01*
X134780531Y-91338248D01*
X134780531Y-91251162D01*
X134809560Y-91193105D01*
X134867617Y-91164076D01*
X135186931Y-91164076D01*
X135244988Y-91018934D02*
X135244988Y-90554476D01*
X134577331Y-90293219D02*
X134577331Y-90235162D01*
X134606360Y-90177105D01*
X134635388Y-90148076D01*
X134693445Y-90119048D01*
X134809560Y-90090019D01*
X134954702Y-90090019D01*
X135070817Y-90119048D01*
X135128874Y-90148076D01*
X135157902Y-90177105D01*
X135186931Y-90235162D01*
X135186931Y-90293219D01*
X135157902Y-90351276D01*
X135128874Y-90380305D01*
X135070817Y-90409334D01*
X134954702Y-90438362D01*
X134809560Y-90438362D01*
X134693445Y-90409334D01*
X134635388Y-90380305D01*
X134606360Y-90351276D01*
X134577331Y-90293219D01*
X135186931Y-89509448D02*
X135186931Y-89857791D01*
X135186931Y-89683619D02*
X134577331Y-89683619D01*
X134664417Y-89741676D01*
X134722474Y-89799734D01*
X134751502Y-89857791D01*
X135186931Y-89306248D02*
X134780531Y-88986934D01*
X134780531Y-89306248D02*
X135186931Y-88986934D01*
X135186931Y-88435391D02*
X135186931Y-88783734D01*
X135186931Y-88609562D02*
X134577331Y-88609562D01*
X134664417Y-88667619D01*
X134722474Y-88725676D01*
X134751502Y-88783734D01*
X134635388Y-88203162D02*
X134606360Y-88174134D01*
X134577331Y-88116076D01*
X134577331Y-87970934D01*
X134606360Y-87912876D01*
X134635388Y-87883848D01*
X134693445Y-87854819D01*
X134751502Y-87854819D01*
X134838588Y-87883848D01*
X135186931Y-88232191D01*
X135186931Y-87854819D01*
G04 #@! TO.C,J2*
X154897331Y-118654134D02*
X155332760Y-118654134D01*
X155419845Y-118683162D01*
X155477902Y-118741219D01*
X155506931Y-118828305D01*
X155506931Y-118886362D01*
X154955388Y-118392876D02*
X154926360Y-118363848D01*
X154897331Y-118305791D01*
X154897331Y-118160648D01*
X154926360Y-118102591D01*
X154955388Y-118073562D01*
X155013445Y-118044534D01*
X155071502Y-118044534D01*
X155158588Y-118073562D01*
X155506931Y-118421905D01*
X155506931Y-118044534D01*
X159258874Y-120729676D02*
X159287902Y-120758705D01*
X159316931Y-120845791D01*
X159316931Y-120903848D01*
X159287902Y-120990934D01*
X159229845Y-121048991D01*
X159171788Y-121078019D01*
X159055674Y-121107048D01*
X158968588Y-121107048D01*
X158852474Y-121078019D01*
X158794417Y-121048991D01*
X158736360Y-120990934D01*
X158707331Y-120903848D01*
X158707331Y-120845791D01*
X158736360Y-120758705D01*
X158765388Y-120729676D01*
X159316931Y-120381334D02*
X159287902Y-120439391D01*
X159258874Y-120468419D01*
X159200817Y-120497448D01*
X159026645Y-120497448D01*
X158968588Y-120468419D01*
X158939560Y-120439391D01*
X158910531Y-120381334D01*
X158910531Y-120294248D01*
X158939560Y-120236191D01*
X158968588Y-120207162D01*
X159026645Y-120178134D01*
X159200817Y-120178134D01*
X159258874Y-120207162D01*
X159287902Y-120236191D01*
X159316931Y-120294248D01*
X159316931Y-120381334D01*
X158910531Y-119916876D02*
X159316931Y-119916876D01*
X158968588Y-119916876D02*
X158939560Y-119887848D01*
X158910531Y-119829791D01*
X158910531Y-119742705D01*
X158939560Y-119684648D01*
X158997617Y-119655619D01*
X159316931Y-119655619D01*
X158910531Y-119365334D02*
X159316931Y-119365334D01*
X158968588Y-119365334D02*
X158939560Y-119336305D01*
X158910531Y-119278248D01*
X158910531Y-119191162D01*
X158939560Y-119133105D01*
X158997617Y-119104076D01*
X159316931Y-119104076D01*
X159374988Y-118958934D02*
X159374988Y-118494476D01*
X158707331Y-118233219D02*
X158707331Y-118175162D01*
X158736360Y-118117105D01*
X158765388Y-118088076D01*
X158823445Y-118059048D01*
X158939560Y-118030019D01*
X159084702Y-118030019D01*
X159200817Y-118059048D01*
X159258874Y-118088076D01*
X159287902Y-118117105D01*
X159316931Y-118175162D01*
X159316931Y-118233219D01*
X159287902Y-118291276D01*
X159258874Y-118320305D01*
X159200817Y-118349334D01*
X159084702Y-118378362D01*
X158939560Y-118378362D01*
X158823445Y-118349334D01*
X158765388Y-118320305D01*
X158736360Y-118291276D01*
X158707331Y-118233219D01*
X159316931Y-117449448D02*
X159316931Y-117797791D01*
X159316931Y-117623619D02*
X158707331Y-117623619D01*
X158794417Y-117681676D01*
X158852474Y-117739734D01*
X158881502Y-117797791D01*
X159316931Y-117246248D02*
X158910531Y-116926934D01*
X158910531Y-117246248D02*
X159316931Y-116926934D01*
X159316931Y-116375391D02*
X159316931Y-116723734D01*
X159316931Y-116549562D02*
X158707331Y-116549562D01*
X158794417Y-116607619D01*
X158852474Y-116665676D01*
X158881502Y-116723734D01*
X158765388Y-116143162D02*
X158736360Y-116114134D01*
X158707331Y-116056076D01*
X158707331Y-115910934D01*
X158736360Y-115852876D01*
X158765388Y-115823848D01*
X158823445Y-115794819D01*
X158881502Y-115794819D01*
X158968588Y-115823848D01*
X159316931Y-116172191D01*
X159316931Y-115794819D01*
G04 #@! TO.C,JP1*
X146468160Y-104401105D02*
X146468160Y-104836534D01*
X146439131Y-104923619D01*
X146381074Y-104981676D01*
X146293988Y-105010705D01*
X146235931Y-105010705D01*
X146758445Y-105010705D02*
X146758445Y-104401105D01*
X146990674Y-104401105D01*
X147048731Y-104430134D01*
X147077760Y-104459162D01*
X147106788Y-104517219D01*
X147106788Y-104604305D01*
X147077760Y-104662362D01*
X147048731Y-104691391D01*
X146990674Y-104720419D01*
X146758445Y-104720419D01*
X147687360Y-105010705D02*
X147339017Y-105010705D01*
X147513188Y-105010705D02*
X147513188Y-104401105D01*
X147455131Y-104488191D01*
X147397074Y-104546248D01*
X147339017Y-104575276D01*
X143695931Y-101516391D02*
X143783017Y-101545419D01*
X143812045Y-101574448D01*
X143841074Y-101632505D01*
X143841074Y-101719591D01*
X143812045Y-101777648D01*
X143783017Y-101806676D01*
X143724960Y-101835705D01*
X143492731Y-101835705D01*
X143492731Y-101226105D01*
X143695931Y-101226105D01*
X143753988Y-101255134D01*
X143783017Y-101284162D01*
X143812045Y-101342219D01*
X143812045Y-101400276D01*
X143783017Y-101458334D01*
X143753988Y-101487362D01*
X143695931Y-101516391D01*
X143492731Y-101516391D01*
X144102331Y-101835705D02*
X144102331Y-101429305D01*
X144102331Y-101545419D02*
X144131360Y-101487362D01*
X144160388Y-101458334D01*
X144218445Y-101429305D01*
X144276502Y-101429305D01*
X144479702Y-101835705D02*
X144479702Y-101429305D01*
X144479702Y-101226105D02*
X144450674Y-101255134D01*
X144479702Y-101284162D01*
X144508731Y-101255134D01*
X144479702Y-101226105D01*
X144479702Y-101284162D01*
X145031245Y-101835705D02*
X145031245Y-101226105D01*
X145031245Y-101806676D02*
X144973188Y-101835705D01*
X144857074Y-101835705D01*
X144799017Y-101806676D01*
X144769988Y-101777648D01*
X144740960Y-101719591D01*
X144740960Y-101545419D01*
X144769988Y-101487362D01*
X144799017Y-101458334D01*
X144857074Y-101429305D01*
X144973188Y-101429305D01*
X145031245Y-101458334D01*
X145582788Y-101429305D02*
X145582788Y-101922791D01*
X145553760Y-101980848D01*
X145524731Y-102009876D01*
X145466674Y-102038905D01*
X145379588Y-102038905D01*
X145321531Y-102009876D01*
X145582788Y-101806676D02*
X145524731Y-101835705D01*
X145408617Y-101835705D01*
X145350560Y-101806676D01*
X145321531Y-101777648D01*
X145292502Y-101719591D01*
X145292502Y-101545419D01*
X145321531Y-101487362D01*
X145350560Y-101458334D01*
X145408617Y-101429305D01*
X145524731Y-101429305D01*
X145582788Y-101458334D01*
X146105302Y-101806676D02*
X146047245Y-101835705D01*
X145931131Y-101835705D01*
X145873074Y-101806676D01*
X145844045Y-101748619D01*
X145844045Y-101516391D01*
X145873074Y-101458334D01*
X145931131Y-101429305D01*
X146047245Y-101429305D01*
X146105302Y-101458334D01*
X146134331Y-101516391D01*
X146134331Y-101574448D01*
X145844045Y-101632505D01*
X146860045Y-101835705D02*
X146860045Y-101429305D01*
X146860045Y-101226105D02*
X146831017Y-101255134D01*
X146860045Y-101284162D01*
X146889074Y-101255134D01*
X146860045Y-101226105D01*
X146860045Y-101284162D01*
X147063245Y-101429305D02*
X147295474Y-101429305D01*
X147150331Y-101835705D02*
X147150331Y-101313191D01*
X147179360Y-101255134D01*
X147237417Y-101226105D01*
X147295474Y-101226105D01*
X147963131Y-101429305D02*
X147963131Y-101835705D01*
X147963131Y-101487362D02*
X147992160Y-101458334D01*
X148050217Y-101429305D01*
X148137302Y-101429305D01*
X148195360Y-101458334D01*
X148224388Y-101516391D01*
X148224388Y-101835705D01*
X148601760Y-101835705D02*
X148543702Y-101806676D01*
X148514674Y-101777648D01*
X148485645Y-101719591D01*
X148485645Y-101545419D01*
X148514674Y-101487362D01*
X148543702Y-101458334D01*
X148601760Y-101429305D01*
X148688845Y-101429305D01*
X148746902Y-101458334D01*
X148775931Y-101487362D01*
X148804960Y-101545419D01*
X148804960Y-101719591D01*
X148775931Y-101777648D01*
X148746902Y-101806676D01*
X148688845Y-101835705D01*
X148601760Y-101835705D01*
X149530674Y-101226105D02*
X149530674Y-101719591D01*
X149559702Y-101777648D01*
X149588731Y-101806676D01*
X149646788Y-101835705D01*
X149762902Y-101835705D01*
X149820960Y-101806676D01*
X149849988Y-101777648D01*
X149879017Y-101719591D01*
X149879017Y-101226105D01*
X150111245Y-101226105D02*
X150488617Y-101226105D01*
X150285417Y-101458334D01*
X150372502Y-101458334D01*
X150430560Y-101487362D01*
X150459588Y-101516391D01*
X150488617Y-101574448D01*
X150488617Y-101719591D01*
X150459588Y-101777648D01*
X150430560Y-101806676D01*
X150372502Y-101835705D01*
X150198331Y-101835705D01*
X150140274Y-101806676D01*
X150111245Y-101777648D01*
G04 #@! TO.C,R1*
X146964400Y-106066771D02*
X146761200Y-105776485D01*
X146616057Y-106066771D02*
X146616057Y-105457171D01*
X146848285Y-105457171D01*
X146906342Y-105486200D01*
X146935371Y-105515228D01*
X146964400Y-105573285D01*
X146964400Y-105660371D01*
X146935371Y-105718428D01*
X146906342Y-105747457D01*
X146848285Y-105776485D01*
X146616057Y-105776485D01*
X147544971Y-106066771D02*
X147196628Y-106066771D01*
X147370800Y-106066771D02*
X147370800Y-105457171D01*
X147312742Y-105544257D01*
X147254685Y-105602314D01*
X147196628Y-105631342D01*
X145222685Y-108479771D02*
X144874342Y-108479771D01*
X145048514Y-108479771D02*
X145048514Y-107870171D01*
X144990457Y-107957257D01*
X144932400Y-108015314D01*
X144874342Y-108044342D01*
X145600057Y-107870171D02*
X145658114Y-107870171D01*
X145716171Y-107899200D01*
X145745200Y-107928228D01*
X145774228Y-107986285D01*
X145803257Y-108102400D01*
X145803257Y-108247542D01*
X145774228Y-108363657D01*
X145745200Y-108421714D01*
X145716171Y-108450742D01*
X145658114Y-108479771D01*
X145600057Y-108479771D01*
X145542000Y-108450742D01*
X145512971Y-108421714D01*
X145483942Y-108363657D01*
X145454914Y-108247542D01*
X145454914Y-108102400D01*
X145483942Y-107986285D01*
X145512971Y-107928228D01*
X145542000Y-107899200D01*
X145600057Y-107870171D01*
X146180628Y-107870171D02*
X146238685Y-107870171D01*
X146296742Y-107899200D01*
X146325771Y-107928228D01*
X146354800Y-107986285D01*
X146383828Y-108102400D01*
X146383828Y-108247542D01*
X146354800Y-108363657D01*
X146325771Y-108421714D01*
X146296742Y-108450742D01*
X146238685Y-108479771D01*
X146180628Y-108479771D01*
X146122571Y-108450742D01*
X146093542Y-108421714D01*
X146064514Y-108363657D01*
X146035485Y-108247542D01*
X146035485Y-108102400D01*
X146064514Y-107986285D01*
X146093542Y-107928228D01*
X146122571Y-107899200D01*
X146180628Y-107870171D01*
X147196628Y-108479771D02*
X147138571Y-108450742D01*
X147109542Y-108421714D01*
X147080514Y-108363657D01*
X147080514Y-108189485D01*
X147109542Y-108131428D01*
X147138571Y-108102400D01*
X147196628Y-108073371D01*
X147283714Y-108073371D01*
X147341771Y-108102400D01*
X147370800Y-108131428D01*
X147399828Y-108189485D01*
X147399828Y-108363657D01*
X147370800Y-108421714D01*
X147341771Y-108450742D01*
X147283714Y-108479771D01*
X147196628Y-108479771D01*
X147661085Y-108479771D02*
X147661085Y-107870171D01*
X147922342Y-108479771D02*
X147922342Y-108160457D01*
X147893314Y-108102400D01*
X147835257Y-108073371D01*
X147748171Y-108073371D01*
X147690114Y-108102400D01*
X147661085Y-108131428D01*
X148212628Y-108479771D02*
X148212628Y-108073371D01*
X148212628Y-108131428D02*
X148241657Y-108102400D01*
X148299714Y-108073371D01*
X148386800Y-108073371D01*
X148444857Y-108102400D01*
X148473885Y-108160457D01*
X148473885Y-108479771D01*
X148473885Y-108160457D02*
X148502914Y-108102400D01*
X148560971Y-108073371D01*
X148648057Y-108073371D01*
X148706114Y-108102400D01*
X148735142Y-108160457D01*
X148735142Y-108479771D01*
X148996400Y-108450742D02*
X149054457Y-108479771D01*
X149170571Y-108479771D01*
X149228628Y-108450742D01*
X149257657Y-108392685D01*
X149257657Y-108363657D01*
X149228628Y-108305600D01*
X149170571Y-108276571D01*
X149083485Y-108276571D01*
X149025428Y-108247542D01*
X148996400Y-108189485D01*
X148996400Y-108160457D01*
X149025428Y-108102400D01*
X149083485Y-108073371D01*
X149170571Y-108073371D01*
X149228628Y-108102400D01*
G04 #@! TO.C,R2*
X142693720Y-92056705D02*
X142490520Y-91766419D01*
X142345377Y-92056705D02*
X142345377Y-91447105D01*
X142577605Y-91447105D01*
X142635662Y-91476134D01*
X142664691Y-91505162D01*
X142693720Y-91563219D01*
X142693720Y-91650305D01*
X142664691Y-91708362D01*
X142635662Y-91737391D01*
X142577605Y-91766419D01*
X142345377Y-91766419D01*
X142925948Y-91505162D02*
X142954977Y-91476134D01*
X143013034Y-91447105D01*
X143158177Y-91447105D01*
X143216234Y-91476134D01*
X143245262Y-91505162D01*
X143274291Y-91563219D01*
X143274291Y-91621276D01*
X143245262Y-91708362D01*
X142896920Y-92056705D01*
X143274291Y-92056705D01*
X139921491Y-94045162D02*
X139950520Y-94016134D01*
X140008577Y-93987105D01*
X140153720Y-93987105D01*
X140211777Y-94016134D01*
X140240805Y-94045162D01*
X140269834Y-94103219D01*
X140269834Y-94161276D01*
X140240805Y-94248362D01*
X139892462Y-94596705D01*
X140269834Y-94596705D01*
X140531091Y-94538648D02*
X140560120Y-94567676D01*
X140531091Y-94596705D01*
X140502062Y-94567676D01*
X140531091Y-94538648D01*
X140531091Y-94596705D01*
X141082634Y-94190305D02*
X141082634Y-94596705D01*
X140937491Y-93958076D02*
X140792348Y-94393505D01*
X141169720Y-94393505D01*
X141663205Y-93987105D02*
X141547091Y-93987105D01*
X141489034Y-94016134D01*
X141460005Y-94045162D01*
X141401948Y-94132248D01*
X141372920Y-94248362D01*
X141372920Y-94480591D01*
X141401948Y-94538648D01*
X141430977Y-94567676D01*
X141489034Y-94596705D01*
X141605148Y-94596705D01*
X141663205Y-94567676D01*
X141692234Y-94538648D01*
X141721262Y-94480591D01*
X141721262Y-94335448D01*
X141692234Y-94277391D01*
X141663205Y-94248362D01*
X141605148Y-94219334D01*
X141489034Y-94219334D01*
X141430977Y-94248362D01*
X141401948Y-94277391D01*
X141372920Y-94335448D01*
X141924462Y-93987105D02*
X142301834Y-93987105D01*
X142098634Y-94219334D01*
X142185720Y-94219334D01*
X142243777Y-94248362D01*
X142272805Y-94277391D01*
X142301834Y-94335448D01*
X142301834Y-94480591D01*
X142272805Y-94538648D01*
X142243777Y-94567676D01*
X142185720Y-94596705D01*
X142011548Y-94596705D01*
X141953491Y-94567676D01*
X141924462Y-94538648D01*
X142563091Y-94596705D02*
X142563091Y-93987105D01*
X142621148Y-94364476D02*
X142795320Y-94596705D01*
X142795320Y-94190305D02*
X142563091Y-94422534D01*
X143608120Y-94596705D02*
X143550062Y-94567676D01*
X143521034Y-94538648D01*
X143492005Y-94480591D01*
X143492005Y-94306419D01*
X143521034Y-94248362D01*
X143550062Y-94219334D01*
X143608120Y-94190305D01*
X143695205Y-94190305D01*
X143753262Y-94219334D01*
X143782291Y-94248362D01*
X143811320Y-94306419D01*
X143811320Y-94480591D01*
X143782291Y-94538648D01*
X143753262Y-94567676D01*
X143695205Y-94596705D01*
X143608120Y-94596705D01*
X144072577Y-94596705D02*
X144072577Y-93987105D01*
X144333834Y-94596705D02*
X144333834Y-94277391D01*
X144304805Y-94219334D01*
X144246748Y-94190305D01*
X144159662Y-94190305D01*
X144101605Y-94219334D01*
X144072577Y-94248362D01*
X144624120Y-94596705D02*
X144624120Y-94190305D01*
X144624120Y-94248362D02*
X144653148Y-94219334D01*
X144711205Y-94190305D01*
X144798291Y-94190305D01*
X144856348Y-94219334D01*
X144885377Y-94277391D01*
X144885377Y-94596705D01*
X144885377Y-94277391D02*
X144914405Y-94219334D01*
X144972462Y-94190305D01*
X145059548Y-94190305D01*
X145117605Y-94219334D01*
X145146634Y-94277391D01*
X145146634Y-94596705D01*
X145407891Y-94567676D02*
X145465948Y-94596705D01*
X145582062Y-94596705D01*
X145640120Y-94567676D01*
X145669148Y-94509619D01*
X145669148Y-94480591D01*
X145640120Y-94422534D01*
X145582062Y-94393505D01*
X145494977Y-94393505D01*
X145436920Y-94364476D01*
X145407891Y-94306419D01*
X145407891Y-94277391D01*
X145436920Y-94219334D01*
X145494977Y-94190305D01*
X145582062Y-94190305D01*
X145640120Y-94219334D01*
G04 #@! TO.C,R3*
X150647400Y-92096771D02*
X150444200Y-91806485D01*
X150299057Y-92096771D02*
X150299057Y-91487171D01*
X150531285Y-91487171D01*
X150589342Y-91516200D01*
X150618371Y-91545228D01*
X150647400Y-91603285D01*
X150647400Y-91690371D01*
X150618371Y-91748428D01*
X150589342Y-91777457D01*
X150531285Y-91806485D01*
X150299057Y-91806485D01*
X150850600Y-91487171D02*
X151227971Y-91487171D01*
X151024771Y-91719400D01*
X151111857Y-91719400D01*
X151169914Y-91748428D01*
X151198942Y-91777457D01*
X151227971Y-91835514D01*
X151227971Y-91980657D01*
X151198942Y-92038714D01*
X151169914Y-92067742D01*
X151111857Y-92096771D01*
X150937685Y-92096771D01*
X150879628Y-92067742D01*
X150850600Y-92038714D01*
X149889028Y-94027171D02*
X149947085Y-94027171D01*
X150005142Y-94056200D01*
X150034171Y-94085228D01*
X150063200Y-94143285D01*
X150092228Y-94259400D01*
X150092228Y-94404542D01*
X150063200Y-94520657D01*
X150034171Y-94578714D01*
X150005142Y-94607742D01*
X149947085Y-94636771D01*
X149889028Y-94636771D01*
X149830971Y-94607742D01*
X149801942Y-94578714D01*
X149772914Y-94520657D01*
X149743885Y-94404542D01*
X149743885Y-94259400D01*
X149772914Y-94143285D01*
X149801942Y-94085228D01*
X149830971Y-94056200D01*
X149889028Y-94027171D01*
X150440571Y-94636771D02*
X150382514Y-94607742D01*
X150353485Y-94578714D01*
X150324457Y-94520657D01*
X150324457Y-94346485D01*
X150353485Y-94288428D01*
X150382514Y-94259400D01*
X150440571Y-94230371D01*
X150527657Y-94230371D01*
X150585714Y-94259400D01*
X150614742Y-94288428D01*
X150643771Y-94346485D01*
X150643771Y-94520657D01*
X150614742Y-94578714D01*
X150585714Y-94607742D01*
X150527657Y-94636771D01*
X150440571Y-94636771D01*
X150905028Y-94636771D02*
X150905028Y-94027171D01*
X151166285Y-94636771D02*
X151166285Y-94317457D01*
X151137257Y-94259400D01*
X151079200Y-94230371D01*
X150992114Y-94230371D01*
X150934057Y-94259400D01*
X150905028Y-94288428D01*
X151456571Y-94636771D02*
X151456571Y-94230371D01*
X151456571Y-94288428D02*
X151485600Y-94259400D01*
X151543657Y-94230371D01*
X151630742Y-94230371D01*
X151688800Y-94259400D01*
X151717828Y-94317457D01*
X151717828Y-94636771D01*
X151717828Y-94317457D02*
X151746857Y-94259400D01*
X151804914Y-94230371D01*
X151892000Y-94230371D01*
X151950057Y-94259400D01*
X151979085Y-94317457D01*
X151979085Y-94636771D01*
G04 #@! TO.C,U2*
D12*
X146214255Y-94083314D02*
X146214255Y-94892838D01*
X146261874Y-94988076D01*
X146309493Y-95035695D01*
X146404731Y-95083314D01*
X146595207Y-95083314D01*
X146690445Y-95035695D01*
X146738064Y-94988076D01*
X146785683Y-94892838D01*
X146785683Y-94083314D01*
X147214255Y-94178553D02*
X147261874Y-94130934D01*
X147357112Y-94083314D01*
X147595207Y-94083314D01*
X147690445Y-94130934D01*
X147738064Y-94178553D01*
X147785683Y-94273791D01*
X147785683Y-94369029D01*
X147738064Y-94511886D01*
X147166636Y-95083314D01*
X147785683Y-95083314D01*
G04 #@! TO.C,U3*
X147193095Y-114260380D02*
X147193095Y-115069904D01*
X147240714Y-115165142D01*
X147288333Y-115212761D01*
X147383571Y-115260380D01*
X147574047Y-115260380D01*
X147669285Y-115212761D01*
X147716904Y-115165142D01*
X147764523Y-115069904D01*
X147764523Y-114260380D01*
X148145476Y-114260380D02*
X148764523Y-114260380D01*
X148431190Y-114641333D01*
X148574047Y-114641333D01*
X148669285Y-114688952D01*
X148716904Y-114736571D01*
X148764523Y-114831809D01*
X148764523Y-115069904D01*
X148716904Y-115165142D01*
X148669285Y-115212761D01*
X148574047Y-115260380D01*
X148288333Y-115260380D01*
X148193095Y-115212761D01*
X148145476Y-115165142D01*
G04 #@! TD*
M02*
