G04 #@! TF.GenerationSoftware,KiCad,Pcbnew,(5.0.2)-1*
G04 #@! TF.CreationDate,2019-10-09T02:29:05+02:00*
G04 #@! TF.ProjectId,esp32-lifepo4,65737033-322d-46c6-9966-65706f342e6b,rev?*
G04 #@! TF.SameCoordinates,Original*
G04 #@! TF.FileFunction,Legend,Top*
G04 #@! TF.FilePolarity,Positive*
%FSLAX46Y46*%
G04 Gerber Fmt 4.6, Leading zero omitted, Abs format (unit mm)*
G04 Created by KiCad (PCBNEW (5.0.2)-1) date 09/10/2019 02:29:05*
%MOMM*%
%LPD*%
G01*
G04 APERTURE LIST*
%ADD10C,0.120000*%
%ADD11C,0.203200*%
%ADD12C,0.152400*%
%ADD13C,0.500000*%
%ADD14C,0.150000*%
%ADD15C,0.127000*%
G04 APERTURE END LIST*
D10*
G04 #@! TO.C,C1*
X151042000Y-96274000D02*
X151042000Y-97274000D01*
X152742000Y-97274000D02*
X152742000Y-96274000D01*
G04 #@! TO.C,C2*
X163918000Y-97274000D02*
X163918000Y-96274000D01*
X162218000Y-96274000D02*
X162218000Y-97274000D01*
G04 #@! TO.C,D1*
X147448000Y-98396000D02*
X147448000Y-92996000D01*
X150748000Y-98396000D02*
X150748000Y-92996000D01*
X147448000Y-98396000D02*
X150748000Y-98396000D01*
G04 #@! TO.C,D2*
X161028000Y-97506000D02*
X161028000Y-99606000D01*
X160028000Y-97506000D02*
X160028000Y-99606000D01*
X161028000Y-97506000D02*
X160028000Y-97506000D01*
G04 #@! TO.C,D3*
X154932000Y-97506000D02*
X153932000Y-97506000D01*
X153932000Y-97506000D02*
X153932000Y-99606000D01*
X154932000Y-97506000D02*
X154932000Y-99606000D01*
D11*
G04 #@! TO.C,J1*
X146050000Y-85725000D02*
X146050000Y-86995000D01*
X146050000Y-86995000D02*
X145415000Y-87630000D01*
X144145000Y-87630000D02*
X143510000Y-86995000D01*
X145415000Y-82550000D02*
X146050000Y-83185000D01*
X146050000Y-83185000D02*
X146050000Y-84455000D01*
X146050000Y-84455000D02*
X145415000Y-85090000D01*
X144145000Y-85090000D02*
X143510000Y-84455000D01*
X143510000Y-84455000D02*
X143510000Y-83185000D01*
X143510000Y-83185000D02*
X144145000Y-82550000D01*
X146050000Y-85725000D02*
X145415000Y-85090000D01*
X144145000Y-85090000D02*
X143510000Y-85725000D01*
X143510000Y-86995000D02*
X143510000Y-85725000D01*
X146050000Y-78105000D02*
X146050000Y-79375000D01*
X146050000Y-79375000D02*
X145415000Y-80010000D01*
X144145000Y-80010000D02*
X143510000Y-79375000D01*
X145415000Y-80010000D02*
X146050000Y-80645000D01*
X146050000Y-80645000D02*
X146050000Y-81915000D01*
X146050000Y-81915000D02*
X145415000Y-82550000D01*
X144145000Y-82550000D02*
X143510000Y-81915000D01*
X143510000Y-81915000D02*
X143510000Y-80645000D01*
X143510000Y-80645000D02*
X144145000Y-80010000D01*
X145415000Y-74930000D02*
X146050000Y-75565000D01*
X146050000Y-75565000D02*
X146050000Y-76835000D01*
X146050000Y-76835000D02*
X145415000Y-77470000D01*
X144145000Y-77470000D02*
X143510000Y-76835000D01*
X143510000Y-76835000D02*
X143510000Y-75565000D01*
X143510000Y-75565000D02*
X144145000Y-74930000D01*
X146050000Y-78105000D02*
X145415000Y-77470000D01*
X144145000Y-77470000D02*
X143510000Y-78105000D01*
X143510000Y-79375000D02*
X143510000Y-78105000D01*
X146050000Y-70485000D02*
X146050000Y-71755000D01*
X146050000Y-71755000D02*
X145415000Y-72390000D01*
X144145000Y-72390000D02*
X143510000Y-71755000D01*
X145415000Y-72390000D02*
X146050000Y-73025000D01*
X146050000Y-73025000D02*
X146050000Y-74295000D01*
X146050000Y-74295000D02*
X145415000Y-74930000D01*
X144145000Y-74930000D02*
X143510000Y-74295000D01*
X143510000Y-74295000D02*
X143510000Y-73025000D01*
X143510000Y-73025000D02*
X144145000Y-72390000D01*
X145415000Y-69850000D02*
X144145000Y-69850000D01*
X146050000Y-70485000D02*
X145415000Y-69850000D01*
X144145000Y-69850000D02*
X143510000Y-70485000D01*
X143510000Y-71755000D02*
X143510000Y-70485000D01*
X146050000Y-88265000D02*
X146050000Y-89535000D01*
X146050000Y-89535000D02*
X145415000Y-90170000D01*
X144145000Y-90170000D02*
X143510000Y-89535000D01*
X146050000Y-88265000D02*
X145415000Y-87630000D01*
X144145000Y-87630000D02*
X143510000Y-88265000D01*
X143510000Y-89535000D02*
X143510000Y-88265000D01*
X146050000Y-90805000D02*
X146050000Y-92075000D01*
X146050000Y-92075000D02*
X145415000Y-92710000D01*
X144145000Y-92710000D02*
X143510000Y-92075000D01*
X146050000Y-90805000D02*
X145415000Y-90170000D01*
X144145000Y-90170000D02*
X143510000Y-90805000D01*
X143510000Y-92075000D02*
X143510000Y-90805000D01*
X146050000Y-93345000D02*
X146050000Y-94615000D01*
X146050000Y-94615000D02*
X145415000Y-95250000D01*
X144145000Y-95250000D02*
X143510000Y-94615000D01*
X146050000Y-93345000D02*
X145415000Y-92710000D01*
X144145000Y-92710000D02*
X143510000Y-93345000D01*
X143510000Y-94615000D02*
X143510000Y-93345000D01*
X146050000Y-95885000D02*
X146050000Y-97155000D01*
X146050000Y-97155000D02*
X145415000Y-97790000D01*
X144145000Y-97790000D02*
X143510000Y-97155000D01*
X146050000Y-95885000D02*
X145415000Y-95250000D01*
X144145000Y-95250000D02*
X143510000Y-95885000D01*
X143510000Y-97155000D02*
X143510000Y-95885000D01*
X146050000Y-98425000D02*
X146050000Y-99695000D01*
X146050000Y-99695000D02*
X145415000Y-100330000D01*
X145415000Y-100330000D02*
X144145000Y-100330000D01*
X144145000Y-100330000D02*
X143510000Y-99695000D01*
X146050000Y-98425000D02*
X145415000Y-97790000D01*
X144145000Y-97790000D02*
X143510000Y-98425000D01*
X143510000Y-99695000D02*
X143510000Y-98425000D01*
G04 #@! TO.C,J2*
X171450000Y-70485000D02*
X171450000Y-71755000D01*
X170815000Y-72390000D02*
X171450000Y-71755000D01*
X168910000Y-71755000D02*
X169545000Y-72390000D01*
X170815000Y-69850000D02*
X171450000Y-70485000D01*
X169545000Y-69850000D02*
X170815000Y-69850000D01*
X168910000Y-70485000D02*
X169545000Y-69850000D01*
X168910000Y-71755000D02*
X168910000Y-70485000D01*
X171450000Y-73025000D02*
X171450000Y-74295000D01*
X170815000Y-74930000D02*
X171450000Y-74295000D01*
X168910000Y-74295000D02*
X169545000Y-74930000D01*
X170815000Y-72390000D02*
X171450000Y-73025000D01*
X168910000Y-73025000D02*
X169545000Y-72390000D01*
X168910000Y-74295000D02*
X168910000Y-73025000D01*
X171450000Y-75565000D02*
X171450000Y-76835000D01*
X170815000Y-77470000D02*
X171450000Y-76835000D01*
X168910000Y-76835000D02*
X169545000Y-77470000D01*
X170815000Y-74930000D02*
X171450000Y-75565000D01*
X168910000Y-75565000D02*
X169545000Y-74930000D01*
X168910000Y-76835000D02*
X168910000Y-75565000D01*
X171450000Y-78105000D02*
X171450000Y-79375000D01*
X170815000Y-80010000D02*
X171450000Y-79375000D01*
X168910000Y-79375000D02*
X169545000Y-80010000D01*
X170815000Y-77470000D02*
X171450000Y-78105000D01*
X168910000Y-78105000D02*
X169545000Y-77470000D01*
X168910000Y-79375000D02*
X168910000Y-78105000D01*
X171450000Y-80645000D02*
X171450000Y-81915000D01*
X170815000Y-82550000D02*
X171450000Y-81915000D01*
X168910000Y-81915000D02*
X169545000Y-82550000D01*
X170815000Y-80010000D02*
X171450000Y-80645000D01*
X168910000Y-80645000D02*
X169545000Y-80010000D01*
X168910000Y-81915000D02*
X168910000Y-80645000D01*
X171450000Y-98425000D02*
X171450000Y-99695000D01*
X170815000Y-100330000D02*
X171450000Y-99695000D01*
X168910000Y-99695000D02*
X169545000Y-100330000D01*
X169545000Y-100330000D02*
X170815000Y-100330000D01*
X171450000Y-97155000D02*
X170815000Y-97790000D01*
X171450000Y-95885000D02*
X171450000Y-97155000D01*
X170815000Y-95250000D02*
X171450000Y-95885000D01*
X168910000Y-95885000D02*
X169545000Y-95250000D01*
X168910000Y-97155000D02*
X168910000Y-95885000D01*
X169545000Y-97790000D02*
X168910000Y-97155000D01*
X170815000Y-97790000D02*
X171450000Y-98425000D01*
X168910000Y-98425000D02*
X169545000Y-97790000D01*
X168910000Y-99695000D02*
X168910000Y-98425000D01*
X171450000Y-90805000D02*
X171450000Y-92075000D01*
X170815000Y-92710000D02*
X171450000Y-92075000D01*
X168910000Y-92075000D02*
X169545000Y-92710000D01*
X171450000Y-94615000D02*
X170815000Y-95250000D01*
X171450000Y-93345000D02*
X171450000Y-94615000D01*
X170815000Y-92710000D02*
X171450000Y-93345000D01*
X168910000Y-93345000D02*
X169545000Y-92710000D01*
X168910000Y-94615000D02*
X168910000Y-93345000D01*
X169545000Y-95250000D02*
X168910000Y-94615000D01*
X171450000Y-89535000D02*
X170815000Y-90170000D01*
X171450000Y-88265000D02*
X171450000Y-89535000D01*
X170815000Y-87630000D02*
X171450000Y-88265000D01*
X168910000Y-88265000D02*
X169545000Y-87630000D01*
X168910000Y-89535000D02*
X168910000Y-88265000D01*
X169545000Y-90170000D02*
X168910000Y-89535000D01*
X170815000Y-90170000D02*
X171450000Y-90805000D01*
X168910000Y-90805000D02*
X169545000Y-90170000D01*
X168910000Y-92075000D02*
X168910000Y-90805000D01*
X171450000Y-83185000D02*
X171450000Y-84455000D01*
X170815000Y-85090000D02*
X171450000Y-84455000D01*
X168910000Y-84455000D02*
X169545000Y-85090000D01*
X171450000Y-86995000D02*
X170815000Y-87630000D01*
X171450000Y-85725000D02*
X171450000Y-86995000D01*
X170815000Y-85090000D02*
X171450000Y-85725000D01*
X168910000Y-85725000D02*
X169545000Y-85090000D01*
X168910000Y-86995000D02*
X168910000Y-85725000D01*
X169545000Y-87630000D02*
X168910000Y-86995000D01*
X170815000Y-82550000D02*
X171450000Y-83185000D01*
X168910000Y-83185000D02*
X169545000Y-82550000D01*
X168910000Y-84455000D02*
X168910000Y-83185000D01*
D12*
G04 #@! TO.C,JP1*
X166725600Y-100076000D02*
X164998400Y-100076000D01*
X166979600Y-99822000D02*
X166979600Y-98298000D01*
X164744400Y-99822000D02*
X164744400Y-98298000D01*
X164998400Y-98044000D02*
X166725600Y-98044000D01*
X166979600Y-98298000D02*
G75*
G03X166725600Y-98044000I-254000J0D01*
G01*
X164998400Y-98044000D02*
G75*
G03X164744400Y-98298000I0J-254000D01*
G01*
X164744400Y-99822000D02*
G75*
G03X164998400Y-100076000I254000J0D01*
G01*
X166725600Y-100076000D02*
G75*
G03X166979600Y-99822000I0J254000D01*
G01*
D13*
G04 #@! TO.C,U1*
X147857981Y-69596000D02*
G75*
G03X147857981Y-69596000I-283981J0D01*
G01*
D14*
X166480000Y-69450000D02*
X148480000Y-69450000D01*
X148480000Y-63450000D02*
X148480000Y-88950000D01*
X166480000Y-63450000D02*
X166480000Y-88950000D01*
X166480000Y-88950000D02*
X148480000Y-88950000D01*
X166480000Y-63450000D02*
X148480000Y-63450000D01*
G04 #@! TO.C,U2*
X155405000Y-91709000D02*
X154005000Y-91709000D01*
X155405000Y-96809000D02*
X159555000Y-96809000D01*
X155405000Y-91659000D02*
X159555000Y-91659000D01*
X155405000Y-96809000D02*
X155405000Y-96664000D01*
X159555000Y-96809000D02*
X159555000Y-96664000D01*
X159555000Y-91659000D02*
X159555000Y-91804000D01*
X155405000Y-91659000D02*
X155405000Y-91709000D01*
D10*
G04 #@! TO.C,U3*
X167100000Y-91420000D02*
X164650000Y-91420000D01*
X165300000Y-94640000D02*
X167100000Y-94640000D01*
G04 #@! TO.C,C2*
D14*
X165203142Y-96178666D02*
X165250761Y-96226285D01*
X165298380Y-96369142D01*
X165298380Y-96464380D01*
X165250761Y-96607238D01*
X165155523Y-96702476D01*
X165060285Y-96750095D01*
X164869809Y-96797714D01*
X164726952Y-96797714D01*
X164536476Y-96750095D01*
X164441238Y-96702476D01*
X164346000Y-96607238D01*
X164298380Y-96464380D01*
X164298380Y-96369142D01*
X164346000Y-96226285D01*
X164393619Y-96178666D01*
X164393619Y-95797714D02*
X164346000Y-95750095D01*
X164298380Y-95654857D01*
X164298380Y-95416761D01*
X164346000Y-95321523D01*
X164393619Y-95273904D01*
X164488857Y-95226285D01*
X164584095Y-95226285D01*
X164726952Y-95273904D01*
X165298380Y-95845333D01*
X165298380Y-95226285D01*
G04 #@! TO.C,D1*
X147050380Y-95734095D02*
X146050380Y-95734095D01*
X146050380Y-95496000D01*
X146098000Y-95353142D01*
X146193238Y-95257904D01*
X146288476Y-95210285D01*
X146478952Y-95162666D01*
X146621809Y-95162666D01*
X146812285Y-95210285D01*
X146907523Y-95257904D01*
X147002761Y-95353142D01*
X147050380Y-95496000D01*
X147050380Y-95734095D01*
X147050380Y-94210285D02*
X147050380Y-94781714D01*
X147050380Y-94496000D02*
X146050380Y-94496000D01*
X146193238Y-94591238D01*
X146288476Y-94686476D01*
X146336095Y-94781714D01*
G04 #@! TO.C,J2*
D15*
X167941171Y-99263200D02*
X168376600Y-99263200D01*
X168463685Y-99292228D01*
X168521742Y-99350285D01*
X168550771Y-99437371D01*
X168550771Y-99495428D01*
X167999228Y-99001942D02*
X167970200Y-98972914D01*
X167941171Y-98914857D01*
X167941171Y-98769714D01*
X167970200Y-98711657D01*
X167999228Y-98682628D01*
X168057285Y-98653600D01*
X168115342Y-98653600D01*
X168202428Y-98682628D01*
X168550771Y-99030971D01*
X168550771Y-98653600D01*
G04 #@! TO.C,JP1*
X165354000Y-97202171D02*
X165354000Y-97637600D01*
X165324971Y-97724685D01*
X165266914Y-97782742D01*
X165179828Y-97811771D01*
X165121771Y-97811771D01*
X165644285Y-97811771D02*
X165644285Y-97202171D01*
X165876514Y-97202171D01*
X165934571Y-97231200D01*
X165963600Y-97260228D01*
X165992628Y-97318285D01*
X165992628Y-97405371D01*
X165963600Y-97463428D01*
X165934571Y-97492457D01*
X165876514Y-97521485D01*
X165644285Y-97521485D01*
X166573200Y-97811771D02*
X166224857Y-97811771D01*
X166399028Y-97811771D02*
X166399028Y-97202171D01*
X166340971Y-97289257D01*
X166282914Y-97347314D01*
X166224857Y-97376342D01*
G04 #@! TO.C,R1*
X156362400Y-99843771D02*
X156159200Y-99553485D01*
X156014057Y-99843771D02*
X156014057Y-99234171D01*
X156246285Y-99234171D01*
X156304342Y-99263200D01*
X156333371Y-99292228D01*
X156362400Y-99350285D01*
X156362400Y-99437371D01*
X156333371Y-99495428D01*
X156304342Y-99524457D01*
X156246285Y-99553485D01*
X156014057Y-99553485D01*
X156942971Y-99843771D02*
X156594628Y-99843771D01*
X156768800Y-99843771D02*
X156768800Y-99234171D01*
X156710742Y-99321257D01*
X156652685Y-99379314D01*
X156594628Y-99408342D01*
X157835600Y-99843771D02*
X157487257Y-99843771D01*
X157661428Y-99843771D02*
X157661428Y-99234171D01*
X157603371Y-99321257D01*
X157545314Y-99379314D01*
X157487257Y-99408342D01*
X158212971Y-99234171D02*
X158271028Y-99234171D01*
X158329085Y-99263200D01*
X158358114Y-99292228D01*
X158387142Y-99350285D01*
X158416171Y-99466400D01*
X158416171Y-99611542D01*
X158387142Y-99727657D01*
X158358114Y-99785714D01*
X158329085Y-99814742D01*
X158271028Y-99843771D01*
X158212971Y-99843771D01*
X158154914Y-99814742D01*
X158125885Y-99785714D01*
X158096857Y-99727657D01*
X158067828Y-99611542D01*
X158067828Y-99466400D01*
X158096857Y-99350285D01*
X158125885Y-99292228D01*
X158154914Y-99263200D01*
X158212971Y-99234171D01*
X158793542Y-99234171D02*
X158851600Y-99234171D01*
X158909657Y-99263200D01*
X158938685Y-99292228D01*
X158967714Y-99350285D01*
X158996742Y-99466400D01*
X158996742Y-99611542D01*
X158967714Y-99727657D01*
X158938685Y-99785714D01*
X158909657Y-99814742D01*
X158851600Y-99843771D01*
X158793542Y-99843771D01*
X158735485Y-99814742D01*
X158706457Y-99785714D01*
X158677428Y-99727657D01*
X158648400Y-99611542D01*
X158648400Y-99466400D01*
X158677428Y-99350285D01*
X158706457Y-99292228D01*
X158735485Y-99263200D01*
X158793542Y-99234171D01*
G04 #@! TO.C,R2*
X151790400Y-91207771D02*
X151587200Y-90917485D01*
X151442057Y-91207771D02*
X151442057Y-90598171D01*
X151674285Y-90598171D01*
X151732342Y-90627200D01*
X151761371Y-90656228D01*
X151790400Y-90714285D01*
X151790400Y-90801371D01*
X151761371Y-90859428D01*
X151732342Y-90888457D01*
X151674285Y-90917485D01*
X151442057Y-90917485D01*
X152022628Y-90656228D02*
X152051657Y-90627200D01*
X152109714Y-90598171D01*
X152254857Y-90598171D01*
X152312914Y-90627200D01*
X152341942Y-90656228D01*
X152370971Y-90714285D01*
X152370971Y-90772342D01*
X152341942Y-90859428D01*
X151993600Y-91207771D01*
X152370971Y-91207771D01*
X152886228Y-94400914D02*
X152857200Y-94371885D01*
X152828171Y-94313828D01*
X152828171Y-94168685D01*
X152857200Y-94110628D01*
X152886228Y-94081600D01*
X152944285Y-94052571D01*
X153002342Y-94052571D01*
X153089428Y-94081600D01*
X153437771Y-94429942D01*
X153437771Y-94052571D01*
X153379714Y-93791314D02*
X153408742Y-93762285D01*
X153437771Y-93791314D01*
X153408742Y-93820342D01*
X153379714Y-93791314D01*
X153437771Y-93791314D01*
X153031371Y-93239771D02*
X153437771Y-93239771D01*
X152799142Y-93384914D02*
X153234571Y-93530057D01*
X153234571Y-93152685D01*
X152828171Y-92659200D02*
X152828171Y-92775314D01*
X152857200Y-92833371D01*
X152886228Y-92862400D01*
X152973314Y-92920457D01*
X153089428Y-92949485D01*
X153321657Y-92949485D01*
X153379714Y-92920457D01*
X153408742Y-92891428D01*
X153437771Y-92833371D01*
X153437771Y-92717257D01*
X153408742Y-92659200D01*
X153379714Y-92630171D01*
X153321657Y-92601142D01*
X153176514Y-92601142D01*
X153118457Y-92630171D01*
X153089428Y-92659200D01*
X153060400Y-92717257D01*
X153060400Y-92833371D01*
X153089428Y-92891428D01*
X153118457Y-92920457D01*
X153176514Y-92949485D01*
X152828171Y-92397942D02*
X152828171Y-92020571D01*
X153060400Y-92223771D01*
X153060400Y-92136685D01*
X153089428Y-92078628D01*
X153118457Y-92049600D01*
X153176514Y-92020571D01*
X153321657Y-92020571D01*
X153379714Y-92049600D01*
X153408742Y-92078628D01*
X153437771Y-92136685D01*
X153437771Y-92310857D01*
X153408742Y-92368914D01*
X153379714Y-92397942D01*
X153437771Y-91759314D02*
X152828171Y-91759314D01*
X153205542Y-91701257D02*
X153437771Y-91527085D01*
X153031371Y-91527085D02*
X153263600Y-91759314D01*
G04 #@! TO.C,R3*
X162073771Y-94081600D02*
X161783485Y-94284800D01*
X162073771Y-94429942D02*
X161464171Y-94429942D01*
X161464171Y-94197714D01*
X161493200Y-94139657D01*
X161522228Y-94110628D01*
X161580285Y-94081600D01*
X161667371Y-94081600D01*
X161725428Y-94110628D01*
X161754457Y-94139657D01*
X161783485Y-94197714D01*
X161783485Y-94429942D01*
X161464171Y-93878400D02*
X161464171Y-93501028D01*
X161696400Y-93704228D01*
X161696400Y-93617142D01*
X161725428Y-93559085D01*
X161754457Y-93530057D01*
X161812514Y-93501028D01*
X161957657Y-93501028D01*
X162015714Y-93530057D01*
X162044742Y-93559085D01*
X162073771Y-93617142D01*
X162073771Y-93791314D01*
X162044742Y-93849371D01*
X162015714Y-93878400D01*
X161464171Y-91723028D02*
X161464171Y-91664971D01*
X161493200Y-91606914D01*
X161522228Y-91577885D01*
X161580285Y-91548857D01*
X161696400Y-91519828D01*
X161841542Y-91519828D01*
X161957657Y-91548857D01*
X162015714Y-91577885D01*
X162044742Y-91606914D01*
X162073771Y-91664971D01*
X162073771Y-91723028D01*
X162044742Y-91781085D01*
X162015714Y-91810114D01*
X161957657Y-91839142D01*
X161841542Y-91868171D01*
X161696400Y-91868171D01*
X161580285Y-91839142D01*
X161522228Y-91810114D01*
X161493200Y-91781085D01*
X161464171Y-91723028D01*
G04 #@! TO.C,U1*
D14*
X164266571Y-83660428D02*
X164266571Y-83327095D01*
X164790380Y-83184238D02*
X164790380Y-83660428D01*
X163790380Y-83660428D01*
X163790380Y-83184238D01*
X164742761Y-82803285D02*
X164790380Y-82708047D01*
X164790380Y-82517571D01*
X164742761Y-82422333D01*
X164647523Y-82374714D01*
X164599904Y-82374714D01*
X164504666Y-82422333D01*
X164457047Y-82517571D01*
X164457047Y-82660428D01*
X164409428Y-82755666D01*
X164314190Y-82803285D01*
X164266571Y-82803285D01*
X164171333Y-82755666D01*
X164123714Y-82660428D01*
X164123714Y-82517571D01*
X164171333Y-82422333D01*
X164123714Y-81946142D02*
X165123714Y-81946142D01*
X164171333Y-81946142D02*
X164123714Y-81850904D01*
X164123714Y-81660428D01*
X164171333Y-81565190D01*
X164218952Y-81517571D01*
X164314190Y-81469952D01*
X164599904Y-81469952D01*
X164695142Y-81517571D01*
X164742761Y-81565190D01*
X164790380Y-81660428D01*
X164790380Y-81850904D01*
X164742761Y-81946142D01*
X164790380Y-81041380D02*
X164123714Y-81041380D01*
X164314190Y-81041380D02*
X164218952Y-80993761D01*
X164171333Y-80946142D01*
X164123714Y-80850904D01*
X164123714Y-80755666D01*
X164742761Y-80041380D02*
X164790380Y-80136619D01*
X164790380Y-80327095D01*
X164742761Y-80422333D01*
X164647523Y-80469952D01*
X164266571Y-80469952D01*
X164171333Y-80422333D01*
X164123714Y-80327095D01*
X164123714Y-80136619D01*
X164171333Y-80041380D01*
X164266571Y-79993761D01*
X164361809Y-79993761D01*
X164457047Y-80469952D01*
X164742761Y-79612809D02*
X164790380Y-79517571D01*
X164790380Y-79327095D01*
X164742761Y-79231857D01*
X164647523Y-79184238D01*
X164599904Y-79184238D01*
X164504666Y-79231857D01*
X164457047Y-79327095D01*
X164457047Y-79469952D01*
X164409428Y-79565190D01*
X164314190Y-79612809D01*
X164266571Y-79612809D01*
X164171333Y-79565190D01*
X164123714Y-79469952D01*
X164123714Y-79327095D01*
X164171333Y-79231857D01*
X164742761Y-78803285D02*
X164790380Y-78708047D01*
X164790380Y-78517571D01*
X164742761Y-78422333D01*
X164647523Y-78374714D01*
X164599904Y-78374714D01*
X164504666Y-78422333D01*
X164457047Y-78517571D01*
X164457047Y-78660428D01*
X164409428Y-78755666D01*
X164314190Y-78803285D01*
X164266571Y-78803285D01*
X164171333Y-78755666D01*
X164123714Y-78660428D01*
X164123714Y-78517571D01*
X164171333Y-78422333D01*
X164790380Y-77946142D02*
X164123714Y-77946142D01*
X163790380Y-77946142D02*
X163838000Y-77993761D01*
X163885619Y-77946142D01*
X163838000Y-77898523D01*
X163790380Y-77946142D01*
X163885619Y-77946142D01*
X164123714Y-77612809D02*
X164123714Y-77231857D01*
X164790380Y-77469952D02*
X163933238Y-77469952D01*
X163838000Y-77422333D01*
X163790380Y-77327095D01*
X163790380Y-77231857D01*
X164742761Y-76184238D02*
X164790380Y-76041380D01*
X164790380Y-75803285D01*
X164742761Y-75708047D01*
X164695142Y-75660428D01*
X164599904Y-75612809D01*
X164504666Y-75612809D01*
X164409428Y-75660428D01*
X164361809Y-75708047D01*
X164314190Y-75803285D01*
X164266571Y-75993761D01*
X164218952Y-76089000D01*
X164171333Y-76136619D01*
X164076095Y-76184238D01*
X163980857Y-76184238D01*
X163885619Y-76136619D01*
X163838000Y-76089000D01*
X163790380Y-75993761D01*
X163790380Y-75755666D01*
X163838000Y-75612809D01*
X164123714Y-75279476D02*
X164790380Y-75041380D01*
X164123714Y-74803285D02*
X164790380Y-75041380D01*
X165028476Y-75136619D01*
X165076095Y-75184238D01*
X165123714Y-75279476D01*
X164742761Y-74469952D02*
X164790380Y-74374714D01*
X164790380Y-74184238D01*
X164742761Y-74089000D01*
X164647523Y-74041380D01*
X164599904Y-74041380D01*
X164504666Y-74089000D01*
X164457047Y-74184238D01*
X164457047Y-74327095D01*
X164409428Y-74422333D01*
X164314190Y-74469952D01*
X164266571Y-74469952D01*
X164171333Y-74422333D01*
X164123714Y-74327095D01*
X164123714Y-74184238D01*
X164171333Y-74089000D01*
X164123714Y-73755666D02*
X164123714Y-73374714D01*
X163790380Y-73612809D02*
X164647523Y-73612809D01*
X164742761Y-73565190D01*
X164790380Y-73469952D01*
X164790380Y-73374714D01*
X164742761Y-72660428D02*
X164790380Y-72755666D01*
X164790380Y-72946142D01*
X164742761Y-73041380D01*
X164647523Y-73089000D01*
X164266571Y-73089000D01*
X164171333Y-73041380D01*
X164123714Y-72946142D01*
X164123714Y-72755666D01*
X164171333Y-72660428D01*
X164266571Y-72612809D01*
X164361809Y-72612809D01*
X164457047Y-73089000D01*
X164790380Y-72184238D02*
X164123714Y-72184238D01*
X164218952Y-72184238D02*
X164171333Y-72136619D01*
X164123714Y-72041380D01*
X164123714Y-71898523D01*
X164171333Y-71803285D01*
X164266571Y-71755666D01*
X164790380Y-71755666D01*
X164266571Y-71755666D02*
X164171333Y-71708047D01*
X164123714Y-71612809D01*
X164123714Y-71469952D01*
X164171333Y-71374714D01*
X164266571Y-71327095D01*
X164790380Y-71327095D01*
X164742761Y-70898523D02*
X164790380Y-70803285D01*
X164790380Y-70612809D01*
X164742761Y-70517571D01*
X164647523Y-70469952D01*
X164599904Y-70469952D01*
X164504666Y-70517571D01*
X164457047Y-70612809D01*
X164457047Y-70755666D01*
X164409428Y-70850904D01*
X164314190Y-70898523D01*
X164266571Y-70898523D01*
X164171333Y-70850904D01*
X164123714Y-70755666D01*
X164123714Y-70612809D01*
X164171333Y-70517571D01*
X162615571Y-81398380D02*
X162615571Y-81065047D01*
X163139380Y-80922190D02*
X163139380Y-81398380D01*
X162139380Y-81398380D01*
X162139380Y-80922190D01*
X163091761Y-80541238D02*
X163139380Y-80398380D01*
X163139380Y-80160285D01*
X163091761Y-80065047D01*
X163044142Y-80017428D01*
X162948904Y-79969809D01*
X162853666Y-79969809D01*
X162758428Y-80017428D01*
X162710809Y-80065047D01*
X162663190Y-80160285D01*
X162615571Y-80350761D01*
X162567952Y-80446000D01*
X162520333Y-80493619D01*
X162425095Y-80541238D01*
X162329857Y-80541238D01*
X162234619Y-80493619D01*
X162187000Y-80446000D01*
X162139380Y-80350761D01*
X162139380Y-80112666D01*
X162187000Y-79969809D01*
X163139380Y-79541238D02*
X162139380Y-79541238D01*
X162139380Y-79160285D01*
X162187000Y-79065047D01*
X162234619Y-79017428D01*
X162329857Y-78969809D01*
X162472714Y-78969809D01*
X162567952Y-79017428D01*
X162615571Y-79065047D01*
X162663190Y-79160285D01*
X162663190Y-79541238D01*
X162139380Y-78636476D02*
X162139380Y-78017428D01*
X162520333Y-78350761D01*
X162520333Y-78207904D01*
X162567952Y-78112666D01*
X162615571Y-78065047D01*
X162710809Y-78017428D01*
X162948904Y-78017428D01*
X163044142Y-78065047D01*
X163091761Y-78112666D01*
X163139380Y-78207904D01*
X163139380Y-78493619D01*
X163091761Y-78588857D01*
X163044142Y-78636476D01*
X162234619Y-77636476D02*
X162187000Y-77588857D01*
X162139380Y-77493619D01*
X162139380Y-77255523D01*
X162187000Y-77160285D01*
X162234619Y-77112666D01*
X162329857Y-77065047D01*
X162425095Y-77065047D01*
X162567952Y-77112666D01*
X163139380Y-77684095D01*
X163139380Y-77065047D01*
X162758428Y-76636476D02*
X162758428Y-75874571D01*
X162139380Y-75493619D02*
X163139380Y-75255523D01*
X162425095Y-75065047D01*
X163139380Y-74874571D01*
X162139380Y-74636476D01*
X163139380Y-73684095D02*
X162663190Y-74017428D01*
X163139380Y-74255523D02*
X162139380Y-74255523D01*
X162139380Y-73874571D01*
X162187000Y-73779333D01*
X162234619Y-73731714D01*
X162329857Y-73684095D01*
X162472714Y-73684095D01*
X162567952Y-73731714D01*
X162615571Y-73779333D01*
X162663190Y-73874571D01*
X162663190Y-74255523D01*
X162139380Y-73065047D02*
X162139380Y-72874571D01*
X162187000Y-72779333D01*
X162282238Y-72684095D01*
X162472714Y-72636476D01*
X162806047Y-72636476D01*
X162996523Y-72684095D01*
X163091761Y-72779333D01*
X163139380Y-72874571D01*
X163139380Y-73065047D01*
X163091761Y-73160285D01*
X162996523Y-73255523D01*
X162806047Y-73303142D01*
X162472714Y-73303142D01*
X162282238Y-73255523D01*
X162187000Y-73160285D01*
X162139380Y-73065047D01*
X162139380Y-72017428D02*
X162139380Y-71826952D01*
X162187000Y-71731714D01*
X162282238Y-71636476D01*
X162472714Y-71588857D01*
X162806047Y-71588857D01*
X162996523Y-71636476D01*
X163091761Y-71731714D01*
X163139380Y-71826952D01*
X163139380Y-72017428D01*
X163091761Y-72112666D01*
X162996523Y-72207904D01*
X162806047Y-72255523D01*
X162472714Y-72255523D01*
X162282238Y-72207904D01*
X162187000Y-72112666D01*
X162139380Y-72017428D01*
X163139380Y-71160285D02*
X162139380Y-71160285D01*
X162853666Y-70826952D01*
X162139380Y-70493619D01*
X163139380Y-70493619D01*
G04 #@! TD*
M02*
