G04 #@! TF.GenerationSoftware,KiCad,Pcbnew,(5.0.2)-1*
G04 #@! TF.CreationDate,2019-10-09T02:29:05+02:00*
G04 #@! TF.ProjectId,esp32-lifepo4,65737033-322d-46c6-9966-65706f342e6b,rev?*
G04 #@! TF.SameCoordinates,Original*
G04 #@! TF.FileFunction,Soldermask,Bot*
G04 #@! TF.FilePolarity,Negative*
%FSLAX46Y46*%
G04 Gerber Fmt 4.6, Leading zero omitted, Abs format (unit mm)*
G04 Created by KiCad (PCBNEW (5.0.2)-1) date 09/10/2019 02:29:05*
%MOMM*%
%LPD*%
G01*
G04 APERTURE LIST*
%ADD10C,0.100000*%
G04 APERTURE END LIST*
D10*
G36*
X170483765Y-98058620D02*
X170673289Y-98137123D01*
X170843855Y-98251092D01*
X170988908Y-98396145D01*
X171102877Y-98566711D01*
X171181380Y-98756235D01*
X171221400Y-98957430D01*
X171221400Y-99162570D01*
X171181380Y-99363765D01*
X171102877Y-99553289D01*
X170988908Y-99723855D01*
X170843855Y-99868908D01*
X170673289Y-99982877D01*
X170483765Y-100061380D01*
X170282570Y-100101400D01*
X170077430Y-100101400D01*
X169876235Y-100061380D01*
X169686711Y-99982877D01*
X169516145Y-99868908D01*
X169371092Y-99723855D01*
X169257123Y-99553289D01*
X169178620Y-99363765D01*
X169138600Y-99162570D01*
X169138600Y-98957430D01*
X169178620Y-98756235D01*
X169257123Y-98566711D01*
X169371092Y-98396145D01*
X169516145Y-98251092D01*
X169686711Y-98137123D01*
X169876235Y-98058620D01*
X170077430Y-98018600D01*
X170282570Y-98018600D01*
X170483765Y-98058620D01*
X170483765Y-98058620D01*
G37*
G36*
X145083765Y-98058620D02*
X145273289Y-98137123D01*
X145443855Y-98251092D01*
X145588908Y-98396145D01*
X145702877Y-98566711D01*
X145781380Y-98756235D01*
X145821400Y-98957430D01*
X145821400Y-99162570D01*
X145781380Y-99363765D01*
X145702877Y-99553289D01*
X145588908Y-99723855D01*
X145443855Y-99868908D01*
X145273289Y-99982877D01*
X145083765Y-100061380D01*
X144882570Y-100101400D01*
X144677430Y-100101400D01*
X144476235Y-100061380D01*
X144286711Y-99982877D01*
X144116145Y-99868908D01*
X143971092Y-99723855D01*
X143857123Y-99553289D01*
X143778620Y-99363765D01*
X143738600Y-99162570D01*
X143738600Y-98957430D01*
X143778620Y-98756235D01*
X143857123Y-98566711D01*
X143971092Y-98396145D01*
X144116145Y-98251092D01*
X144286711Y-98137123D01*
X144476235Y-98058620D01*
X144677430Y-98018600D01*
X144882570Y-98018600D01*
X145083765Y-98058620D01*
X145083765Y-98058620D01*
G37*
G36*
X145083765Y-95518620D02*
X145273289Y-95597123D01*
X145443855Y-95711092D01*
X145588908Y-95856145D01*
X145702877Y-96026711D01*
X145781380Y-96216235D01*
X145821400Y-96417430D01*
X145821400Y-96622570D01*
X145781380Y-96823765D01*
X145702877Y-97013289D01*
X145588908Y-97183855D01*
X145443855Y-97328908D01*
X145273289Y-97442877D01*
X145083765Y-97521380D01*
X144882570Y-97561400D01*
X144677430Y-97561400D01*
X144476235Y-97521380D01*
X144286711Y-97442877D01*
X144116145Y-97328908D01*
X143971092Y-97183855D01*
X143857123Y-97013289D01*
X143778620Y-96823765D01*
X143738600Y-96622570D01*
X143738600Y-96417430D01*
X143778620Y-96216235D01*
X143857123Y-96026711D01*
X143971092Y-95856145D01*
X144116145Y-95711092D01*
X144286711Y-95597123D01*
X144476235Y-95518620D01*
X144677430Y-95478600D01*
X144882570Y-95478600D01*
X145083765Y-95518620D01*
X145083765Y-95518620D01*
G37*
G36*
X170483765Y-95518620D02*
X170673289Y-95597123D01*
X170843855Y-95711092D01*
X170988908Y-95856145D01*
X171102877Y-96026711D01*
X171181380Y-96216235D01*
X171221400Y-96417430D01*
X171221400Y-96622570D01*
X171181380Y-96823765D01*
X171102877Y-97013289D01*
X170988908Y-97183855D01*
X170843855Y-97328908D01*
X170673289Y-97442877D01*
X170483765Y-97521380D01*
X170282570Y-97561400D01*
X170077430Y-97561400D01*
X169876235Y-97521380D01*
X169686711Y-97442877D01*
X169516145Y-97328908D01*
X169371092Y-97183855D01*
X169257123Y-97013289D01*
X169178620Y-96823765D01*
X169138600Y-96622570D01*
X169138600Y-96417430D01*
X169178620Y-96216235D01*
X169257123Y-96026711D01*
X169371092Y-95856145D01*
X169516145Y-95711092D01*
X169686711Y-95597123D01*
X169876235Y-95518620D01*
X170077430Y-95478600D01*
X170282570Y-95478600D01*
X170483765Y-95518620D01*
X170483765Y-95518620D01*
G37*
G36*
X170483765Y-92978620D02*
X170673289Y-93057123D01*
X170843855Y-93171092D01*
X170988908Y-93316145D01*
X171102877Y-93486711D01*
X171181380Y-93676235D01*
X171221400Y-93877430D01*
X171221400Y-94082570D01*
X171181380Y-94283765D01*
X171102877Y-94473289D01*
X170988908Y-94643855D01*
X170843855Y-94788908D01*
X170673289Y-94902877D01*
X170483765Y-94981380D01*
X170282570Y-95021400D01*
X170077430Y-95021400D01*
X169876235Y-94981380D01*
X169686711Y-94902877D01*
X169516145Y-94788908D01*
X169371092Y-94643855D01*
X169257123Y-94473289D01*
X169178620Y-94283765D01*
X169138600Y-94082570D01*
X169138600Y-93877430D01*
X169178620Y-93676235D01*
X169257123Y-93486711D01*
X169371092Y-93316145D01*
X169516145Y-93171092D01*
X169686711Y-93057123D01*
X169876235Y-92978620D01*
X170077430Y-92938600D01*
X170282570Y-92938600D01*
X170483765Y-92978620D01*
X170483765Y-92978620D01*
G37*
G36*
X145083765Y-92978620D02*
X145273289Y-93057123D01*
X145443855Y-93171092D01*
X145588908Y-93316145D01*
X145702877Y-93486711D01*
X145781380Y-93676235D01*
X145821400Y-93877430D01*
X145821400Y-94082570D01*
X145781380Y-94283765D01*
X145702877Y-94473289D01*
X145588908Y-94643855D01*
X145443855Y-94788908D01*
X145273289Y-94902877D01*
X145083765Y-94981380D01*
X144882570Y-95021400D01*
X144677430Y-95021400D01*
X144476235Y-94981380D01*
X144286711Y-94902877D01*
X144116145Y-94788908D01*
X143971092Y-94643855D01*
X143857123Y-94473289D01*
X143778620Y-94283765D01*
X143738600Y-94082570D01*
X143738600Y-93877430D01*
X143778620Y-93676235D01*
X143857123Y-93486711D01*
X143971092Y-93316145D01*
X144116145Y-93171092D01*
X144286711Y-93057123D01*
X144476235Y-92978620D01*
X144677430Y-92938600D01*
X144882570Y-92938600D01*
X145083765Y-92978620D01*
X145083765Y-92978620D01*
G37*
G36*
X170483765Y-90438620D02*
X170673289Y-90517123D01*
X170843855Y-90631092D01*
X170988908Y-90776145D01*
X171102877Y-90946711D01*
X171181380Y-91136235D01*
X171221400Y-91337430D01*
X171221400Y-91542570D01*
X171181380Y-91743765D01*
X171102877Y-91933289D01*
X170988908Y-92103855D01*
X170843855Y-92248908D01*
X170673289Y-92362877D01*
X170483765Y-92441380D01*
X170282570Y-92481400D01*
X170077430Y-92481400D01*
X169876235Y-92441380D01*
X169686711Y-92362877D01*
X169516145Y-92248908D01*
X169371092Y-92103855D01*
X169257123Y-91933289D01*
X169178620Y-91743765D01*
X169138600Y-91542570D01*
X169138600Y-91337430D01*
X169178620Y-91136235D01*
X169257123Y-90946711D01*
X169371092Y-90776145D01*
X169516145Y-90631092D01*
X169686711Y-90517123D01*
X169876235Y-90438620D01*
X170077430Y-90398600D01*
X170282570Y-90398600D01*
X170483765Y-90438620D01*
X170483765Y-90438620D01*
G37*
G36*
X145083765Y-90438620D02*
X145273289Y-90517123D01*
X145443855Y-90631092D01*
X145588908Y-90776145D01*
X145702877Y-90946711D01*
X145781380Y-91136235D01*
X145821400Y-91337430D01*
X145821400Y-91542570D01*
X145781380Y-91743765D01*
X145702877Y-91933289D01*
X145588908Y-92103855D01*
X145443855Y-92248908D01*
X145273289Y-92362877D01*
X145083765Y-92441380D01*
X144882570Y-92481400D01*
X144677430Y-92481400D01*
X144476235Y-92441380D01*
X144286711Y-92362877D01*
X144116145Y-92248908D01*
X143971092Y-92103855D01*
X143857123Y-91933289D01*
X143778620Y-91743765D01*
X143738600Y-91542570D01*
X143738600Y-91337430D01*
X143778620Y-91136235D01*
X143857123Y-90946711D01*
X143971092Y-90776145D01*
X144116145Y-90631092D01*
X144286711Y-90517123D01*
X144476235Y-90438620D01*
X144677430Y-90398600D01*
X144882570Y-90398600D01*
X145083765Y-90438620D01*
X145083765Y-90438620D01*
G37*
G36*
X170483765Y-87898620D02*
X170673289Y-87977123D01*
X170843855Y-88091092D01*
X170988908Y-88236145D01*
X171102877Y-88406711D01*
X171181380Y-88596235D01*
X171221400Y-88797430D01*
X171221400Y-89002570D01*
X171181380Y-89203765D01*
X171102877Y-89393289D01*
X170988908Y-89563855D01*
X170843855Y-89708908D01*
X170673289Y-89822877D01*
X170483765Y-89901380D01*
X170282570Y-89941400D01*
X170077430Y-89941400D01*
X169876235Y-89901380D01*
X169686711Y-89822877D01*
X169516145Y-89708908D01*
X169371092Y-89563855D01*
X169257123Y-89393289D01*
X169178620Y-89203765D01*
X169138600Y-89002570D01*
X169138600Y-88797430D01*
X169178620Y-88596235D01*
X169257123Y-88406711D01*
X169371092Y-88236145D01*
X169516145Y-88091092D01*
X169686711Y-87977123D01*
X169876235Y-87898620D01*
X170077430Y-87858600D01*
X170282570Y-87858600D01*
X170483765Y-87898620D01*
X170483765Y-87898620D01*
G37*
G36*
X145083765Y-87898620D02*
X145273289Y-87977123D01*
X145443855Y-88091092D01*
X145588908Y-88236145D01*
X145702877Y-88406711D01*
X145781380Y-88596235D01*
X145821400Y-88797430D01*
X145821400Y-89002570D01*
X145781380Y-89203765D01*
X145702877Y-89393289D01*
X145588908Y-89563855D01*
X145443855Y-89708908D01*
X145273289Y-89822877D01*
X145083765Y-89901380D01*
X144882570Y-89941400D01*
X144677430Y-89941400D01*
X144476235Y-89901380D01*
X144286711Y-89822877D01*
X144116145Y-89708908D01*
X143971092Y-89563855D01*
X143857123Y-89393289D01*
X143778620Y-89203765D01*
X143738600Y-89002570D01*
X143738600Y-88797430D01*
X143778620Y-88596235D01*
X143857123Y-88406711D01*
X143971092Y-88236145D01*
X144116145Y-88091092D01*
X144286711Y-87977123D01*
X144476235Y-87898620D01*
X144677430Y-87858600D01*
X144882570Y-87858600D01*
X145083765Y-87898620D01*
X145083765Y-87898620D01*
G37*
G36*
X170483765Y-85358620D02*
X170673289Y-85437123D01*
X170843855Y-85551092D01*
X170988908Y-85696145D01*
X171102877Y-85866711D01*
X171181380Y-86056235D01*
X171221400Y-86257430D01*
X171221400Y-86462570D01*
X171181380Y-86663765D01*
X171102877Y-86853289D01*
X170988908Y-87023855D01*
X170843855Y-87168908D01*
X170673289Y-87282877D01*
X170483765Y-87361380D01*
X170282570Y-87401400D01*
X170077430Y-87401400D01*
X169876235Y-87361380D01*
X169686711Y-87282877D01*
X169516145Y-87168908D01*
X169371092Y-87023855D01*
X169257123Y-86853289D01*
X169178620Y-86663765D01*
X169138600Y-86462570D01*
X169138600Y-86257430D01*
X169178620Y-86056235D01*
X169257123Y-85866711D01*
X169371092Y-85696145D01*
X169516145Y-85551092D01*
X169686711Y-85437123D01*
X169876235Y-85358620D01*
X170077430Y-85318600D01*
X170282570Y-85318600D01*
X170483765Y-85358620D01*
X170483765Y-85358620D01*
G37*
G36*
X145083765Y-85358620D02*
X145273289Y-85437123D01*
X145443855Y-85551092D01*
X145588908Y-85696145D01*
X145702877Y-85866711D01*
X145781380Y-86056235D01*
X145821400Y-86257430D01*
X145821400Y-86462570D01*
X145781380Y-86663765D01*
X145702877Y-86853289D01*
X145588908Y-87023855D01*
X145443855Y-87168908D01*
X145273289Y-87282877D01*
X145083765Y-87361380D01*
X144882570Y-87401400D01*
X144677430Y-87401400D01*
X144476235Y-87361380D01*
X144286711Y-87282877D01*
X144116145Y-87168908D01*
X143971092Y-87023855D01*
X143857123Y-86853289D01*
X143778620Y-86663765D01*
X143738600Y-86462570D01*
X143738600Y-86257430D01*
X143778620Y-86056235D01*
X143857123Y-85866711D01*
X143971092Y-85696145D01*
X144116145Y-85551092D01*
X144286711Y-85437123D01*
X144476235Y-85358620D01*
X144677430Y-85318600D01*
X144882570Y-85318600D01*
X145083765Y-85358620D01*
X145083765Y-85358620D01*
G37*
G36*
X145083765Y-82818620D02*
X145273289Y-82897123D01*
X145443855Y-83011092D01*
X145588908Y-83156145D01*
X145702877Y-83326711D01*
X145781380Y-83516235D01*
X145821400Y-83717430D01*
X145821400Y-83922570D01*
X145781380Y-84123765D01*
X145702877Y-84313289D01*
X145588908Y-84483855D01*
X145443855Y-84628908D01*
X145273289Y-84742877D01*
X145083765Y-84821380D01*
X144882570Y-84861400D01*
X144677430Y-84861400D01*
X144476235Y-84821380D01*
X144286711Y-84742877D01*
X144116145Y-84628908D01*
X143971092Y-84483855D01*
X143857123Y-84313289D01*
X143778620Y-84123765D01*
X143738600Y-83922570D01*
X143738600Y-83717430D01*
X143778620Y-83516235D01*
X143857123Y-83326711D01*
X143971092Y-83156145D01*
X144116145Y-83011092D01*
X144286711Y-82897123D01*
X144476235Y-82818620D01*
X144677430Y-82778600D01*
X144882570Y-82778600D01*
X145083765Y-82818620D01*
X145083765Y-82818620D01*
G37*
G36*
X170483765Y-82818620D02*
X170673289Y-82897123D01*
X170843855Y-83011092D01*
X170988908Y-83156145D01*
X171102877Y-83326711D01*
X171181380Y-83516235D01*
X171221400Y-83717430D01*
X171221400Y-83922570D01*
X171181380Y-84123765D01*
X171102877Y-84313289D01*
X170988908Y-84483855D01*
X170843855Y-84628908D01*
X170673289Y-84742877D01*
X170483765Y-84821380D01*
X170282570Y-84861400D01*
X170077430Y-84861400D01*
X169876235Y-84821380D01*
X169686711Y-84742877D01*
X169516145Y-84628908D01*
X169371092Y-84483855D01*
X169257123Y-84313289D01*
X169178620Y-84123765D01*
X169138600Y-83922570D01*
X169138600Y-83717430D01*
X169178620Y-83516235D01*
X169257123Y-83326711D01*
X169371092Y-83156145D01*
X169516145Y-83011092D01*
X169686711Y-82897123D01*
X169876235Y-82818620D01*
X170077430Y-82778600D01*
X170282570Y-82778600D01*
X170483765Y-82818620D01*
X170483765Y-82818620D01*
G37*
G36*
X145083765Y-80278620D02*
X145273289Y-80357123D01*
X145443855Y-80471092D01*
X145588908Y-80616145D01*
X145702877Y-80786711D01*
X145781380Y-80976235D01*
X145821400Y-81177430D01*
X145821400Y-81382570D01*
X145781380Y-81583765D01*
X145702877Y-81773289D01*
X145588908Y-81943855D01*
X145443855Y-82088908D01*
X145273289Y-82202877D01*
X145083765Y-82281380D01*
X144882570Y-82321400D01*
X144677430Y-82321400D01*
X144476235Y-82281380D01*
X144286711Y-82202877D01*
X144116145Y-82088908D01*
X143971092Y-81943855D01*
X143857123Y-81773289D01*
X143778620Y-81583765D01*
X143738600Y-81382570D01*
X143738600Y-81177430D01*
X143778620Y-80976235D01*
X143857123Y-80786711D01*
X143971092Y-80616145D01*
X144116145Y-80471092D01*
X144286711Y-80357123D01*
X144476235Y-80278620D01*
X144677430Y-80238600D01*
X144882570Y-80238600D01*
X145083765Y-80278620D01*
X145083765Y-80278620D01*
G37*
G36*
X170483765Y-80278620D02*
X170673289Y-80357123D01*
X170843855Y-80471092D01*
X170988908Y-80616145D01*
X171102877Y-80786711D01*
X171181380Y-80976235D01*
X171221400Y-81177430D01*
X171221400Y-81382570D01*
X171181380Y-81583765D01*
X171102877Y-81773289D01*
X170988908Y-81943855D01*
X170843855Y-82088908D01*
X170673289Y-82202877D01*
X170483765Y-82281380D01*
X170282570Y-82321400D01*
X170077430Y-82321400D01*
X169876235Y-82281380D01*
X169686711Y-82202877D01*
X169516145Y-82088908D01*
X169371092Y-81943855D01*
X169257123Y-81773289D01*
X169178620Y-81583765D01*
X169138600Y-81382570D01*
X169138600Y-81177430D01*
X169178620Y-80976235D01*
X169257123Y-80786711D01*
X169371092Y-80616145D01*
X169516145Y-80471092D01*
X169686711Y-80357123D01*
X169876235Y-80278620D01*
X170077430Y-80238600D01*
X170282570Y-80238600D01*
X170483765Y-80278620D01*
X170483765Y-80278620D01*
G37*
G36*
X145083765Y-77738620D02*
X145273289Y-77817123D01*
X145443855Y-77931092D01*
X145588908Y-78076145D01*
X145702877Y-78246711D01*
X145781380Y-78436235D01*
X145821400Y-78637430D01*
X145821400Y-78842570D01*
X145781380Y-79043765D01*
X145702877Y-79233289D01*
X145588908Y-79403855D01*
X145443855Y-79548908D01*
X145273289Y-79662877D01*
X145083765Y-79741380D01*
X144882570Y-79781400D01*
X144677430Y-79781400D01*
X144476235Y-79741380D01*
X144286711Y-79662877D01*
X144116145Y-79548908D01*
X143971092Y-79403855D01*
X143857123Y-79233289D01*
X143778620Y-79043765D01*
X143738600Y-78842570D01*
X143738600Y-78637430D01*
X143778620Y-78436235D01*
X143857123Y-78246711D01*
X143971092Y-78076145D01*
X144116145Y-77931092D01*
X144286711Y-77817123D01*
X144476235Y-77738620D01*
X144677430Y-77698600D01*
X144882570Y-77698600D01*
X145083765Y-77738620D01*
X145083765Y-77738620D01*
G37*
G36*
X170483765Y-77738620D02*
X170673289Y-77817123D01*
X170843855Y-77931092D01*
X170988908Y-78076145D01*
X171102877Y-78246711D01*
X171181380Y-78436235D01*
X171221400Y-78637430D01*
X171221400Y-78842570D01*
X171181380Y-79043765D01*
X171102877Y-79233289D01*
X170988908Y-79403855D01*
X170843855Y-79548908D01*
X170673289Y-79662877D01*
X170483765Y-79741380D01*
X170282570Y-79781400D01*
X170077430Y-79781400D01*
X169876235Y-79741380D01*
X169686711Y-79662877D01*
X169516145Y-79548908D01*
X169371092Y-79403855D01*
X169257123Y-79233289D01*
X169178620Y-79043765D01*
X169138600Y-78842570D01*
X169138600Y-78637430D01*
X169178620Y-78436235D01*
X169257123Y-78246711D01*
X169371092Y-78076145D01*
X169516145Y-77931092D01*
X169686711Y-77817123D01*
X169876235Y-77738620D01*
X170077430Y-77698600D01*
X170282570Y-77698600D01*
X170483765Y-77738620D01*
X170483765Y-77738620D01*
G37*
G36*
X170483765Y-75198620D02*
X170673289Y-75277123D01*
X170843855Y-75391092D01*
X170988908Y-75536145D01*
X171102877Y-75706711D01*
X171181380Y-75896235D01*
X171221400Y-76097430D01*
X171221400Y-76302570D01*
X171181380Y-76503765D01*
X171102877Y-76693289D01*
X170988908Y-76863855D01*
X170843855Y-77008908D01*
X170673289Y-77122877D01*
X170483765Y-77201380D01*
X170282570Y-77241400D01*
X170077430Y-77241400D01*
X169876235Y-77201380D01*
X169686711Y-77122877D01*
X169516145Y-77008908D01*
X169371092Y-76863855D01*
X169257123Y-76693289D01*
X169178620Y-76503765D01*
X169138600Y-76302570D01*
X169138600Y-76097430D01*
X169178620Y-75896235D01*
X169257123Y-75706711D01*
X169371092Y-75536145D01*
X169516145Y-75391092D01*
X169686711Y-75277123D01*
X169876235Y-75198620D01*
X170077430Y-75158600D01*
X170282570Y-75158600D01*
X170483765Y-75198620D01*
X170483765Y-75198620D01*
G37*
G36*
X145083765Y-75198620D02*
X145273289Y-75277123D01*
X145443855Y-75391092D01*
X145588908Y-75536145D01*
X145702877Y-75706711D01*
X145781380Y-75896235D01*
X145821400Y-76097430D01*
X145821400Y-76302570D01*
X145781380Y-76503765D01*
X145702877Y-76693289D01*
X145588908Y-76863855D01*
X145443855Y-77008908D01*
X145273289Y-77122877D01*
X145083765Y-77201380D01*
X144882570Y-77241400D01*
X144677430Y-77241400D01*
X144476235Y-77201380D01*
X144286711Y-77122877D01*
X144116145Y-77008908D01*
X143971092Y-76863855D01*
X143857123Y-76693289D01*
X143778620Y-76503765D01*
X143738600Y-76302570D01*
X143738600Y-76097430D01*
X143778620Y-75896235D01*
X143857123Y-75706711D01*
X143971092Y-75536145D01*
X144116145Y-75391092D01*
X144286711Y-75277123D01*
X144476235Y-75198620D01*
X144677430Y-75158600D01*
X144882570Y-75158600D01*
X145083765Y-75198620D01*
X145083765Y-75198620D01*
G37*
G36*
X170483765Y-72658620D02*
X170673289Y-72737123D01*
X170843855Y-72851092D01*
X170988908Y-72996145D01*
X171102877Y-73166711D01*
X171181380Y-73356235D01*
X171221400Y-73557430D01*
X171221400Y-73762570D01*
X171181380Y-73963765D01*
X171102877Y-74153289D01*
X170988908Y-74323855D01*
X170843855Y-74468908D01*
X170673289Y-74582877D01*
X170483765Y-74661380D01*
X170282570Y-74701400D01*
X170077430Y-74701400D01*
X169876235Y-74661380D01*
X169686711Y-74582877D01*
X169516145Y-74468908D01*
X169371092Y-74323855D01*
X169257123Y-74153289D01*
X169178620Y-73963765D01*
X169138600Y-73762570D01*
X169138600Y-73557430D01*
X169178620Y-73356235D01*
X169257123Y-73166711D01*
X169371092Y-72996145D01*
X169516145Y-72851092D01*
X169686711Y-72737123D01*
X169876235Y-72658620D01*
X170077430Y-72618600D01*
X170282570Y-72618600D01*
X170483765Y-72658620D01*
X170483765Y-72658620D01*
G37*
G36*
X145083765Y-72658620D02*
X145273289Y-72737123D01*
X145443855Y-72851092D01*
X145588908Y-72996145D01*
X145702877Y-73166711D01*
X145781380Y-73356235D01*
X145821400Y-73557430D01*
X145821400Y-73762570D01*
X145781380Y-73963765D01*
X145702877Y-74153289D01*
X145588908Y-74323855D01*
X145443855Y-74468908D01*
X145273289Y-74582877D01*
X145083765Y-74661380D01*
X144882570Y-74701400D01*
X144677430Y-74701400D01*
X144476235Y-74661380D01*
X144286711Y-74582877D01*
X144116145Y-74468908D01*
X143971092Y-74323855D01*
X143857123Y-74153289D01*
X143778620Y-73963765D01*
X143738600Y-73762570D01*
X143738600Y-73557430D01*
X143778620Y-73356235D01*
X143857123Y-73166711D01*
X143971092Y-72996145D01*
X144116145Y-72851092D01*
X144286711Y-72737123D01*
X144476235Y-72658620D01*
X144677430Y-72618600D01*
X144882570Y-72618600D01*
X145083765Y-72658620D01*
X145083765Y-72658620D01*
G37*
G36*
X170483765Y-70118620D02*
X170673289Y-70197123D01*
X170843855Y-70311092D01*
X170988908Y-70456145D01*
X171102877Y-70626711D01*
X171181380Y-70816235D01*
X171221400Y-71017430D01*
X171221400Y-71222570D01*
X171181380Y-71423765D01*
X171102877Y-71613289D01*
X170988908Y-71783855D01*
X170843855Y-71928908D01*
X170673289Y-72042877D01*
X170483765Y-72121380D01*
X170282570Y-72161400D01*
X170077430Y-72161400D01*
X169876235Y-72121380D01*
X169686711Y-72042877D01*
X169516145Y-71928908D01*
X169371092Y-71783855D01*
X169257123Y-71613289D01*
X169178620Y-71423765D01*
X169138600Y-71222570D01*
X169138600Y-71017430D01*
X169178620Y-70816235D01*
X169257123Y-70626711D01*
X169371092Y-70456145D01*
X169516145Y-70311092D01*
X169686711Y-70197123D01*
X169876235Y-70118620D01*
X170077430Y-70078600D01*
X170282570Y-70078600D01*
X170483765Y-70118620D01*
X170483765Y-70118620D01*
G37*
G36*
X145083765Y-70118620D02*
X145273289Y-70197123D01*
X145443855Y-70311092D01*
X145588908Y-70456145D01*
X145702877Y-70626711D01*
X145781380Y-70816235D01*
X145821400Y-71017430D01*
X145821400Y-71222570D01*
X145781380Y-71423765D01*
X145702877Y-71613289D01*
X145588908Y-71783855D01*
X145443855Y-71928908D01*
X145273289Y-72042877D01*
X145083765Y-72121380D01*
X144882570Y-72161400D01*
X144677430Y-72161400D01*
X144476235Y-72121380D01*
X144286711Y-72042877D01*
X144116145Y-71928908D01*
X143971092Y-71783855D01*
X143857123Y-71613289D01*
X143778620Y-71423765D01*
X143738600Y-71222570D01*
X143738600Y-71017430D01*
X143778620Y-70816235D01*
X143857123Y-70626711D01*
X143971092Y-70456145D01*
X144116145Y-70311092D01*
X144286711Y-70197123D01*
X144476235Y-70118620D01*
X144677430Y-70078600D01*
X144882570Y-70078600D01*
X145083765Y-70118620D01*
X145083765Y-70118620D01*
G37*
M02*
