G04 #@! TF.GenerationSoftware,KiCad,Pcbnew,(5.0.2)-1*
G04 #@! TF.CreationDate,2019-10-20T23:59:16+02:00*
G04 #@! TF.ProjectId,esp32-lifepo4 - slim,65737033-322d-46c6-9966-65706f34202d,rev?*
G04 #@! TF.SameCoordinates,Original*
G04 #@! TF.FileFunction,Soldermask,Bot*
G04 #@! TF.FilePolarity,Negative*
%FSLAX46Y46*%
G04 Gerber Fmt 4.6, Leading zero omitted, Abs format (unit mm)*
G04 Created by KiCad (PCBNEW (5.0.2)-1) date 20/10/2019 23:59:16*
%MOMM*%
%LPD*%
G01*
G04 APERTURE LIST*
%ADD10C,0.150000*%
G04 APERTURE END LIST*
D10*
G36*
X157439925Y-117449554D02*
X157629449Y-117528057D01*
X157800015Y-117642026D01*
X157945068Y-117787079D01*
X158059037Y-117957645D01*
X158137540Y-118147169D01*
X158177560Y-118348364D01*
X158177560Y-118553504D01*
X158137540Y-118754699D01*
X158059037Y-118944223D01*
X157945068Y-119114789D01*
X157800015Y-119259842D01*
X157629449Y-119373811D01*
X157439925Y-119452314D01*
X157238730Y-119492334D01*
X157033590Y-119492334D01*
X156832395Y-119452314D01*
X156642871Y-119373811D01*
X156472305Y-119259842D01*
X156327252Y-119114789D01*
X156213283Y-118944223D01*
X156134780Y-118754699D01*
X156094760Y-118553504D01*
X156094760Y-118348364D01*
X156134780Y-118147169D01*
X156213283Y-117957645D01*
X156327252Y-117787079D01*
X156472305Y-117642026D01*
X156642871Y-117528057D01*
X156832395Y-117449554D01*
X157033590Y-117409534D01*
X157238730Y-117409534D01*
X157439925Y-117449554D01*
X157439925Y-117449554D01*
G37*
G36*
X137119925Y-117449554D02*
X137309449Y-117528057D01*
X137480015Y-117642026D01*
X137625068Y-117787079D01*
X137739037Y-117957645D01*
X137817540Y-118147169D01*
X137857560Y-118348364D01*
X137857560Y-118553504D01*
X137817540Y-118754699D01*
X137739037Y-118944223D01*
X137625068Y-119114789D01*
X137480015Y-119259842D01*
X137309449Y-119373811D01*
X137119925Y-119452314D01*
X136918730Y-119492334D01*
X136713590Y-119492334D01*
X136512395Y-119452314D01*
X136322871Y-119373811D01*
X136152305Y-119259842D01*
X136007252Y-119114789D01*
X135893283Y-118944223D01*
X135814780Y-118754699D01*
X135774760Y-118553504D01*
X135774760Y-118348364D01*
X135814780Y-118147169D01*
X135893283Y-117957645D01*
X136007252Y-117787079D01*
X136152305Y-117642026D01*
X136322871Y-117528057D01*
X136512395Y-117449554D01*
X136713590Y-117409534D01*
X136918730Y-117409534D01*
X137119925Y-117449554D01*
X137119925Y-117449554D01*
G37*
G36*
X137119925Y-114909554D02*
X137309449Y-114988057D01*
X137480015Y-115102026D01*
X137625068Y-115247079D01*
X137739037Y-115417645D01*
X137817540Y-115607169D01*
X137857560Y-115808364D01*
X137857560Y-116013504D01*
X137817540Y-116214699D01*
X137739037Y-116404223D01*
X137625068Y-116574789D01*
X137480015Y-116719842D01*
X137309449Y-116833811D01*
X137119925Y-116912314D01*
X136918730Y-116952334D01*
X136713590Y-116952334D01*
X136512395Y-116912314D01*
X136322871Y-116833811D01*
X136152305Y-116719842D01*
X136007252Y-116574789D01*
X135893283Y-116404223D01*
X135814780Y-116214699D01*
X135774760Y-116013504D01*
X135774760Y-115808364D01*
X135814780Y-115607169D01*
X135893283Y-115417645D01*
X136007252Y-115247079D01*
X136152305Y-115102026D01*
X136322871Y-114988057D01*
X136512395Y-114909554D01*
X136713590Y-114869534D01*
X136918730Y-114869534D01*
X137119925Y-114909554D01*
X137119925Y-114909554D01*
G37*
G36*
X157439925Y-114909554D02*
X157629449Y-114988057D01*
X157800015Y-115102026D01*
X157945068Y-115247079D01*
X158059037Y-115417645D01*
X158137540Y-115607169D01*
X158177560Y-115808364D01*
X158177560Y-116013504D01*
X158137540Y-116214699D01*
X158059037Y-116404223D01*
X157945068Y-116574789D01*
X157800015Y-116719842D01*
X157629449Y-116833811D01*
X157439925Y-116912314D01*
X157238730Y-116952334D01*
X157033590Y-116952334D01*
X156832395Y-116912314D01*
X156642871Y-116833811D01*
X156472305Y-116719842D01*
X156327252Y-116574789D01*
X156213283Y-116404223D01*
X156134780Y-116214699D01*
X156094760Y-116013504D01*
X156094760Y-115808364D01*
X156134780Y-115607169D01*
X156213283Y-115417645D01*
X156327252Y-115247079D01*
X156472305Y-115102026D01*
X156642871Y-114988057D01*
X156832395Y-114909554D01*
X157033590Y-114869534D01*
X157238730Y-114869534D01*
X157439925Y-114909554D01*
X157439925Y-114909554D01*
G37*
G36*
X157439925Y-112369554D02*
X157629449Y-112448057D01*
X157800015Y-112562026D01*
X157945068Y-112707079D01*
X158059037Y-112877645D01*
X158137540Y-113067169D01*
X158177560Y-113268364D01*
X158177560Y-113473504D01*
X158137540Y-113674699D01*
X158059037Y-113864223D01*
X157945068Y-114034789D01*
X157800015Y-114179842D01*
X157629449Y-114293811D01*
X157439925Y-114372314D01*
X157238730Y-114412334D01*
X157033590Y-114412334D01*
X156832395Y-114372314D01*
X156642871Y-114293811D01*
X156472305Y-114179842D01*
X156327252Y-114034789D01*
X156213283Y-113864223D01*
X156134780Y-113674699D01*
X156094760Y-113473504D01*
X156094760Y-113268364D01*
X156134780Y-113067169D01*
X156213283Y-112877645D01*
X156327252Y-112707079D01*
X156472305Y-112562026D01*
X156642871Y-112448057D01*
X156832395Y-112369554D01*
X157033590Y-112329534D01*
X157238730Y-112329534D01*
X157439925Y-112369554D01*
X157439925Y-112369554D01*
G37*
G36*
X137119925Y-112369554D02*
X137309449Y-112448057D01*
X137480015Y-112562026D01*
X137625068Y-112707079D01*
X137739037Y-112877645D01*
X137817540Y-113067169D01*
X137857560Y-113268364D01*
X137857560Y-113473504D01*
X137817540Y-113674699D01*
X137739037Y-113864223D01*
X137625068Y-114034789D01*
X137480015Y-114179842D01*
X137309449Y-114293811D01*
X137119925Y-114372314D01*
X136918730Y-114412334D01*
X136713590Y-114412334D01*
X136512395Y-114372314D01*
X136322871Y-114293811D01*
X136152305Y-114179842D01*
X136007252Y-114034789D01*
X135893283Y-113864223D01*
X135814780Y-113674699D01*
X135774760Y-113473504D01*
X135774760Y-113268364D01*
X135814780Y-113067169D01*
X135893283Y-112877645D01*
X136007252Y-112707079D01*
X136152305Y-112562026D01*
X136322871Y-112448057D01*
X136512395Y-112369554D01*
X136713590Y-112329534D01*
X136918730Y-112329534D01*
X137119925Y-112369554D01*
X137119925Y-112369554D01*
G37*
G36*
X157439925Y-109829554D02*
X157629449Y-109908057D01*
X157800015Y-110022026D01*
X157945068Y-110167079D01*
X158059037Y-110337645D01*
X158137540Y-110527169D01*
X158177560Y-110728364D01*
X158177560Y-110933504D01*
X158137540Y-111134699D01*
X158059037Y-111324223D01*
X157945068Y-111494789D01*
X157800015Y-111639842D01*
X157629449Y-111753811D01*
X157439925Y-111832314D01*
X157238730Y-111872334D01*
X157033590Y-111872334D01*
X156832395Y-111832314D01*
X156642871Y-111753811D01*
X156472305Y-111639842D01*
X156327252Y-111494789D01*
X156213283Y-111324223D01*
X156134780Y-111134699D01*
X156094760Y-110933504D01*
X156094760Y-110728364D01*
X156134780Y-110527169D01*
X156213283Y-110337645D01*
X156327252Y-110167079D01*
X156472305Y-110022026D01*
X156642871Y-109908057D01*
X156832395Y-109829554D01*
X157033590Y-109789534D01*
X157238730Y-109789534D01*
X157439925Y-109829554D01*
X157439925Y-109829554D01*
G37*
G36*
X137119925Y-109829554D02*
X137309449Y-109908057D01*
X137480015Y-110022026D01*
X137625068Y-110167079D01*
X137739037Y-110337645D01*
X137817540Y-110527169D01*
X137857560Y-110728364D01*
X137857560Y-110933504D01*
X137817540Y-111134699D01*
X137739037Y-111324223D01*
X137625068Y-111494789D01*
X137480015Y-111639842D01*
X137309449Y-111753811D01*
X137119925Y-111832314D01*
X136918730Y-111872334D01*
X136713590Y-111872334D01*
X136512395Y-111832314D01*
X136322871Y-111753811D01*
X136152305Y-111639842D01*
X136007252Y-111494789D01*
X135893283Y-111324223D01*
X135814780Y-111134699D01*
X135774760Y-110933504D01*
X135774760Y-110728364D01*
X135814780Y-110527169D01*
X135893283Y-110337645D01*
X136007252Y-110167079D01*
X136152305Y-110022026D01*
X136322871Y-109908057D01*
X136512395Y-109829554D01*
X136713590Y-109789534D01*
X136918730Y-109789534D01*
X137119925Y-109829554D01*
X137119925Y-109829554D01*
G37*
G36*
X157439925Y-107289554D02*
X157629449Y-107368057D01*
X157800015Y-107482026D01*
X157945068Y-107627079D01*
X158059037Y-107797645D01*
X158137540Y-107987169D01*
X158177560Y-108188364D01*
X158177560Y-108393504D01*
X158137540Y-108594699D01*
X158059037Y-108784223D01*
X157945068Y-108954789D01*
X157800015Y-109099842D01*
X157629449Y-109213811D01*
X157439925Y-109292314D01*
X157238730Y-109332334D01*
X157033590Y-109332334D01*
X156832395Y-109292314D01*
X156642871Y-109213811D01*
X156472305Y-109099842D01*
X156327252Y-108954789D01*
X156213283Y-108784223D01*
X156134780Y-108594699D01*
X156094760Y-108393504D01*
X156094760Y-108188364D01*
X156134780Y-107987169D01*
X156213283Y-107797645D01*
X156327252Y-107627079D01*
X156472305Y-107482026D01*
X156642871Y-107368057D01*
X156832395Y-107289554D01*
X157033590Y-107249534D01*
X157238730Y-107249534D01*
X157439925Y-107289554D01*
X157439925Y-107289554D01*
G37*
G36*
X137119925Y-107289554D02*
X137309449Y-107368057D01*
X137480015Y-107482026D01*
X137625068Y-107627079D01*
X137739037Y-107797645D01*
X137817540Y-107987169D01*
X137857560Y-108188364D01*
X137857560Y-108393504D01*
X137817540Y-108594699D01*
X137739037Y-108784223D01*
X137625068Y-108954789D01*
X137480015Y-109099842D01*
X137309449Y-109213811D01*
X137119925Y-109292314D01*
X136918730Y-109332334D01*
X136713590Y-109332334D01*
X136512395Y-109292314D01*
X136322871Y-109213811D01*
X136152305Y-109099842D01*
X136007252Y-108954789D01*
X135893283Y-108784223D01*
X135814780Y-108594699D01*
X135774760Y-108393504D01*
X135774760Y-108188364D01*
X135814780Y-107987169D01*
X135893283Y-107797645D01*
X136007252Y-107627079D01*
X136152305Y-107482026D01*
X136322871Y-107368057D01*
X136512395Y-107289554D01*
X136713590Y-107249534D01*
X136918730Y-107249534D01*
X137119925Y-107289554D01*
X137119925Y-107289554D01*
G37*
G36*
X157439925Y-104749554D02*
X157629449Y-104828057D01*
X157800015Y-104942026D01*
X157945068Y-105087079D01*
X158059037Y-105257645D01*
X158137540Y-105447169D01*
X158177560Y-105648364D01*
X158177560Y-105853504D01*
X158137540Y-106054699D01*
X158059037Y-106244223D01*
X157945068Y-106414789D01*
X157800015Y-106559842D01*
X157629449Y-106673811D01*
X157439925Y-106752314D01*
X157238730Y-106792334D01*
X157033590Y-106792334D01*
X156832395Y-106752314D01*
X156642871Y-106673811D01*
X156472305Y-106559842D01*
X156327252Y-106414789D01*
X156213283Y-106244223D01*
X156134780Y-106054699D01*
X156094760Y-105853504D01*
X156094760Y-105648364D01*
X156134780Y-105447169D01*
X156213283Y-105257645D01*
X156327252Y-105087079D01*
X156472305Y-104942026D01*
X156642871Y-104828057D01*
X156832395Y-104749554D01*
X157033590Y-104709534D01*
X157238730Y-104709534D01*
X157439925Y-104749554D01*
X157439925Y-104749554D01*
G37*
G36*
X137119925Y-104749554D02*
X137309449Y-104828057D01*
X137480015Y-104942026D01*
X137625068Y-105087079D01*
X137739037Y-105257645D01*
X137817540Y-105447169D01*
X137857560Y-105648364D01*
X137857560Y-105853504D01*
X137817540Y-106054699D01*
X137739037Y-106244223D01*
X137625068Y-106414789D01*
X137480015Y-106559842D01*
X137309449Y-106673811D01*
X137119925Y-106752314D01*
X136918730Y-106792334D01*
X136713590Y-106792334D01*
X136512395Y-106752314D01*
X136322871Y-106673811D01*
X136152305Y-106559842D01*
X136007252Y-106414789D01*
X135893283Y-106244223D01*
X135814780Y-106054699D01*
X135774760Y-105853504D01*
X135774760Y-105648364D01*
X135814780Y-105447169D01*
X135893283Y-105257645D01*
X136007252Y-105087079D01*
X136152305Y-104942026D01*
X136322871Y-104828057D01*
X136512395Y-104749554D01*
X136713590Y-104709534D01*
X136918730Y-104709534D01*
X137119925Y-104749554D01*
X137119925Y-104749554D01*
G37*
G36*
X137119925Y-102209554D02*
X137309449Y-102288057D01*
X137480015Y-102402026D01*
X137625068Y-102547079D01*
X137739037Y-102717645D01*
X137817540Y-102907169D01*
X137857560Y-103108364D01*
X137857560Y-103313504D01*
X137817540Y-103514699D01*
X137739037Y-103704223D01*
X137625068Y-103874789D01*
X137480015Y-104019842D01*
X137309449Y-104133811D01*
X137119925Y-104212314D01*
X136918730Y-104252334D01*
X136713590Y-104252334D01*
X136512395Y-104212314D01*
X136322871Y-104133811D01*
X136152305Y-104019842D01*
X136007252Y-103874789D01*
X135893283Y-103704223D01*
X135814780Y-103514699D01*
X135774760Y-103313504D01*
X135774760Y-103108364D01*
X135814780Y-102907169D01*
X135893283Y-102717645D01*
X136007252Y-102547079D01*
X136152305Y-102402026D01*
X136322871Y-102288057D01*
X136512395Y-102209554D01*
X136713590Y-102169534D01*
X136918730Y-102169534D01*
X137119925Y-102209554D01*
X137119925Y-102209554D01*
G37*
G36*
X157439925Y-102209554D02*
X157629449Y-102288057D01*
X157800015Y-102402026D01*
X157945068Y-102547079D01*
X158059037Y-102717645D01*
X158137540Y-102907169D01*
X158177560Y-103108364D01*
X158177560Y-103313504D01*
X158137540Y-103514699D01*
X158059037Y-103704223D01*
X157945068Y-103874789D01*
X157800015Y-104019842D01*
X157629449Y-104133811D01*
X157439925Y-104212314D01*
X157238730Y-104252334D01*
X157033590Y-104252334D01*
X156832395Y-104212314D01*
X156642871Y-104133811D01*
X156472305Y-104019842D01*
X156327252Y-103874789D01*
X156213283Y-103704223D01*
X156134780Y-103514699D01*
X156094760Y-103313504D01*
X156094760Y-103108364D01*
X156134780Y-102907169D01*
X156213283Y-102717645D01*
X156327252Y-102547079D01*
X156472305Y-102402026D01*
X156642871Y-102288057D01*
X156832395Y-102209554D01*
X157033590Y-102169534D01*
X157238730Y-102169534D01*
X157439925Y-102209554D01*
X157439925Y-102209554D01*
G37*
G36*
X137119925Y-99669554D02*
X137309449Y-99748057D01*
X137480015Y-99862026D01*
X137625068Y-100007079D01*
X137739037Y-100177645D01*
X137817540Y-100367169D01*
X137857560Y-100568364D01*
X137857560Y-100773504D01*
X137817540Y-100974699D01*
X137739037Y-101164223D01*
X137625068Y-101334789D01*
X137480015Y-101479842D01*
X137309449Y-101593811D01*
X137119925Y-101672314D01*
X136918730Y-101712334D01*
X136713590Y-101712334D01*
X136512395Y-101672314D01*
X136322871Y-101593811D01*
X136152305Y-101479842D01*
X136007252Y-101334789D01*
X135893283Y-101164223D01*
X135814780Y-100974699D01*
X135774760Y-100773504D01*
X135774760Y-100568364D01*
X135814780Y-100367169D01*
X135893283Y-100177645D01*
X136007252Y-100007079D01*
X136152305Y-99862026D01*
X136322871Y-99748057D01*
X136512395Y-99669554D01*
X136713590Y-99629534D01*
X136918730Y-99629534D01*
X137119925Y-99669554D01*
X137119925Y-99669554D01*
G37*
G36*
X157439925Y-99669554D02*
X157629449Y-99748057D01*
X157800015Y-99862026D01*
X157945068Y-100007079D01*
X158059037Y-100177645D01*
X158137540Y-100367169D01*
X158177560Y-100568364D01*
X158177560Y-100773504D01*
X158137540Y-100974699D01*
X158059037Y-101164223D01*
X157945068Y-101334789D01*
X157800015Y-101479842D01*
X157629449Y-101593811D01*
X157439925Y-101672314D01*
X157238730Y-101712334D01*
X157033590Y-101712334D01*
X156832395Y-101672314D01*
X156642871Y-101593811D01*
X156472305Y-101479842D01*
X156327252Y-101334789D01*
X156213283Y-101164223D01*
X156134780Y-100974699D01*
X156094760Y-100773504D01*
X156094760Y-100568364D01*
X156134780Y-100367169D01*
X156213283Y-100177645D01*
X156327252Y-100007079D01*
X156472305Y-99862026D01*
X156642871Y-99748057D01*
X156832395Y-99669554D01*
X157033590Y-99629534D01*
X157238730Y-99629534D01*
X157439925Y-99669554D01*
X157439925Y-99669554D01*
G37*
G36*
X137119925Y-97129554D02*
X137309449Y-97208057D01*
X137480015Y-97322026D01*
X137625068Y-97467079D01*
X137739037Y-97637645D01*
X137817540Y-97827169D01*
X137857560Y-98028364D01*
X137857560Y-98233504D01*
X137817540Y-98434699D01*
X137739037Y-98624223D01*
X137625068Y-98794789D01*
X137480015Y-98939842D01*
X137309449Y-99053811D01*
X137119925Y-99132314D01*
X136918730Y-99172334D01*
X136713590Y-99172334D01*
X136512395Y-99132314D01*
X136322871Y-99053811D01*
X136152305Y-98939842D01*
X136007252Y-98794789D01*
X135893283Y-98624223D01*
X135814780Y-98434699D01*
X135774760Y-98233504D01*
X135774760Y-98028364D01*
X135814780Y-97827169D01*
X135893283Y-97637645D01*
X136007252Y-97467079D01*
X136152305Y-97322026D01*
X136322871Y-97208057D01*
X136512395Y-97129554D01*
X136713590Y-97089534D01*
X136918730Y-97089534D01*
X137119925Y-97129554D01*
X137119925Y-97129554D01*
G37*
G36*
X157439925Y-97129554D02*
X157629449Y-97208057D01*
X157800015Y-97322026D01*
X157945068Y-97467079D01*
X158059037Y-97637645D01*
X158137540Y-97827169D01*
X158177560Y-98028364D01*
X158177560Y-98233504D01*
X158137540Y-98434699D01*
X158059037Y-98624223D01*
X157945068Y-98794789D01*
X157800015Y-98939842D01*
X157629449Y-99053811D01*
X157439925Y-99132314D01*
X157238730Y-99172334D01*
X157033590Y-99172334D01*
X156832395Y-99132314D01*
X156642871Y-99053811D01*
X156472305Y-98939842D01*
X156327252Y-98794789D01*
X156213283Y-98624223D01*
X156134780Y-98434699D01*
X156094760Y-98233504D01*
X156094760Y-98028364D01*
X156134780Y-97827169D01*
X156213283Y-97637645D01*
X156327252Y-97467079D01*
X156472305Y-97322026D01*
X156642871Y-97208057D01*
X156832395Y-97129554D01*
X157033590Y-97089534D01*
X157238730Y-97089534D01*
X157439925Y-97129554D01*
X157439925Y-97129554D01*
G37*
G36*
X157439925Y-94589554D02*
X157629449Y-94668057D01*
X157800015Y-94782026D01*
X157945068Y-94927079D01*
X158059037Y-95097645D01*
X158137540Y-95287169D01*
X158177560Y-95488364D01*
X158177560Y-95693504D01*
X158137540Y-95894699D01*
X158059037Y-96084223D01*
X157945068Y-96254789D01*
X157800015Y-96399842D01*
X157629449Y-96513811D01*
X157439925Y-96592314D01*
X157238730Y-96632334D01*
X157033590Y-96632334D01*
X156832395Y-96592314D01*
X156642871Y-96513811D01*
X156472305Y-96399842D01*
X156327252Y-96254789D01*
X156213283Y-96084223D01*
X156134780Y-95894699D01*
X156094760Y-95693504D01*
X156094760Y-95488364D01*
X156134780Y-95287169D01*
X156213283Y-95097645D01*
X156327252Y-94927079D01*
X156472305Y-94782026D01*
X156642871Y-94668057D01*
X156832395Y-94589554D01*
X157033590Y-94549534D01*
X157238730Y-94549534D01*
X157439925Y-94589554D01*
X157439925Y-94589554D01*
G37*
G36*
X137119925Y-94589554D02*
X137309449Y-94668057D01*
X137480015Y-94782026D01*
X137625068Y-94927079D01*
X137739037Y-95097645D01*
X137817540Y-95287169D01*
X137857560Y-95488364D01*
X137857560Y-95693504D01*
X137817540Y-95894699D01*
X137739037Y-96084223D01*
X137625068Y-96254789D01*
X137480015Y-96399842D01*
X137309449Y-96513811D01*
X137119925Y-96592314D01*
X136918730Y-96632334D01*
X136713590Y-96632334D01*
X136512395Y-96592314D01*
X136322871Y-96513811D01*
X136152305Y-96399842D01*
X136007252Y-96254789D01*
X135893283Y-96084223D01*
X135814780Y-95894699D01*
X135774760Y-95693504D01*
X135774760Y-95488364D01*
X135814780Y-95287169D01*
X135893283Y-95097645D01*
X136007252Y-94927079D01*
X136152305Y-94782026D01*
X136322871Y-94668057D01*
X136512395Y-94589554D01*
X136713590Y-94549534D01*
X136918730Y-94549534D01*
X137119925Y-94589554D01*
X137119925Y-94589554D01*
G37*
G36*
X157439925Y-92049554D02*
X157629449Y-92128057D01*
X157800015Y-92242026D01*
X157945068Y-92387079D01*
X158059037Y-92557645D01*
X158137540Y-92747169D01*
X158177560Y-92948364D01*
X158177560Y-93153504D01*
X158137540Y-93354699D01*
X158059037Y-93544223D01*
X157945068Y-93714789D01*
X157800015Y-93859842D01*
X157629449Y-93973811D01*
X157439925Y-94052314D01*
X157238730Y-94092334D01*
X157033590Y-94092334D01*
X156832395Y-94052314D01*
X156642871Y-93973811D01*
X156472305Y-93859842D01*
X156327252Y-93714789D01*
X156213283Y-93544223D01*
X156134780Y-93354699D01*
X156094760Y-93153504D01*
X156094760Y-92948364D01*
X156134780Y-92747169D01*
X156213283Y-92557645D01*
X156327252Y-92387079D01*
X156472305Y-92242026D01*
X156642871Y-92128057D01*
X156832395Y-92049554D01*
X157033590Y-92009534D01*
X157238730Y-92009534D01*
X157439925Y-92049554D01*
X157439925Y-92049554D01*
G37*
G36*
X137119925Y-92049554D02*
X137309449Y-92128057D01*
X137480015Y-92242026D01*
X137625068Y-92387079D01*
X137739037Y-92557645D01*
X137817540Y-92747169D01*
X137857560Y-92948364D01*
X137857560Y-93153504D01*
X137817540Y-93354699D01*
X137739037Y-93544223D01*
X137625068Y-93714789D01*
X137480015Y-93859842D01*
X137309449Y-93973811D01*
X137119925Y-94052314D01*
X136918730Y-94092334D01*
X136713590Y-94092334D01*
X136512395Y-94052314D01*
X136322871Y-93973811D01*
X136152305Y-93859842D01*
X136007252Y-93714789D01*
X135893283Y-93544223D01*
X135814780Y-93354699D01*
X135774760Y-93153504D01*
X135774760Y-92948364D01*
X135814780Y-92747169D01*
X135893283Y-92557645D01*
X136007252Y-92387079D01*
X136152305Y-92242026D01*
X136322871Y-92128057D01*
X136512395Y-92049554D01*
X136713590Y-92009534D01*
X136918730Y-92009534D01*
X137119925Y-92049554D01*
X137119925Y-92049554D01*
G37*
G36*
X157439925Y-89509554D02*
X157629449Y-89588057D01*
X157800015Y-89702026D01*
X157945068Y-89847079D01*
X158059037Y-90017645D01*
X158137540Y-90207169D01*
X158177560Y-90408364D01*
X158177560Y-90613504D01*
X158137540Y-90814699D01*
X158059037Y-91004223D01*
X157945068Y-91174789D01*
X157800015Y-91319842D01*
X157629449Y-91433811D01*
X157439925Y-91512314D01*
X157238730Y-91552334D01*
X157033590Y-91552334D01*
X156832395Y-91512314D01*
X156642871Y-91433811D01*
X156472305Y-91319842D01*
X156327252Y-91174789D01*
X156213283Y-91004223D01*
X156134780Y-90814699D01*
X156094760Y-90613504D01*
X156094760Y-90408364D01*
X156134780Y-90207169D01*
X156213283Y-90017645D01*
X156327252Y-89847079D01*
X156472305Y-89702026D01*
X156642871Y-89588057D01*
X156832395Y-89509554D01*
X157033590Y-89469534D01*
X157238730Y-89469534D01*
X157439925Y-89509554D01*
X157439925Y-89509554D01*
G37*
G36*
X137119925Y-89509554D02*
X137309449Y-89588057D01*
X137480015Y-89702026D01*
X137625068Y-89847079D01*
X137739037Y-90017645D01*
X137817540Y-90207169D01*
X137857560Y-90408364D01*
X137857560Y-90613504D01*
X137817540Y-90814699D01*
X137739037Y-91004223D01*
X137625068Y-91174789D01*
X137480015Y-91319842D01*
X137309449Y-91433811D01*
X137119925Y-91512314D01*
X136918730Y-91552334D01*
X136713590Y-91552334D01*
X136512395Y-91512314D01*
X136322871Y-91433811D01*
X136152305Y-91319842D01*
X136007252Y-91174789D01*
X135893283Y-91004223D01*
X135814780Y-90814699D01*
X135774760Y-90613504D01*
X135774760Y-90408364D01*
X135814780Y-90207169D01*
X135893283Y-90017645D01*
X136007252Y-89847079D01*
X136152305Y-89702026D01*
X136322871Y-89588057D01*
X136512395Y-89509554D01*
X136713590Y-89469534D01*
X136918730Y-89469534D01*
X137119925Y-89509554D01*
X137119925Y-89509554D01*
G37*
M02*
