G04 #@! TF.GenerationSoftware,KiCad,Pcbnew,(5.0.2)-1*
G04 #@! TF.CreationDate,2019-10-20T23:59:16+02:00*
G04 #@! TF.ProjectId,esp32-lifepo4 - slim,65737033-322d-46c6-9966-65706f34202d,rev?*
G04 #@! TF.SameCoordinates,Original*
G04 #@! TF.FileFunction,Paste,Top*
G04 #@! TF.FilePolarity,Positive*
%FSLAX46Y46*%
G04 Gerber Fmt 4.6, Leading zero omitted, Abs format (unit mm)*
G04 Created by KiCad (PCBNEW (5.0.2)-1) date 20/10/2019 23:59:16*
%MOMM*%
%LPD*%
G01*
G04 APERTURE LIST*
%ADD10O,2.500000X0.900000*%
%ADD11O,0.900000X2.500000*%
%ADD12R,6.000000X6.000000*%
%ADD13R,1.250000X1.000000*%
%ADD14R,0.800000X0.800000*%
%ADD15R,0.797560X1.198880*%
%ADD16R,1.550000X0.600000*%
%ADD17R,0.650000X1.060000*%
G04 APERTURE END LIST*
D10*
G04 #@! TO.C,U1*
X155976160Y-70020934D03*
X155976160Y-71290934D03*
X155976160Y-72560934D03*
X155976160Y-73830934D03*
X155976160Y-75100934D03*
X155976160Y-76370934D03*
X155976160Y-77640934D03*
X155976160Y-78910934D03*
X155976160Y-80180934D03*
X155976160Y-81450934D03*
X155976160Y-82720934D03*
X155976160Y-83990934D03*
X155976160Y-85260934D03*
X155976160Y-86530934D03*
D11*
X152691160Y-88020934D03*
X151421160Y-88020934D03*
X150151160Y-88020934D03*
X148881160Y-88020934D03*
X147611160Y-88020934D03*
X146341160Y-88020934D03*
X145071160Y-88020934D03*
X143801160Y-88020934D03*
X142531160Y-88020934D03*
X141261160Y-88020934D03*
D10*
X137976160Y-86530934D03*
X137976160Y-85260934D03*
X137976160Y-83990934D03*
X137976160Y-82720934D03*
X137976160Y-81450934D03*
X137976160Y-80180934D03*
X137976160Y-78910934D03*
X137976160Y-77640934D03*
X137976160Y-76370934D03*
X137976160Y-75100934D03*
X137976160Y-73830934D03*
X137976160Y-72560934D03*
X137976160Y-71290934D03*
X137976160Y-70020934D03*
D12*
X146676160Y-77720934D03*
G04 #@! TD*
D13*
G04 #@! TO.C,C1*
X141896160Y-97130934D03*
X141896160Y-99130934D03*
G04 #@! TD*
G04 #@! TO.C,C2*
X152056160Y-97130934D03*
X152056160Y-99130934D03*
G04 #@! TD*
D14*
G04 #@! TO.C,D2*
X152386160Y-103210934D03*
X150786160Y-103210934D03*
G04 #@! TD*
G04 #@! TO.C,D3*
X141896160Y-103210934D03*
X143496160Y-103210934D03*
G04 #@! TD*
D15*
G04 #@! TO.C,R1*
X147875320Y-107020934D03*
X146077000Y-107020934D03*
G04 #@! TD*
G04 #@! TO.C,R2*
X143694480Y-93050934D03*
X141896160Y-93050934D03*
G04 #@! TD*
G04 #@! TO.C,R3*
X151685320Y-93050934D03*
X149887000Y-93050934D03*
G04 #@! TD*
D16*
G04 #@! TO.C,U2*
X149676160Y-96225934D03*
X149676160Y-97495934D03*
X149676160Y-98765934D03*
X149676160Y-100035934D03*
X144276160Y-100035934D03*
X144276160Y-98765934D03*
X144276160Y-97495934D03*
X144276160Y-96225934D03*
G04 #@! TD*
D17*
G04 #@! TO.C,U3*
X146026160Y-111000934D03*
X147926160Y-111000934D03*
X147926160Y-113200934D03*
X146976160Y-113200934D03*
X146026160Y-113200934D03*
G04 #@! TD*
M02*
